<?xml version="1.0" encoding="utf-8"?>
<!-- Generator: Adobe Illustrator 24.2.1, SVG Export Plug-In . SVG Version: 6.00 Build 0)  -->
<svg version="1.1" xmlns="http://www.w3.org/2000/svg" xmlns:xlink="http://www.w3.org/1999/xlink" x="0px" y="0px"
	 viewBox="0 0 274 768" style="enable-background:new 0 0 274 768;" xml:space="preserve">
<style type="text/css">
	.st0{fill:none;}
	.st1{fill:#FFFFFF;}
	.st2{fill:#302356;}
	.st3{opacity:0.08;fill:#FFFFFF;}
	.st4{fill:url(#SVGID_1_);}
	.st5{fill:url(#SVGID_2_);}
	.st6{fill:url(#SVGID_3_);}
	.st7{fill:url(#SVGID_4_);}
</style>
<pattern  x="-149" width="372.15" height="391.43" patternUnits="userSpaceOnUse" id="Nueva_muestra_de_motivo_3" viewBox="1.42 -391.43 372.15 391.43" style="overflow:visible;">
	<g>
		<rect x="1.42" y="-391.43" class="st0" width="372.15" height="391.43"/>
		<g>
			<path class="st1" d="M141.79-376.58l-0.51,0.12l-0.12-0.51c0,0-0.64-2.84-1.54-2.64c-0.91,0.2-0.27,3.04-0.27,3.04l0.12,0.51
				l-0.51,0.12c0,0-2.84,0.64-2.64,1.54c0.2,0.91,3.04,0.27,3.04,0.27l0.51-0.12l0.12,0.51c0,0,0.64,2.84,1.54,2.64
				s0.27-3.04,0.27-3.04l-0.12-0.51l0.51-0.12c0,0,2.84-0.64,2.64-1.54S141.79-376.58,141.79-376.58z"/>
			<path class="st1" d="M154.45-305.67c0.15,0.5-0.13,1.03-0.63,1.18c-0.5,0.15-1.03-0.13-1.18-0.63c-0.15-0.5,0.13-1.03,0.63-1.18
				C153.77-306.45,154.3-306.17,154.45-305.67z"/>
			<path class="st1" d="M186.44-334.74c0.26,0.86-0.22,1.76-1.08,2.02c-0.86,0.26-1.76-0.22-2.02-1.08
				c-0.26-0.86,0.22-1.76,1.08-2.02C185.28-336.08,186.18-335.6,186.44-334.74z"/>
			<path class="st1" d="M231.44-296.74c0.26,0.86-0.22,1.76-1.08,2.02c-0.86,0.26-1.76-0.22-2.02-1.08
				c-0.26-0.86,0.22-1.76,1.08-2.02C230.28-298.08,231.18-297.6,231.44-296.74z"/>
			<path class="st1" d="M257.87-345.1c0.4,1.32-0.34,2.71-1.66,3.12c-1.32,0.4-2.71-0.34-3.12-1.66c-0.4-1.32,0.34-2.71,1.66-3.12
				S257.46-346.41,257.87-345.1z"/>
			<path class="st1" d="M207.87-317.1c0.4,1.32-0.34,2.71-1.66,3.12c-1.32,0.4-2.71-0.34-3.12-1.66c-0.4-1.32,0.34-2.71,1.66-3.12
				C206.07-319.16,207.46-318.41,207.87-317.1z"/>
			<path class="st1" d="M221.14-341.61c0.19,0.61-0.16,1.25-0.76,1.44c-0.61,0.19-1.25-0.16-1.44-0.76
				c-0.19-0.61,0.16-1.25,0.76-1.44C220.31-342.56,220.96-342.22,221.14-341.61z"/>
			<path class="st1" d="M110.29-373.96c0.85-1.09,2.42-1.28,3.5-0.43c1.09,0.85,1.28,2.42,0.43,3.5c-0.85,1.09-2.42,1.28-3.5,0.43
				C109.64-371.31,109.45-372.88,110.29-373.96z"/>
			<path class="st1" d="M71.29-387.98c0.85-1.09,2.42-1.28,3.51-0.43c1.09,0.85,1.28,2.42,0.43,3.51c-0.85,1.09-2.42,1.28-3.51,0.43
				C70.63-385.31,70.44-386.89,71.29-387.98z"/>
			<path class="st1" d="M275.13-390.4c0.85-1.09,2.42-1.28,3.5-0.43c1.09,0.85,1.28,2.42,0.43,3.5c-0.85,1.09-2.42,1.28-3.5,0.43
				C274.47-387.75,274.28-389.32,275.13-390.4z"/>
			<path class="st1" d="M170.25-376.24c0.39-0.5,1.11-0.59,1.62-0.2c0.5,0.39,0.59,1.11,0.2,1.62c-0.39,0.5-1.11,0.59-1.62,0.2
				C169.94-375.01,169.85-375.74,170.25-376.24z"/>
			<path class="st1" d="M116.25-347.24c0.39-0.5,1.11-0.59,1.62-0.2c0.5,0.39,0.59,1.11,0.2,1.62c-0.39,0.5-1.11,0.59-1.62,0.2
				C115.94-346.01,115.85-346.74,116.25-347.24z"/>
			<path class="st1" d="M232.03-366.91l-0.78-0.03l0.03-0.78c0,0,0.15-4.3-1.22-4.35c-1.37-0.05-1.52,4.25-1.52,4.25l-0.03,0.78
				l-0.78-0.03c0,0-4.3-0.15-4.35,1.22c-0.05,1.37,4.25,1.52,4.25,1.52l0.78,0.03l-0.03,0.78c0,0-0.15,4.3,1.22,4.35
				c1.37,0.05,1.52-4.25,1.52-4.25l0.03-0.78l0.78,0.03c0,0,4.3,0.15,4.35-1.22C236.32-366.76,232.03-366.91,232.03-366.91z"/>
			<path class="st1" d="M204.88-372.5l-0.39,0.09l-0.09-0.39c0,0-0.48-2.16-1.17-2c-0.69,0.15-0.2,2.31-0.2,2.31l0.09,0.39
				l-0.39,0.09c0,0-2.16,0.48-2,1.17c0.15,0.69,2.31,0.2,2.31,0.2l0.39-0.09l0.09,0.39c0,0,0.48,2.16,1.17,2
				c0.69-0.15,0.2-2.31,0.2-2.31l-0.09-0.39l0.39-0.09c0,0,2.16-0.48,2-1.17C207.04-372.99,204.88-372.5,204.88-372.5z"/>
			<path class="st1" d="M157.62-342.04c-2.86-1.74-5.03-5.11-5.93-9.23c-0.06-0.28-0.45-0.28-0.52,0c-0.89,4.13-3.06,7.49-5.93,9.23
				c-0.62,0.38-2.17,0.96-2.17,0.96s1.55,0.58,2.17,0.96c2.86,1.74,5.03,5.11,5.93,9.23c0.06,0.28,0.45,0.28,0.52,0
				c0.89-4.13,3.06-7.49,5.93-9.23c0.62-0.38,2.17-0.96,2.17-0.96S158.25-341.67,157.62-342.04z"/>
		</g>
		<g>
			<path class="st1" d="M45.37-198.89c0.26,0.86-0.22,1.76-1.08,2.02c-0.86,0.26-1.76-0.22-2.02-1.08
				c-0.26-0.86,0.22-1.76,1.08-2.02C44.2-200.22,45.11-199.74,45.37-198.89z"/>
			<path class="st1" d="M71.79-247.24c0.4,1.32-0.34,2.71-1.66,3.12c-1.32,0.4-2.71-0.34-3.12-1.66c-0.4-1.32,0.34-2.71,1.66-3.12
				C69.99-249.3,71.39-248.56,71.79-247.24z"/>
			<path class="st1" d="M71.79-360.24c0.4,1.32-0.34,2.71-1.66,3.12c-1.32,0.4-2.71-0.34-3.12-1.66c-0.4-1.32,0.34-2.71,1.66-3.12
				C69.99-362.3,71.39-361.56,71.79-360.24z"/>
			<path class="st1" d="M21.79-219.24c0.4,1.32-0.34,2.71-1.66,3.12c-1.32,0.4-2.71-0.34-3.12-1.66c-0.4-1.32,0.34-2.71,1.66-3.12
				C19.99-221.3,21.39-220.56,21.79-219.24z"/>
			<path class="st1" d="M35.07-243.75c0.19,0.61-0.16,1.25-0.76,1.44c-0.61,0.19-1.25-0.16-1.44-0.76
				c-0.19-0.61,0.16-1.25,0.76-1.44C34.24-244.7,34.88-244.36,35.07-243.75z"/>
			<path class="st1" d="M91.07-308.75c0.19,0.61-0.16,1.25-0.76,1.44c-0.61,0.19-1.25-0.16-1.44-0.76
				c-0.19-0.61,0.16-1.25,0.76-1.44C90.24-309.7,90.88-309.36,91.07-308.75z"/>
			<path class="st1" d="M89.05-292.54c0.85-1.09,2.42-1.28,3.5-0.43c1.09,0.85,1.28,2.42,0.43,3.5c-0.85,1.09-2.42,1.28-3.5,0.43
				C88.39-289.89,88.2-291.46,89.05-292.54z"/>
			<path class="st1" d="M30.91-317.44c0.54-0.69,1.54-0.82,2.24-0.28c0.69,0.54,0.82,1.54,0.28,2.24c-0.54,0.69-1.54,0.82-2.24,0.28
				C30.5-315.75,30.37-316.75,30.91-317.44z"/>
			<path class="st1" d="M76.91-324.44c0.54-0.69,1.54-0.82,2.24-0.28c0.69,0.54,0.82,1.54,0.28,2.24c-0.54,0.69-1.54,0.82-2.24,0.28
				C76.5-322.75,76.37-323.75,76.91-324.44z"/>
			<path class="st1" d="M0.24-327.07c0.39-0.5,1.11-0.59,1.62-0.2c0.5,0.39,0.59,1.11,0.2,1.62c-0.39,0.5-1.11,0.59-1.62,0.2
				C-0.06-325.84-0.15-326.57,0.24-327.07z"/>
			<path class="st1" d="M23.24-372.07c0.39-0.5,1.11-0.59,1.62-0.2c0.5,0.39,0.59,1.11,0.2,1.62c-0.39,0.5-1.11,0.59-1.62,0.2
				C22.94-370.84,22.85-371.57,23.24-372.07z"/>
			<path class="st1" d="M19.85-312.75l-0.8-0.2l0.2-0.8c0,0,1.13-4.41-0.28-4.77c-1.41-0.36-2.53,4.05-2.53,4.05l-0.2,0.8l-0.8-0.2
				c0,0-4.41-1.13-4.77,0.28c-0.36,1.41,4.05,2.53,4.05,2.53l0.8,0.2l-0.2,0.8c0,0-1.13,4.41,0.28,4.77
				c1.41,0.36,2.53-4.05,2.53-4.05l0.2-0.8l0.8,0.2c0,0,4.41,1.13,4.77-0.28C24.25-311.62,19.85-312.75,19.85-312.75z"/>
			<path class="st1" d="M45.95-269.05l-0.78-0.03l0.03-0.78c0,0,0.15-4.3-1.22-4.35c-1.37-0.05-1.52,4.25-1.52,4.25l-0.03,0.78
				l-0.78-0.03c0,0-4.3-0.15-4.35,1.22c-0.05,1.37,4.25,1.52,4.25,1.52l0.78,0.03l-0.03,0.78c0,0-0.15,4.3,1.22,4.35
				c1.37,0.05,1.52-4.25,1.52-4.25l0.03-0.78l0.78,0.03c0,0,4.3,0.15,4.35-1.22C50.25-268.9,45.95-269.05,45.95-269.05z"/>
			<path class="st1" d="M18.81-274.64l-0.39,0.09l-0.09-0.39c0,0-0.48-2.16-1.17-2c-0.69,0.15-0.2,2.31-0.2,2.31l0.09,0.39
				l-0.39,0.09c0,0-2.16,0.48-2,1.17c0.15,0.69,2.31,0.2,2.31,0.2l0.39-0.09l0.09,0.39c0,0,0.48,2.16,1.17,2
				c0.69-0.15,0.2-2.31,0.2-2.31l-0.09-0.39l0.39-0.09c0,0,2.16-0.48,2-1.17C20.96-275.13,18.81-274.64,18.81-274.64z"/>
			<path class="st1" d="M50.64-336.5c-1.6-0.7-2.77-2.13-3.1-3.85c-0.33,1.72-1.5,3.15-3.1,3.85c-0.31,0.14-1.09,0.34-1.09,0.34
				s0.78,0.21,1.09,0.34c1.6,0.7,2.77,2.13,3.1,3.85c0.33-1.72,1.5-3.15,3.1-3.85c0.31-0.14,1.09-0.34,1.09-0.34
				S50.95-336.37,50.64-336.5z"/>
			<path class="st1" d="M15.99-349.41c-1.71-0.37-3.14-1.54-3.8-3.16c0.02,1.75-0.85,3.38-2.28,4.38c-0.28,0.19-1,0.55-1,0.55
				s0.8,0.05,1.14,0.12c1.71,0.37,3.14,1.54,3.8,3.16c-0.02-1.75,0.85-3.38,2.28-4.38c0.28-0.19,1-0.55,1-0.55
				S16.32-349.34,15.99-349.41z"/>
		</g>
		<g>
			<path class="st1" d="M141.79-180.87l-0.51,0.12l-0.12-0.51c0,0-0.64-2.84-1.54-2.64c-0.91,0.2-0.27,3.04-0.27,3.04l0.12,0.51
				l-0.51,0.12c0,0-2.84,0.64-2.64,1.54c0.2,0.91,3.04,0.27,3.04,0.27l0.51-0.12l0.12,0.51c0,0,0.64,2.84,1.54,2.64
				c0.91-0.2,0.27-3.04,0.27-3.04l-0.12-0.51l0.51-0.12c0,0,2.84-0.64,2.64-1.54S141.79-180.87,141.79-180.87z"/>
			<path class="st1" d="M154.45-109.95c0.15,0.5-0.13,1.03-0.63,1.18c-0.5,0.15-1.03-0.13-1.18-0.63c-0.15-0.5,0.13-1.03,0.63-1.18
				C153.77-110.74,154.3-110.46,154.45-109.95z"/>
			<path class="st1" d="M186.44-139.03c0.26,0.86-0.22,1.76-1.08,2.02c-0.86,0.26-1.76-0.22-2.02-1.08
				c-0.26-0.86,0.22-1.76,1.08-2.02C185.28-140.36,186.18-139.88,186.44-139.03z"/>
			<path class="st1" d="M231.44-101.03c0.26,0.86-0.22,1.76-1.08,2.02c-0.86,0.26-1.76-0.22-2.02-1.08
				c-0.26-0.86,0.22-1.76,1.08-2.02C230.28-102.36,231.18-101.88,231.44-101.03z"/>
			<path class="st1" d="M257.87-149.38c0.4,1.32-0.34,2.71-1.66,3.12c-1.32,0.4-2.71-0.34-3.12-1.66c-0.4-1.32,0.34-2.71,1.66-3.12
				C256.07-151.44,257.46-150.7,257.87-149.38z"/>
			<path class="st1" d="M257.87-262.38c0.4,1.32-0.34,2.71-1.66,3.12c-1.32,0.4-2.71-0.34-3.12-1.66c-0.4-1.32,0.34-2.71,1.66-3.12
				C256.07-264.44,257.46-263.7,257.87-262.38z"/>
			<path class="st1" d="M207.87-121.38c0.4,1.32-0.34,2.71-1.66,3.12c-1.32,0.4-2.71-0.34-3.12-1.66c-0.4-1.32,0.34-2.71,1.66-3.12
				C206.07-123.44,207.46-122.7,207.87-121.38z"/>
			<path class="st1" d="M221.14-145.89c0.19,0.61-0.16,1.25-0.76,1.44c-0.61,0.19-1.25-0.16-1.44-0.76
				c-0.19-0.61,0.16-1.25,0.76-1.44C220.31-146.84,220.96-146.5,221.14-145.89z"/>
			<path class="st1" d="M277.14-210.89c0.19,0.61-0.16,1.25-0.76,1.44c-0.61,0.19-1.25-0.16-1.44-0.76
				c-0.19-0.61,0.16-1.25,0.76-1.44C276.31-211.84,276.96-211.5,277.14-210.89z"/>
			<path class="st1" d="M110.29-178.25c0.85-1.09,2.42-1.28,3.5-0.43c1.09,0.85,1.28,2.42,0.43,3.5c-0.85,1.09-2.42,1.28-3.5,0.43
				C109.64-175.59,109.45-177.16,110.29-178.25z"/>
			<path class="st1" d="M71.29-192.26c0.85-1.09,2.42-1.28,3.51-0.43c1.09,0.85,1.28,2.42,0.43,3.51c-0.85,1.09-2.42,1.28-3.51,0.43
				C70.63-189.6,70.44-191.17,71.29-192.26z"/>
			<path class="st1" d="M151.13-201.69c0.85-1.09,2.42-1.28,3.5-0.43c1.09,0.85,1.28,2.42,0.43,3.5c-0.85,1.09-2.42,1.28-3.5,0.43
				C150.47-199.03,150.28-200.6,151.13-201.69z"/>
			<path class="st1" d="M275.13-194.69c0.85-1.09,2.42-1.28,3.5-0.43c1.09,0.85,1.28,2.42,0.43,3.5c-0.85,1.09-2.42,1.28-3.5,0.43
				C274.47-192.03,274.28-193.6,275.13-194.69z"/>
			<path class="st1" d="M216.99-219.58c0.54-0.69,1.54-0.82,2.24-0.28c0.69,0.54,0.82,1.54,0.28,2.24
				c-0.54,0.69-1.54,0.82-2.24,0.28C216.57-217.89,216.45-218.89,216.99-219.58z"/>
			<path class="st1" d="M262.99-226.58c0.54-0.69,1.54-0.82,2.24-0.28c0.69,0.54,0.82,1.54,0.28,2.24
				c-0.54,0.69-1.54,0.82-2.24,0.28C262.57-224.89,262.45-225.89,262.99-226.58z"/>
			<path class="st1" d="M168.96-218.8c0.39-0.5,1.11-0.59,1.62-0.2c0.5,0.39,0.59,1.11,0.2,1.62c-0.39,0.5-1.11,0.59-1.62,0.2
				C168.66-217.58,168.57-218.3,168.96-218.8z"/>
			<path class="st1" d="M186.32-229.21c0.39-0.5,1.11-0.59,1.62-0.2c0.5,0.39,0.59,1.11,0.2,1.62c-0.39,0.5-1.11,0.59-1.62,0.2
				C186.02-227.98,185.93-228.71,186.32-229.21z"/>
			<path class="st1" d="M164.32-257.21c0.39-0.5,1.11-0.59,1.62-0.2c0.5,0.39,0.59,1.11,0.2,1.62c-0.39,0.5-1.11,0.59-1.62,0.2
				C164.02-255.98,163.93-256.71,164.32-257.21z"/>
			<path class="st1" d="M209.32-274.21c0.39-0.5,1.11-0.59,1.62-0.2c0.5,0.39,0.59,1.11,0.2,1.62c-0.39,0.5-1.11,0.59-1.62,0.2
				C209.02-272.98,208.93-273.71,209.32-274.21z"/>
			<path class="st1" d="M132.32-274.21c0.39-0.5,1.11-0.59,1.62-0.2c0.5,0.39,0.59,1.11,0.2,1.62c-0.39,0.5-1.11,0.59-1.62,0.2
				C132.02-272.98,131.93-273.71,132.32-274.21z"/>
			<path class="st1" d="M170.25-180.52c0.39-0.5,1.11-0.59,1.62-0.2c0.5,0.39,0.59,1.11,0.2,1.62c-0.39,0.5-1.11,0.59-1.62,0.2
				C169.94-179.3,169.85-180.02,170.25-180.52z"/>
			<path class="st1" d="M116.25-151.52c0.39-0.5,1.11-0.59,1.62-0.2c0.5,0.39,0.59,1.11,0.2,1.62c-0.39,0.5-1.11,0.59-1.62,0.2
				C115.94-150.3,115.85-151.02,116.25-151.52z"/>
			<path class="st1" d="M205.92-214.89l-0.8-0.2l0.2-0.8c0,0,1.13-4.41-0.28-4.77c-1.41-0.36-2.53,4.05-2.53,4.05l-0.2,0.8l-0.8-0.2
				c0,0-4.41-1.13-4.77,0.28c-0.36,1.41,4.05,2.53,4.05,2.53l0.8,0.2l-0.2,0.8c0,0-1.13,4.41,0.28,4.77
				c1.41,0.36,2.53-4.05,2.53-4.05l0.2-0.8l0.8,0.2c0,0,4.41,1.13,4.77-0.28C210.33-213.76,205.92-214.89,205.92-214.89z"/>
			<path class="st1" d="M232.03-171.19l-0.78-0.03l0.03-0.78c0,0,0.15-4.3-1.22-4.35c-1.37-0.05-1.52,4.25-1.52,4.25l-0.03,0.78
				l-0.78-0.03c0,0-4.3-0.15-4.35,1.22c-0.05,1.37,4.25,1.52,4.25,1.52l0.78,0.03l-0.03,0.78c0,0-0.15,4.3,1.22,4.35
				c1.37,0.05,1.52-4.25,1.52-4.25l0.03-0.78l0.78,0.03c0,0,4.3,0.15,4.35-1.22C236.32-171.04,232.03-171.19,232.03-171.19z"/>
			<path class="st1" d="M204.88-176.78l-0.39,0.09l-0.09-0.39c0,0-0.48-2.16-1.17-2c-0.69,0.15-0.2,2.31-0.2,2.31l0.09,0.39
				l-0.39,0.09c0,0-2.16,0.48-2,1.17c0.15,0.69,2.31,0.2,2.31,0.2l0.39-0.09l0.09,0.39c0,0,0.48,2.16,1.17,2
				c0.69-0.15,0.2-2.31,0.2-2.31l-0.09-0.39l0.39-0.09c0,0,2.16-0.48,2-1.17C207.04-177.27,204.88-176.78,204.88-176.78z"/>
			<path class="st1" d="M142.22-250.37c-1.75-0.07-3.51-0.07-3.53-0.07h-2.26l0.65-0.65c0.01-0.01,0.81-0.81,1.57-1.64
				c1.58-1.72,1.44-1.85,1.37-1.92c-0.07-0.07-0.21-0.21-1.92,1.37c-0.83,0.76-1.63,1.56-1.64,1.57l-0.65,0.65v-2.26
				c0-0.02,0-1.79-0.07-3.53c-0.15-3.59-0.43-3.59-0.57-3.59c-0.14,0-0.43,0-0.57,3.59c-0.07,1.75-0.07,3.51-0.07,3.53v2.26
				l-0.65-0.65c-0.01-0.01-0.81-0.81-1.64-1.57c-1.71-1.58-1.85-1.44-1.92-1.37c-0.07,0.07-0.21,0.21,1.37,1.92
				c0.76,0.83,1.56,1.63,1.57,1.64l0.65,0.65h-2.26c-0.02,0-1.79,0-3.53,0.07c-3.59,0.15-3.59,0.43-3.59,0.57
				c0,0.14,0,0.43,3.59,0.57c1.75,0.07,3.51,0.07,3.53,0.07h2.26l-0.65,0.65c-0.01,0.01-0.81,0.81-1.57,1.64
				c-1.58,1.71-1.44,1.85-1.37,1.92c0.07,0.07,0.21,0.21,1.92-1.37c0.83-0.76,1.63-1.56,1.64-1.57l0.65-0.65v2.26
				c0,0.02,0,1.79,0.07,3.53c0.15,3.59,0.43,3.59,0.57,3.59c0.14,0,0.43,0,0.57-3.59c0.07-1.75,0.07-3.51,0.07-3.53v-2.26l0.65,0.65
				c0.01,0.01,0.81,0.81,1.64,1.57c1.71,1.58,1.85,1.44,1.92,1.37c0.07-0.07,0.21-0.21-1.37-1.92c-0.76-0.83-1.56-1.63-1.57-1.64
				l-0.65-0.65h2.26c0.02,0,1.79,0,3.53-0.07c3.59-0.15,3.59-0.43,3.59-0.57C145.82-249.94,145.82-250.23,142.22-250.37z"/>
			<path class="st1" d="M157.62-146.33c-2.86-1.74-5.03-5.11-5.93-9.23c-0.06-0.28-0.45-0.28-0.52,0c-0.89,4.13-3.06,7.49-5.93,9.23
				c-0.62,0.38-2.17,0.96-2.17,0.96s1.55,0.58,2.17,0.96c2.86,1.74,5.03,5.11,5.93,9.23c0.06,0.28,0.45,0.28,0.52,0
				c0.89-4.13,3.06-7.49,5.93-9.23c0.62-0.38,2.17-0.96,2.17-0.96S158.25-145.95,157.62-146.33z"/>
			<path class="st1" d="M236.71-238.65c-1.6-0.7-2.77-2.13-3.1-3.85c-0.33,1.72-1.5,3.15-3.1,3.85c-0.31,0.14-1.09,0.34-1.09,0.34
				s0.78,0.21,1.09,0.34c1.6,0.7,2.77,2.13,3.1,3.85c0.33-1.72,1.5-3.15,3.1-3.85c0.31-0.14,1.09-0.34,1.09-0.34
				S237.02-238.51,236.71-238.65z"/>
			<path class="st1" d="M202.06-251.55c-1.71-0.37-3.14-1.54-3.8-3.16c0.02,1.75-0.85,3.38-2.28,4.38c-0.28,0.19-1,0.55-1,0.55
				s0.8,0.05,1.14,0.12c1.71,0.37,3.14,1.54,3.8,3.16c-0.02-1.75,0.85-3.38,2.28-4.38c0.28-0.19,1-0.55,1-0.55
				S202.4-251.48,202.06-251.55z"/>
			<path class="st1" d="M114.93-218.55c-1.6-0.7-2.77-2.13-3.1-3.85c-0.33,1.72-1.5,3.15-3.1,3.85c-0.31,0.14-1.09,0.34-1.09,0.34
				s0.78,0.21,1.09,0.34c1.6,0.7,2.77,2.13,3.1,3.85c0.33-1.72,1.5-3.15,3.1-3.85c0.31-0.14,1.09-0.34,1.09-0.34
				S115.24-218.42,114.93-218.55z"/>
			<path class="st1" d="M104.86-255.47c0.04-3.36,4.28-3.88,5.13-0.63C109.96-252.74,105.71-252.22,104.86-255.47z"/>
		</g>
		<g>
			<path class="st1" d="M327.86-278.73l-0.51,0.12l-0.12-0.51c0,0-0.64-2.84-1.54-2.64c-0.91,0.2-0.27,3.04-0.27,3.04l0.12,0.51
				l-0.51,0.12c0,0-2.84,0.64-2.64,1.54c0.2,0.91,3.04,0.27,3.04,0.27l0.51-0.12l0.12,0.51c0,0,0.64,2.84,1.54,2.64
				c0.91-0.2,0.27-3.04,0.27-3.04l-0.12-0.51l0.51-0.12c0,0,2.84-0.64,2.64-1.54S327.86-278.73,327.86-278.73z"/>
			<path class="st1" d="M340.53-207.81c0.15,0.5-0.13,1.03-0.63,1.18c-0.5,0.15-1.03-0.13-1.18-0.63c-0.15-0.5,0.13-1.03,0.63-1.18
				C339.84-208.6,340.37-208.31,340.53-207.81z"/>
			<path class="st1" d="M372.52-236.89c0.26,0.86-0.22,1.76-1.08,2.02c-0.86,0.26-1.76-0.22-2.02-1.08
				c-0.26-0.86,0.22-1.76,1.08-2.02C371.35-238.22,372.26-237.74,372.52-236.89z"/>
			<path class="st1" d="M296.37-276.1c0.85-1.09,2.42-1.28,3.5-0.43c1.09,0.85,1.28,2.42,0.43,3.5c-0.85,1.09-2.42,1.28-3.5,0.43
				C295.71-273.45,295.52-275.02,296.37-276.1z"/>
			<path class="st1" d="M257.36-290.12c0.85-1.09,2.42-1.28,3.51-0.43c1.09,0.85,1.28,2.42,0.43,3.51
				c-0.85,1.09-2.42,1.28-3.51,0.43C256.7-287.45,256.51-289.03,257.36-290.12z"/>
			<path class="st1" d="M337.2-299.54c0.85-1.09,2.42-1.28,3.5-0.43c1.09,0.85,1.28,2.42,0.43,3.5c-0.85,1.09-2.42,1.28-3.5,0.43
				C336.54-296.89,336.35-298.46,337.2-299.54z"/>
			<path class="st1" d="M355.04-316.66c0.39-0.5,1.11-0.59,1.62-0.2c0.5,0.39,0.59,1.11,0.2,1.62c-0.39,0.5-1.11,0.59-1.62,0.2
				C354.73-315.43,354.64-316.16,355.04-316.66z"/>
			<path class="st1" d="M372.39-327.07c0.39-0.5,1.11-0.59,1.62-0.2c0.5,0.39,0.59,1.11,0.2,1.62c-0.39,0.5-1.11,0.59-1.62,0.2
				C372.09-325.84,372-326.57,372.39-327.07z"/>
			<path class="st1" d="M350.39-355.07c0.39-0.5,1.11-0.59,1.62-0.2c0.5,0.39,0.59,1.11,0.2,1.62c-0.39,0.5-1.11,0.59-1.62,0.2
				C350.09-353.84,350-354.57,350.39-355.07z"/>
			<path class="st1" d="M318.39-372.07c0.39-0.5,1.11-0.59,1.62-0.2c0.5,0.39,0.59,1.11,0.2,1.62c-0.39,0.5-1.11,0.59-1.62,0.2
				C318.09-370.84,318-371.57,318.39-372.07z"/>
			<path class="st1" d="M356.32-278.38c0.39-0.5,1.11-0.59,1.62-0.2c0.5,0.39,0.59,1.11,0.2,1.62c-0.39,0.5-1.11,0.59-1.62,0.2
				S355.93-277.88,356.32-278.38z"/>
			<path class="st1" d="M302.32-249.38c0.39-0.5,1.11-0.59,1.62-0.2c0.5,0.39,0.59,1.11,0.2,1.62c-0.39,0.5-1.11,0.59-1.62,0.2
				C302.02-248.16,301.93-248.88,302.32-249.38z"/>
			<path class="st1" d="M328.3-348.23c-1.75-0.07-3.51-0.07-3.53-0.07h-2.26l0.65-0.65c0.01-0.01,0.81-0.81,1.57-1.64
				c1.58-1.72,1.44-1.85,1.37-1.92c-0.07-0.07-0.21-0.21-1.92,1.37c-0.83,0.76-1.63,1.56-1.64,1.57l-0.65,0.65v-2.26
				c0-0.02,0-1.79-0.07-3.53c-0.15-3.59-0.43-3.59-0.57-3.59s-0.43,0-0.57,3.59c-0.07,1.75-0.07,3.51-0.07,3.53v2.26l-0.65-0.65
				c-0.01-0.01-0.81-0.81-1.64-1.57c-1.71-1.58-1.85-1.44-1.92-1.37s-0.21,0.21,1.37,1.92c0.76,0.83,1.56,1.63,1.57,1.64l0.65,0.65
				h-2.26c-0.02,0-1.79,0-3.53,0.07c-3.59,0.15-3.59,0.43-3.59,0.57c0,0.14,0,0.43,3.59,0.57c1.75,0.07,3.51,0.07,3.53,0.07h2.26
				l-0.65,0.65c-0.01,0.01-0.81,0.81-1.57,1.64c-1.58,1.71-1.44,1.85-1.37,1.92c0.07,0.07,0.21,0.21,1.92-1.37
				c0.83-0.76,1.63-1.56,1.64-1.57l0.65-0.65v2.26c0,0.02,0,1.79,0.07,3.53c0.15,3.59,0.43,3.59,0.57,3.59s0.43,0,0.57-3.59
				c0.07-1.75,0.07-3.51,0.07-3.53v-2.26l0.65,0.65c0.01,0.01,0.81,0.81,1.64,1.57c1.71,1.58,1.85,1.44,1.92,1.37
				c0.07-0.07,0.21-0.21-1.37-1.92c-0.76-0.83-1.56-1.63-1.57-1.64l-0.65-0.65h2.26c0.02,0,1.79,0,3.53-0.07
				c3.59-0.15,3.59-0.43,3.59-0.57C331.89-347.8,331.89-348.09,328.3-348.23z"/>
			<path class="st1" d="M343.7-244.18c-2.86-1.74-5.03-5.11-5.93-9.23c-0.06-0.28-0.45-0.28-0.52,0c-0.89,4.13-3.06,7.49-5.93,9.23
				c-0.62,0.38-2.17,0.96-2.17,0.96s1.55,0.58,2.17,0.96c2.86,1.74,5.03,5.11,5.93,9.23c0.06,0.28,0.45,0.28,0.52,0
				c0.89-4.13,3.06-7.49,5.93-9.23c0.62-0.38,2.17-0.96,2.17-0.96S344.32-243.81,343.7-244.18z"/>
			<path class="st1" d="M301-316.41c-1.6-0.7-2.77-2.13-3.1-3.85c-0.33,1.72-1.5,3.15-3.1,3.85c-0.31,0.14-1.09,0.34-1.09,0.34
				s0.78,0.21,1.09,0.34c1.6,0.7,2.77,2.13,3.1,3.85c0.33-1.72,1.5-3.15,3.1-3.85c0.31-0.14,1.09-0.34,1.09-0.34
				S301.31-316.27,301-316.41z"/>
			<path class="st1" d="M290.94-353.33c0.04-3.36,4.28-3.88,5.13-0.63C296.03-350.6,291.79-350.08,290.94-353.33z"/>
		</g>
		<g>
			<path class="st1" d="M45.37-3.17c0.26,0.86-0.22,1.76-1.08,2.02c-0.86,0.26-1.76-0.22-2.02-1.08c-0.26-0.86,0.22-1.76,1.08-2.02
				C44.2-4.51,45.11-4.02,45.37-3.17z"/>
			<path class="st1" d="M71.79-51.52c0.4,1.32-0.34,2.71-1.66,3.12c-1.32,0.4-2.71-0.34-3.12-1.66c-0.4-1.32,0.34-2.71,1.66-3.12
				C69.99-53.58,71.39-52.84,71.79-51.52z"/>
			<path class="st1" d="M71.79-164.52c0.4,1.32-0.34,2.71-1.66,3.12c-1.32,0.4-2.71-0.34-3.12-1.66c-0.4-1.32,0.34-2.71,1.66-3.12
				C69.99-166.58,71.39-165.84,71.79-164.52z"/>
			<path class="st1" d="M21.79-23.52c0.4,1.32-0.34,2.71-1.66,3.12c-1.32,0.4-2.71-0.34-3.12-1.66c-0.4-1.32,0.34-2.71,1.66-3.12
				C19.99-25.58,21.39-24.84,21.79-23.52z"/>
			<path class="st1" d="M35.07-48.04c0.19,0.61-0.16,1.25-0.76,1.44c-0.61,0.19-1.25-0.16-1.44-0.76c-0.19-0.61,0.16-1.25,0.76-1.44
				C34.24-48.99,34.88-48.64,35.07-48.04z"/>
			<path class="st1" d="M91.07-113.04c0.19,0.61-0.16,1.25-0.76,1.44c-0.61,0.19-1.25-0.16-1.44-0.76
				c-0.19-0.61,0.16-1.25,0.76-1.44C90.24-113.99,90.88-113.64,91.07-113.04z"/>
			<path class="st1" d="M89.05-96.83c0.85-1.09,2.42-1.28,3.5-0.43c1.09,0.85,1.28,2.42,0.43,3.5c-0.85,1.09-2.42,1.28-3.5,0.43
				C88.39-94.17,88.2-95.74,89.05-96.83z"/>
			<path class="st1" d="M30.91-121.72c0.54-0.69,1.54-0.82,2.24-0.28c0.69,0.54,0.82,1.54,0.28,2.24c-0.54,0.69-1.54,0.82-2.24,0.28
				C30.5-120.03,30.37-121.03,30.91-121.72z"/>
			<path class="st1" d="M76.91-128.72c0.54-0.69,1.54-0.82,2.24-0.28c0.69,0.54,0.82,1.54,0.28,2.24c-0.54,0.69-1.54,0.82-2.24,0.28
				C76.5-127.03,76.37-128.03,76.91-128.72z"/>
			<path class="st1" d="M0.24-131.35c0.39-0.5,1.11-0.59,1.62-0.2c0.5,0.39,0.59,1.11,0.2,1.62c-0.39,0.5-1.11,0.59-1.62,0.2
				C-0.06-130.13-0.15-130.85,0.24-131.35z"/>
			<path class="st1" d="M23.24-176.35c0.39-0.5,1.11-0.59,1.62-0.2c0.5,0.39,0.59,1.11,0.2,1.62c-0.39,0.5-1.11,0.59-1.62,0.2
				C22.94-175.13,22.85-175.85,23.24-176.35z"/>
			<path class="st1" d="M19.85-117.03l-0.8-0.2l0.2-0.8c0,0,1.13-4.41-0.28-4.77c-1.41-0.36-2.53,4.05-2.53,4.05l-0.2,0.8l-0.8-0.2
				c0,0-4.41-1.13-4.77,0.28c-0.36,1.41,4.05,2.53,4.05,2.53l0.8,0.2l-0.2,0.8c0,0-1.13,4.41,0.28,4.77
				c1.41,0.36,2.53-4.05,2.53-4.05l0.2-0.8l0.8,0.2c0,0,4.41,1.13,4.77-0.28C24.25-115.9,19.85-117.03,19.85-117.03z"/>
			<path class="st1" d="M45.95-73.33l-0.78-0.03l0.03-0.78c0,0,0.15-4.3-1.22-4.35c-1.37-0.05-1.52,4.25-1.52,4.25l-0.03,0.78
				l-0.78-0.03c0,0-4.3-0.15-4.35,1.22c-0.05,1.37,4.25,1.52,4.25,1.52l0.78,0.03l-0.03,0.78c0,0-0.15,4.3,1.22,4.35
				c1.37,0.05,1.52-4.25,1.52-4.25l0.03-0.78l0.78,0.03c0,0,4.3,0.15,4.35-1.22C50.25-73.18,45.95-73.33,45.95-73.33z"/>
			<path class="st1" d="M18.81-78.93l-0.39,0.09l-0.09-0.39c0,0-0.48-2.16-1.17-2c-0.69,0.15-0.2,2.31-0.2,2.31l0.09,0.39
				l-0.39,0.09c0,0-2.16,0.48-2,1.17c0.15,0.69,2.31,0.2,2.31,0.2l0.39-0.09l0.09,0.39c0,0,0.48,2.16,1.17,2
				c0.69-0.15,0.2-2.31,0.2-2.31l-0.09-0.39l0.39-0.09c0,0,2.16-0.48,2-1.17C20.96-79.41,18.81-78.93,18.81-78.93z"/>
			<path class="st1" d="M50.64-140.79c-1.6-0.7-2.77-2.13-3.1-3.85c-0.33,1.72-1.5,3.15-3.1,3.85c-0.31,0.14-1.09,0.34-1.09,0.34
				s0.78,0.21,1.09,0.34c1.6,0.7,2.77,2.13,3.1,3.85c0.33-1.72,1.5-3.15,3.1-3.85c0.31-0.14,1.09-0.34,1.09-0.34
				S50.95-140.65,50.64-140.79z"/>
			<path class="st1" d="M15.99-153.7c-1.71-0.37-3.14-1.54-3.8-3.16c0.02,1.75-0.85,3.38-2.28,4.38c-0.28,0.19-1,0.55-1,0.55
				s0.8,0.05,1.14,0.12c1.71,0.37,3.14,1.54,3.8,3.16c-0.02-1.75,0.85-3.38,2.28-4.38c0.28-0.19,1-0.55,1-0.55
				S16.32-153.62,15.99-153.7z"/>
		</g>
		<g>
			<path class="st1" d="M257.87-66.66c0.4,1.32-0.34,2.71-1.66,3.12c-1.32,0.4-2.71-0.34-3.12-1.66c-0.4-1.32,0.34-2.71,1.66-3.12
				C256.07-68.72,257.46-67.98,257.87-66.66z"/>
			<path class="st1" d="M277.14-15.18c0.19,0.61-0.16,1.25-0.76,1.44c-0.61,0.19-1.25-0.16-1.44-0.76
				c-0.19-0.61,0.16-1.25,0.76-1.44C276.31-16.13,276.96-15.78,277.14-15.18z"/>
			<path class="st1" d="M151.13-5.97c0.85-1.09,2.42-1.28,3.5-0.43c1.09,0.85,1.28,2.42,0.43,3.5c-0.85,1.09-2.42,1.28-3.5,0.43
				C150.47-3.31,150.28-4.88,151.13-5.97z"/>
			<path class="st1" d="M216.99-23.87c0.54-0.69,1.54-0.82,2.24-0.28c0.69,0.54,0.82,1.54,0.28,2.24c-0.54,0.69-1.54,0.82-2.24,0.28
				C216.57-22.17,216.45-23.17,216.99-23.87z"/>
			<path class="st1" d="M262.99-30.87c0.54-0.69,1.54-0.82,2.24-0.28c0.69,0.54,0.82,1.54,0.28,2.24c-0.54,0.69-1.54,0.82-2.24,0.28
				C262.57-29.17,262.45-30.17,262.99-30.87z"/>
			<path class="st1" d="M168.96-23.08c0.39-0.5,1.11-0.59,1.62-0.2c0.5,0.39,0.59,1.11,0.2,1.62c-0.39,0.5-1.11,0.59-1.62,0.2
				C168.66-21.86,168.57-22.58,168.96-23.08z"/>
			<path class="st1" d="M186.32-33.49c0.39-0.5,1.11-0.59,1.62-0.2c0.5,0.39,0.59,1.11,0.2,1.62c-0.39,0.5-1.11,0.59-1.62,0.2
				C186.02-32.27,185.93-32.99,186.32-33.49z"/>
			<path class="st1" d="M164.32-61.49c0.39-0.5,1.11-0.59,1.62-0.2c0.5,0.39,0.59,1.11,0.2,1.62c-0.39,0.5-1.11,0.59-1.62,0.2
				C164.02-60.27,163.93-60.99,164.32-61.49z"/>
			<path class="st1" d="M209.32-78.49c0.39-0.5,1.11-0.59,1.62-0.2c0.5,0.39,0.59,1.11,0.2,1.62c-0.39,0.5-1.11,0.59-1.62,0.2
				C209.02-77.27,208.93-77.99,209.32-78.49z"/>
			<path class="st1" d="M132.32-78.49c0.39-0.5,1.11-0.59,1.62-0.2c0.5,0.39,0.59,1.11,0.2,1.62c-0.39,0.5-1.11,0.59-1.62,0.2
				C132.02-77.27,131.93-77.99,132.32-78.49z"/>
			<path class="st1" d="M205.92-19.17l-0.8-0.2l0.2-0.8c0,0,1.13-4.41-0.28-4.77c-1.41-0.36-2.53,4.05-2.53,4.05l-0.2,0.8l-0.8-0.2
				c0,0-4.41-1.13-4.77,0.28c-0.36,1.41,4.05,2.53,4.05,2.53l0.8,0.2l-0.2,0.8c0,0-1.13,4.41,0.28,4.77
				c1.41,0.36,2.53-4.05,2.53-4.05l0.2-0.8l0.8,0.2c0,0,4.41,1.13,4.77-0.28C210.33-18.04,205.92-19.17,205.92-19.17z"/>
			<path class="st1" d="M142.22-54.66c-1.75-0.07-3.51-0.07-3.53-0.07h-2.26l0.65-0.65c0.01-0.01,0.81-0.81,1.57-1.64
				c1.58-1.72,1.44-1.85,1.37-1.92c-0.07-0.07-0.21-0.21-1.92,1.37c-0.83,0.76-1.63,1.56-1.64,1.57l-0.65,0.65v-2.26
				c0-0.02,0-1.79-0.07-3.53c-0.15-3.59-0.43-3.59-0.57-3.59c-0.14,0-0.43,0-0.57,3.59c-0.07,1.75-0.07,3.51-0.07,3.53v2.26
				L133.87-56c-0.01-0.01-0.81-0.81-1.64-1.57c-1.71-1.58-1.85-1.44-1.92-1.37c-0.07,0.07-0.21,0.21,1.37,1.92
				c0.76,0.83,1.56,1.63,1.57,1.64l0.65,0.65h-2.26c-0.02,0-1.79,0-3.53,0.07c-3.59,0.15-3.59,0.43-3.59,0.57
				c0,0.14,0,0.43,3.59,0.57c1.75,0.07,3.51,0.07,3.53,0.07h2.26l-0.65,0.65c-0.01,0.01-0.81,0.81-1.57,1.64
				c-1.58,1.72-1.44,1.85-1.37,1.92c0.07,0.07,0.21,0.21,1.92-1.37c0.83-0.76,1.63-1.56,1.64-1.57l0.65-0.65v2.26
				c0,0.02,0,1.79,0.07,3.53c0.15,3.59,0.43,3.59,0.57,3.59c0.14,0,0.43,0,0.57-3.59c0.07-1.75,0.07-3.51,0.07-3.53v-2.26l0.65,0.65
				c0.01,0.01,0.81,0.81,1.64,1.57c1.71,1.58,1.85,1.44,1.92,1.37c0.07-0.07,0.21-0.21-1.37-1.92c-0.76-0.83-1.56-1.63-1.57-1.64
				l-0.65-0.65h2.26c0.02,0,1.79,0,3.53-0.07c3.59-0.15,3.59-0.43,3.59-0.57C145.82-54.22,145.82-54.51,142.22-54.66z"/>
			<path class="st1" d="M236.71-42.93c-1.6-0.7-2.77-2.13-3.1-3.85c-0.33,1.72-1.5,3.15-3.1,3.85c-0.31,0.14-1.09,0.34-1.09,0.34
				s0.78,0.21,1.09,0.34c1.6,0.7,2.77,2.13,3.1,3.85c0.33-1.72,1.5-3.15,3.1-3.85c0.31-0.14,1.09-0.34,1.09-0.34
				S237.02-42.79,236.71-42.93z"/>
			<path class="st1" d="M202.06-55.84c-1.71-0.37-3.14-1.54-3.8-3.16c0.02,1.75-0.85,3.38-2.28,4.38c-0.28,0.19-1,0.55-1,0.55
				s0.8,0.05,1.14,0.12c1.71,0.37,3.14,1.54,3.8,3.16c-0.02-1.75,0.85-3.38,2.28-4.38c0.28-0.19,1-0.55,1-0.55
				S202.4-55.77,202.06-55.84z"/>
			<path class="st1" d="M114.93-22.83c-1.6-0.7-2.77-2.13-3.1-3.85c-0.33,1.72-1.5,3.15-3.1,3.85c-0.31,0.14-1.09,0.34-1.09,0.34
				s0.78,0.21,1.09,0.34c1.6,0.7,2.77,2.13,3.1,3.85c0.33-1.72,1.5-3.15,3.1-3.85c0.31-0.14,1.09-0.34,1.09-0.34
				S115.24-22.7,114.93-22.83z"/>
			<path class="st1" d="M104.86-59.75c0.04-3.36,4.28-3.88,5.13-0.63C109.96-57.03,105.71-56.5,104.86-59.75z"/>
		</g>
		<g>
			<path class="st1" d="M327.86-83.01l-0.51,0.12l-0.12-0.51c0,0-0.64-2.84-1.54-2.64S325.42-83,325.42-83l0.12,0.51l-0.51,0.12
				c0,0-2.84,0.64-2.64,1.54c0.2,0.91,3.04,0.27,3.04,0.27l0.51-0.12l0.12,0.51c0,0,0.64,2.84,1.54,2.64
				c0.91-0.2,0.27-3.04,0.27-3.04l-0.12-0.51l0.51-0.12c0,0,2.84-0.64,2.64-1.54C330.7-83.65,327.86-83.01,327.86-83.01z"/>
			<path class="st1" d="M340.53-12.1c0.15,0.5-0.13,1.03-0.63,1.18c-0.5,0.15-1.03-0.13-1.18-0.63c-0.15-0.5,0.13-1.03,0.63-1.18
				C339.84-12.88,340.37-12.6,340.53-12.1z"/>
			<path class="st1" d="M372.52-41.17c0.26,0.86-0.22,1.76-1.08,2.02c-0.86,0.26-1.76-0.22-2.02-1.08
				c-0.26-0.86,0.22-1.76,1.08-2.02C371.35-42.51,372.26-42.02,372.52-41.17z"/>
			<path class="st1" d="M296.37-80.39c0.85-1.09,2.42-1.28,3.5-0.43c1.09,0.85,1.28,2.42,0.43,3.5c-0.85,1.09-2.42,1.28-3.5,0.43
				C295.71-77.73,295.52-79.3,296.37-80.39z"/>
			<path class="st1" d="M257.36-94.4c0.85-1.09,2.42-1.28,3.51-0.43c1.09,0.85,1.28,2.42,0.43,3.51c-0.85,1.09-2.42,1.28-3.51,0.43
				C256.7-91.74,256.51-93.31,257.36-94.4z"/>
			<path class="st1" d="M337.2-103.83c0.85-1.09,2.42-1.28,3.5-0.43c1.09,0.85,1.28,2.42,0.43,3.5c-0.85,1.09-2.42,1.28-3.5,0.43
				C336.54-101.17,336.35-102.74,337.2-103.83z"/>
			<path class="st1" d="M355.04-120.94c0.39-0.5,1.11-0.59,1.62-0.2c0.5,0.39,0.59,1.11,0.2,1.62c-0.39,0.5-1.11,0.59-1.62,0.2
				C354.73-119.72,354.64-120.44,355.04-120.94z"/>
			<path class="st1" d="M372.39-131.35c0.39-0.5,1.11-0.59,1.62-0.2c0.5,0.39,0.59,1.11,0.2,1.62c-0.39,0.5-1.11,0.59-1.62,0.2
				C372.09-130.13,372-130.85,372.39-131.35z"/>
			<path class="st1" d="M350.39-159.35c0.39-0.5,1.11-0.59,1.62-0.2c0.5,0.39,0.59,1.11,0.2,1.62c-0.39,0.5-1.11,0.59-1.62,0.2
				C350.09-158.13,350-158.85,350.39-159.35z"/>
			<path class="st1" d="M318.39-176.35c0.39-0.5,1.11-0.59,1.62-0.2c0.5,0.39,0.59,1.11,0.2,1.62c-0.39,0.5-1.11,0.59-1.62,0.2
				C318.09-175.13,318-175.85,318.39-176.35z"/>
			<path class="st1" d="M356.32-82.66c0.39-0.5,1.11-0.59,1.62-0.2c0.5,0.39,0.59,1.11,0.2,1.62c-0.39,0.5-1.11,0.59-1.62,0.2
				C356.02-81.44,355.93-82.16,356.32-82.66z"/>
			<path class="st1" d="M302.32-53.66c0.39-0.5,1.11-0.59,1.62-0.2c0.5,0.39,0.59,1.11,0.2,1.62c-0.39,0.5-1.11,0.59-1.62,0.2
				C302.02-52.44,301.93-53.16,302.32-53.66z"/>
			<path class="st1" d="M328.3-152.52c-1.75-0.07-3.51-0.07-3.53-0.07h-2.26l0.65-0.65c0.01-0.01,0.81-0.81,1.57-1.64
				c1.58-1.72,1.44-1.85,1.37-1.92c-0.07-0.07-0.21-0.21-1.92,1.37c-0.83,0.76-1.63,1.56-1.64,1.57l-0.65,0.65v-2.26
				c0-0.02,0-1.79-0.07-3.53c-0.15-3.59-0.43-3.59-0.57-3.59s-0.43,0-0.57,3.59c-0.07,1.75-0.07,3.51-0.07,3.53v2.26l-0.65-0.65
				c-0.01-0.01-0.81-0.81-1.64-1.57c-1.71-1.58-1.85-1.44-1.92-1.37c-0.07,0.07-0.21,0.21,1.37,1.92c0.76,0.83,1.56,1.63,1.57,1.64
				l0.65,0.65h-2.26c-0.02,0-1.79,0-3.53,0.07c-3.59,0.15-3.59,0.43-3.59,0.57c0,0.14,0,0.43,3.59,0.57
				c1.75,0.07,3.51,0.07,3.53,0.07h2.26l-0.65,0.65c-0.01,0.01-0.81,0.81-1.57,1.64c-1.58,1.72-1.44,1.85-1.37,1.92
				c0.07,0.07,0.21,0.21,1.92-1.37c0.83-0.76,1.63-1.56,1.64-1.57l0.65-0.65v2.26c0,0.02,0,1.79,0.07,3.53
				c0.15,3.59,0.43,3.59,0.57,3.59s0.43,0,0.57-3.59c0.07-1.75,0.07-3.51,0.07-3.53v-2.26l0.65,0.65c0.01,0.01,0.81,0.81,1.64,1.57
				c1.71,1.58,1.85,1.44,1.92,1.37c0.07-0.07,0.21-0.21-1.37-1.92c-0.76-0.83-1.56-1.63-1.57-1.64l-0.65-0.65h2.26
				c0.02,0,1.79,0,3.53-0.07c3.59-0.15,3.59-0.43,3.59-0.57C331.89-152.08,331.89-152.37,328.3-152.52z"/>
			<path class="st1" d="M343.7-48.47c-2.86-1.74-5.03-5.11-5.93-9.23c-0.06-0.28-0.45-0.28-0.52,0c-0.89,4.13-3.06,7.49-5.93,9.23
				c-0.62,0.38-2.17,0.96-2.17,0.96s1.55,0.58,2.17,0.96c2.86,1.74,5.03,5.11,5.93,9.23c0.06,0.28,0.45,0.28,0.52,0
				c0.89-4.13,3.06-7.49,5.93-9.23c0.62-0.38,2.17-0.96,2.17-0.96S344.32-48.09,343.7-48.47z"/>
			<path class="st1" d="M301-120.69c-1.6-0.7-2.77-2.13-3.1-3.85c-0.33,1.72-1.5,3.15-3.1,3.85c-0.31,0.14-1.09,0.34-1.09,0.34
				s0.78,0.21,1.09,0.34c1.6,0.7,2.77,2.13,3.1,3.85c0.33-1.72,1.5-3.15,3.1-3.85c0.31-0.14,1.09-0.34,1.09-0.34
				S301.31-120.56,301-120.69z"/>
			<path class="st1" d="M290.94-157.61c0.04-3.36,4.28-3.88,5.13-0.63C296.03-154.88,291.79-154.36,290.94-157.61z"/>
		</g>
	</g>
</pattern>
<g id="Capa_2">
</g>
<g id="Capa_1">
	<g>
		<g>
			<path class="st2" d="M92.78-1.04c-0.04,0.19,0.04,0.37,0.04,0.54c-0.01,0.12-0.05,0.24-0.22,0.36
				C79.01-0.07,60.48-0.56,48.05-0.26c-12.42,0.29-18.5-0.57-29.68,1.8C13.84,24.79,9.02,58.8,8.06,80.88
				c-0.04,0.87-0.07,1.73-0.1,2.56c-0.02,0.77-0.04,1.48-0.06,2.14c-0.02,0.44-0.03,0.85-0.04,1.24c0,0.12-0.01,0.24-0.01,0.35
				c-0.01,0.26-0.02,0.51-0.02,0.74c-0.01,0.17-0.01,0.34-0.02,0.5c-0.01,0.32-0.02,0.62-0.03,0.89c0,0.14-0.01,0.27-0.01,0.4
				c-0.01,0.24-0.02,0.46-0.03,0.66c0,0.12,0,0.22-0.01,0.33c0,0.11-0.01,0.2-0.01,0.3c0.01-0.52,0.02-1.05,0.04-1.57
				c0.03-1.19,0.04-1.88,0.04-2.22c0.01-0.82-0.03,0.48-0.07,2.01c0,0.04,0,0.08,0,0.11c-0.03,1.09-0.06,2.26-0.07,2.82
				c0,0.07,0,0.13,0,0.18c0,0.02,0,0.03,0,0.04c0,0.03,0,0.05,0,0.07c0,0.13,0.01,0,0.03-0.49c-0.03,1.64-0.07,3.28-0.11,4.92
				c-0.05,1.95-0.1,3.89-0.15,5.84c-0.12,5.18-0.25,10.38-0.35,15.58c-0.01,0.49-0.02,0.97-0.03,1.46c-0.03,1.73-0.05,3.47-0.08,5.2
				v0.1c-0.02,1.86-0.04,3.72-0.06,5.58c-0.01,1.86-0.02,3.71-0.02,5.57c0,5.14,0.06,10.28,0.19,15.4c0.07,2.14,0.14,4.26,0.23,6.39
				c0.12,2.99,0.28,5.96,0.48,8.93c0.2,3.15,0.45,6.29,0.75,9.42c0.28,2.95,0.6,5.89,0.97,8.82c0.25,1.98,0.52,3.94,0.81,5.9
				c0.21,1.39,0.43,2.76,0.66,4.14c5.6,33.3,15.96,62.57,30.93,92.48c6.82,14.69,13.22,28.39,18.04,44.28
				c0.88,2.91,1.65,5.79,2.33,8.69c1.6,6.79,2.67,13.7,3.22,21.5c1.87,26.46-4.99,50.74-14.68,75.78c-0.49,1.27-1.47,3.94-1.99,5.23
				c-12.74,31.12-20.95,65.45-27.86,97.77c-0.48,2.24-0.92,4.53-1.34,6.83c-1.66,9.07-2.93,18.58-4.06,28.02
				c-1.69,14.1-3.07,28.05-5.03,40.18C7.09,637.4,6.75,721.07,7.13,739.28c0.01,0.44,0.02,0.85,0.03,1.21
				c0.14,5.4,0.32,10.83,0.52,16.34c0.12,3.16,0.24,8.04,0.58,11.67c0.03,0.26,0.05,0.53,0.07,0.77c6.77,0.21,13.65,0.32,20.59,0.4
				h0L274,771.35V740.7v-79.83V617.5V507.98v-17.49v-77.5V267.82V145.05V-0.93C213.59-0.98,153.19-1.53,92.78-1.04z"/>
			<path class="st2" d="M6.5,693.58c0-0.02,0-0.04-0.01-0.06c0-0.02-0.01-0.05-0.01-0.07c-0.01-0.09-0.03-0.2-0.05-0.36
				c0.01,0.09,0.02,0.17,0.03,0.24c0.01,0.08,0.02,0.14,0.03,0.19C6.49,693.54,6.49,693.56,6.5,693.58c0,0.01,0,0.02,0,0.03
				c0.01,0.06,0.01,0.06,0-0.01C6.5,693.6,6.5,693.59,6.5,693.58z"/>
			<path class="st2" d="M6.37,692.65c0-0.06-0.02-0.13-0.02-0.13C6.36,692.56,6.37,692.61,6.37,692.65z"/>
		</g>
		<path class="st0" d="M7.72,90.99c0-0.1,0.01-0.19,0.01-0.3c0.01-0.11,0.01-0.21,0.01-0.33c0-0.31,0.01-0.62,0.02-0.94
			c0.03-1.55,0.05-2.26,0.05-2.43c0,0.04-0.01,0.11-0.01,0.21c0,0,0,0,0,0c0,0.34-0.02,1.02-0.04,2.22
			C7.75,89.94,7.73,90.47,7.72,90.99z"/>
		<path class="st0" d="M7.66,92.32c0-0.05,0-0.11,0-0.18C7.66,92.22,7.66,92.27,7.66,92.32z"/>
		<path class="st0" d="M7.73,89.24c0,0.03,0,0.06,0,0.08c0-0.04,0-0.08,0-0.11C7.73,89.22,7.73,89.23,7.73,89.24z"/>
		<path class="st0" d="M7.66,92.44C7.66,92.44,7.66,92.44,7.66,92.44c0-0.02,0-0.05,0-0.07C7.66,92.39,7.66,92.43,7.66,92.44z"/>
		<g>
			<path class="st3" d="M248.04,66.59c-0.06-0.13-0.1-0.19-0.1-0.19S247.98,66.47,248.04,66.59z"/>
			<path class="st3" d="M225.66,651.13c-11.65-23.77-22.68-48.5-31.09-71.73c-12.27-33.89-14.71-75.51-10.07-119.32c0,0,0,0,0,0
				c3.21-30.32,9.81-61.69,18.9-92.26c11.49-38.65,26.95-76.03,44.54-108.42c1.06-1.95,2.06-3.9,3.03-5.84
				c19.52-39.12,22.12-78.38,18.55-110.78c0,0,0,0,0,0c-1.16-10.57-2.98-20.41-5.08-29.27c-0.28-1.16-0.56-2.31-0.84-3.44
				c-6.32-25.11-14.61-41.62-15.56-43.47c0.78,1.58,5.86,13.14,0.79,38.23c-0.19,0.96-0.4,1.94-0.63,2.93
				c-1.48,6.57-3.63,14.01-6.69,22.37c0,0,0,0,0,0c-6.49,17.72-17.07,39.59-33.92,66.12c-15.75,24.82-36.99,53.72-65.51,87.15
				c-5.37,6.29-10.48,12.84-15.37,19.61c-14.1,19.57-26.23,41.05-36.67,63.71c0,0,0,0,0,0c-28.4,61.68-44.21,132.14-52.82,196.95
				c0,0,0,0,0,0c-0.97,7.28-1.84,14.48-2.64,21.59c0,0,0,0,0,0.01c-8.07,72.4-7.53,135.28-6.44,167.07c0,0,0,0,0,0
				c0.24,6.95,0.5,12.41,0.71,16.16c0.02,0.41,0.04,0.8,0.07,1.17c0,0,0,0,0,0c0.18,3.09,0.3,4.73,0.3,4.73H274v-3.05V740.7
				C260.61,717.78,242.49,685.46,225.66,651.13C225.66,651.13,225.66,651.13,225.66,651.13z"/>
			<path class="st3" d="M50.82,437.92c9.69-25.04,16.55-49.32,14.68-75.78c-0.55-7.8-1.62-14.71-3.22-21.5
				c-0.68-2.9-1.45-5.78-2.33-8.69c-4.82-15.89-11.22-29.59-18.04-44.28c-14.97-29.91-25.33-59.18-30.93-92.48
				c-0.23-1.38-0.45-2.75-0.66-4.14c-0.29-1.96-0.56-3.92-0.81-5.9c-0.37-2.93-0.69-5.87-0.97-8.82c-0.3-3.13-0.55-6.27-0.75-9.42
				c-0.2-2.97-0.36-5.94-0.48-8.93c-0.09-2.13-0.16-4.25-0.23-6.39c-0.13-5.12-0.19-10.26-0.19-15.4c0-1.86,0.01-3.71,0.02-5.57
				c0.02-1.86,0.04-3.72,0.06-5.58v-0.1c0.03-1.73,0.05-3.47,0.08-5.2c0.01-0.49,0.02-0.97,0.03-1.46c0.1-5.2,0.23-10.4,0.35-15.58
				c0.05-1.95,0.1-3.89,0.15-5.84c0.04-1.64,0.08-3.28,0.11-4.92c0-0.02,0-0.03,0-0.05c-0.01,0.29-0.02,0.47-0.03,0.55c0,0,0,0,0,0
				c0-0.01,0-0.05,0-0.07c0-0.01,0-0.03,0-0.04c0-0.05,0-0.1,0-0.18c0-0.09,0-0.18,0.01-0.3c0.01-0.21,0.02-0.47,0.02-0.76
				c0.01-0.54,0.03-1.16,0.04-1.77c0-0.03,0-0.06,0-0.08c0-0.01,0-0.02,0-0.03c0-0.07,0.01-0.14,0.01-0.21
				c0-0.16,0.01-0.31,0.01-0.46c0-0.08,0.01-0.16,0.01-0.23c0-0.14,0.01-0.28,0.01-0.41c0.01-0.12,0.01-0.24,0.01-0.35
				c0.01-0.14,0.01-0.26,0.02-0.35c0,0,0,0,0,0c0-0.1,0.01-0.17,0.01-0.21c0,0.17-0.02,0.88-0.05,2.43
				c-0.01,0.32-0.02,0.63-0.02,0.94c0.01-0.2,0.02-0.42,0.03-0.66c0-0.13,0.01-0.26,0.01-0.4c0.01-0.27,0.02-0.57,0.03-0.89
				c0.01-0.16,0.01-0.33,0.02-0.5c0-0.23,0.01-0.48,0.02-0.74c0-0.11,0.01-0.23,0.01-0.35c0.01-0.39,0.02-0.8,0.04-1.24
				c0.02-0.66,0.04-1.37,0.06-2.14c0.03-0.83,0.06-1.69,0.1-2.56C9.02,58.8,13.84,24.79,18.37,1.54c11.18-2.37,17.26-1.51,29.68-1.8
				c12.43-0.3,30.96,0.19,44.55,0.12c0.17-0.12,0.21-0.24,0.22-0.36H20.91H0.5v0.97v76.58v255.41v192.78v43.68v167.8v31.78h7.76
				c-0.34-3.63-0.46-8.51-0.58-11.67c-0.2-5.51-0.38-10.94-0.52-16.34c-0.01-0.41-0.02-0.81-0.03-1.21
				c-0.4-14.93-0.57-29.59-0.37-44.8c0.01-0.28,0.69,2.79-0.3-2.22c-0.09-0.47-0.15-0.69-0.18-0.76c0-0.01-0.01-0.01-0.01-0.01
				c-0.01,0.04-0.01,0.17,0.01,0.36c0.01,0.08,0.02,0.18,0.03,0.29c0.01,0.06,0.01,0.11,0.02,0.17c0.01,0.05,0.02,0.11,0.02,0.17
				v0.04c0-0.02,0-0.04-0.01-0.06c-0.01-0.07-0.02-0.14-0.03-0.21c-0.02-0.18-0.05-0.38-0.08-0.61c-0.01-0.11-0.03-0.23-0.05-0.35
				c-0.02-0.13-0.03-0.25-0.05-0.39c-0.03-0.22-0.07-0.45-0.1-0.7c-0.07-0.49-0.15-1.05-0.24-1.68c-0.02-0.16-0.05-0.32-0.07-0.49
				c-0.02-0.14-0.04-0.28-0.06-0.42c-0.03-0.21-0.06-0.42-0.09-0.64c-1.94-13.72,1.44-49.05,4.97-71.02
				c1.96-12.13,3.34-26.08,5.03-40.18c1.13-9.44,2.4-18.95,4.06-28.02c0.42-2.3,0.86-4.59,1.34-6.83
				c6.91-32.32,15.12-66.65,27.86-97.77C49.35,441.86,50.33,439.19,50.82,437.92z M6.5,693.59v0.02v0.01v0.01
				c0-0.02-0.01-0.04-0.01-0.06c0,0,0,0.01,0,0.01C6.5,693.58,6.5,693.58,6.5,693.59C6.5,693.58,6.5,693.59,6.5,693.59z
				 M6.49,693.53C6.49,693.53,6.49,693.53,6.49,693.53c0-0.01,0-0.01,0-0.01c0-0.01-0.01-0.01-0.01-0.02c0-0.05-0.01-0.11-0.02-0.17
				c0,0,0-0.01,0-0.01c0.01,0.06,0.01,0.09,0.02,0.13C6.48,693.48,6.49,693.51,6.49,693.53z"/>
			<path class="st3" d="M272.39,513.72c-6.57,24.85-6.82,51.65-3.03,78.62c1.18,8.39,2.75,16.8,4.64,25.16V507.98
				C273.44,509.86,272.9,511.76,272.39,513.72z"/>
		</g>
		<g>
			
				<pattern  id="SVGID_1_" xlink:href="#Nueva_muestra_de_motivo_3" patternTransform="matrix(0.9593 -0.1571 0.1526 0.9876 749.6831 -1255.865)">
			</pattern>
			<path class="st4" d="M92.78-1.04c-0.04,0.19,0.04,0.37,0.04,0.54H20.91L0.5,0.47v76.58c0.41,0.23,0.82,0.47,1.23,0.7
				c2.07,1.14,4.18,2.17,6.33,3.13c0.22,0.09,0.43,0.2,0.64,0.29l0.01,0.01c4.77,2.09,9.76,3.75,14.96,4.99
				c11.05,1.62,22.1,3.27,33.14,4.95c2.44,0.37,4.9,0.75,7.34,1.12c0.01,0,0.01,0,0.02,0c1.81,0.27,3.63,0.55,5.43,0.83
				c4.49,0.69,8.99,1.39,13.49,2.09c0.44,0.07,0.88,0.14,1.33,0.21c7,1.1,13.98,2.21,20.97,3.34c17.19,2.77,34.37,5.63,51.51,8.72
				c12.59,2.27,25.19,4.6,37.68,7.39c1.4,0.31,2.78,0.63,4.18,0.95c10.63,2.47,20.94,5.95,31.21,9.7c0.01,0,0.01,0,0.02,0.01
				c3.85,1.51,7.69,3.06,11.52,4.65c0,0,0,0,0,0c8.34,3.45,16.62,7.08,24.74,11.03c1.09,0.52,2.18,1.07,3.26,1.61c0,0,0,0,0.01,0
				c1.5,0.75,3,1.51,4.48,2.28V-0.93C213.59-0.98,153.19-1.53,92.78-1.04z"/>
			
				<pattern  id="SVGID_2_" xlink:href="#Nueva_muestra_de_motivo_3" patternTransform="matrix(0.9593 -0.1571 0.1526 0.9876 749.6831 -1255.865)">
			</pattern>
			<path class="st5" d="M207.76,469.53c-6.1-2.26-12.16-4.61-18.18-7.07c-1.7-0.78-3.39-1.58-5.08-2.38c0,0,0,0,0,0
				c-14.58-6.9-28.94-14.68-42.17-23.94c-1.98-1.81-3.91-3.68-5.8-5.59c-4.53-4.59-8.82-9.44-12.9-14.47
				c-5.32-7.6-10.38-15.38-15.45-23.15c-2.8-4.31-5.61-8.61-8.59-12.79c-3.15-4.41-6.27-8.98-9.55-13.42c0,0,0,0,0,0
				c-3.26-4.4-6.68-8.68-10.46-12.56c-5.11-5.66-10.88-10.15-17.3-13.52c-2.86-1.5-5.84-2.8-8.96-3.85
				c-5.48-2.97-11.21-5.03-17.18-6.17c-4.6-0.9-9.36-1.26-14.25-1.07c-7.47-0.29-14.59,0.69-21.39,2.91v192.78
				c4.44,5.76,9.01,11.41,13.82,16.83c1.73,1.95,3.5,3.84,5.31,5.68c5.57,5.68,11.48,10.9,17.59,15.92c0,0,0,0,0,0
				c4.98,4.1,10.09,8.06,15.26,12.04c0.44,0.34,0.88,0.67,1.31,1c0.01,0,0.01,0.01,0.02,0.01c17.88,13.53,38.23,24.06,58.56,33.13
				c0,0.01,0.01,0.01,0.01,0.01c1.01,0.45,2.01,0.9,3.02,1.34c24.97,10.98,50.02,21.06,75.79,29.6h0.01
				c4.22,1.4,8.45,2.76,12.71,4.07c7.22,2.22,14.46,4.32,21.75,6.26c0,0,0,0,0,0c6.7,1.78,13.42,3.42,20.19,4.88
				c4.68,1.01,9.38,1.9,14.1,2.69c4.67,0.8,9.36,1.51,14.05,2.17V617.5V507.98v-17.49c-12.75-3.2-25.39-6.94-37.89-11.04
				C226.58,476.33,217.13,472.99,207.76,469.53z"/>
			
				<pattern  id="SVGID_3_" xlink:href="#Nueva_muestra_de_motivo_3" patternTransform="matrix(0.9593 -0.1571 0.1526 0.9876 749.6831 -1255.865)">
			</pattern>
			<path class="st6" d="M250.97,253.55c-4.91-3.23-9.75-6.57-14.47-10.08c-5.7-4.9-11.12-10.16-16.05-15.88
				c-0.05-0.06-0.1-0.12-0.15-0.18c-1.9-2.93-3.65-5.96-5.25-9.08c-0.93-2.96-1.73-5.95-2.37-8.99c-1.09-4.72-2.8-9.08-5.08-13.09
				c-1.59-2.78-3.45-5.4-5.61-7.83c-4.21-6.7-9.8-11.98-16.76-15.84c-6.86-4.49-14.26-6.93-22.21-7.3
				c-7.94-1.83-15.88-1.46-23.82,1.1c-4.76,2.07-9.51,4.13-14.27,6.2c-8.98,5.47-16.12,12.82-21.43,22.06
				c-2.01,4.9-4.01,9.79-6.02,14.69c-2.85,10.9-2.85,21.8,0,32.7c2.47,11.7,7.35,22.87,12.15,33.68c2.67,6.02,5.96,11.73,9.73,17.09
				c2.4,3.42,4.85,6.84,7.37,10.2c4.48,5.99,9.21,11.81,14.37,17.15c4.66,4.83,9.65,9.32,14.83,13.54
				c9.26,7.55,18.59,15.03,28.41,21.79c5.81,4,11.75,7.81,17.75,11.51c0.44,0.27,0.89,0.54,1.33,0.81
				c11.55,7.09,23.32,13.81,34.94,20.77c10.58,6.33,21.09,12.87,31.05,20.2c1.57,1.36,3.1,2.77,4.6,4.2V267.82
				c-0.86-0.51-1.72-1.01-2.57-1.52C264.54,262.18,257.69,257.97,250.97,253.55z"/>
			
				<pattern  id="SVGID_4_" xlink:href="#Nueva_muestra_de_motivo_3" patternTransform="matrix(0.9593 -0.1571 0.1526 0.9876 749.6831 -1255.865)">
			</pattern>
			<path class="st7" d="M225.89,717.54v-0.01c-2.97-6.89-6.9-13.2-11.8-18.94c-1.03-1.22-2.12-2.42-3.25-3.59
				c-3.08-3.69-6.49-7.07-10.14-10.17c-8.28-7.02-16.82-13.99-25.87-20.02c-8.37-5.59-17.21-10.4-25.96-15.34
				c-12.16-6.87-24.33-13.74-36.49-20.61c0,0-0.01,0-0.01-0.01c-7.52-4.24-15.03-8.49-22.55-12.73c-12-6.79-23.96-13.68-36.01-20.4
				c-0.01,0-0.01-0.01-0.02-0.01c-6.36-3.55-12.77-7.04-19.21-10.44c0,0,0,0,0,0c-0.65-0.35-1.3-0.71-1.95-1.05
				c-5.64-2.96-11.33-5.75-17.06-8.45c-5-2.34-10.02-4.61-15.07-6.85v167.8c0.34,0.2,0.68,0.39,1.02,0.58
				c1.88,1.06,3.76,2.12,5.64,3.19c6.99,3.95,13.99,7.9,20.99,11.85c0,0,0,0,0,0c8.29,4.69,16.59,9.37,24.89,14.06
				c0.27,0.15,0.54,0.31,0.81,0.46l175.89,0.49c0.09-0.31,0.17-0.63,0.24-0.95c1.45-5.92,2.18-12.04,2.2-18.36
				c-0.86-6.65-1.73-13.29-2.6-19.94C228.59,724.44,227.35,720.92,225.89,717.54z"/>
		</g>
	</g>
</g>
</svg>
