<?xml version="1.0" encoding="utf-8"?>
<!-- Generator: Adobe Illustrator 24.2.1, SVG Export Plug-In . SVG Version: 6.00 Build 0)  -->
<svg version="1.1" id="Capa_1" xmlns="http://www.w3.org/2000/svg" xmlns:xlink="http://www.w3.org/1999/xlink" x="0px" y="0px"
	 viewBox="0 0 1000 1000" style="enable-background:new 0 0 1000 1000;" xml:space="preserve">
<style type="text/css">
	.st0{fill:#A0616A;}
	.st1{fill:#3F3D56;}
	.st2{fill:#FFFFFF;}
	.st3{fill:#FF9105;}
	.st4{fill:#E6E6E6;}
	.st5{fill:#2F2E41;}
	.st6{fill:#FFB6B6;}
</style>
<g>
	<polygon class="st0" points="233.37,173.18 226,211.91 262.78,222.28 258.21,180.93 	"/>
	<path class="st1" d="M16.34,974.91c0,1.22,0.98,2.19,2.19,2.19h963.27c1.22,0,2.19-0.98,2.19-2.19c0-1.22-0.98-2.19-2.19-2.19
		H18.54C17.32,972.71,16.34,973.69,16.34,974.91z"/>
	<g>
		<path class="st2" d="M672.99,449.03H293.67c-43.01,0-77.89,34.87-77.89,77.89v367.82c0,43.01,34.87,77.89,77.89,77.89h379.32
			c43.01,0,77.89-34.87,77.89-77.89V526.91C750.87,483.9,716,449.03,672.99,449.03L672.99,449.03z"/>
		<path class="st1" d="M672.99,974.46H293.67c-43.96,0-79.73-35.77-79.73-79.73V526.91c0-43.96,35.77-79.73,79.73-79.73h379.32
			c43.96,0,79.73,35.77,79.73,79.73v367.82C752.72,938.69,716.95,974.46,672.99,974.46L672.99,974.46z M293.67,450.87
			c-41.93,0-76.04,34.11-76.04,76.04v367.82c0,41.93,34.11,76.04,76.04,76.04h379.32c41.93,0,76.04-34.11,76.04-76.04V526.91
			c0-41.93-34.11-76.04-76.04-76.04L293.67,450.87L293.67,450.87z"/>
		<path class="st3" d="M700.47,608.49H548c-6.47,0-11.73-5.26-11.73-11.73s5.26-11.73,11.73-11.73h152.47
			c6.47,0,11.73,5.26,11.73,11.73S706.93,608.49,700.47,608.49L700.47,608.49z"/>
		<path class="st3" d="M557.43,700.72h-148.2c-3.74,0-6.78-3.04-6.78-6.78s3.04-6.78,6.78-6.78h148.2c3.74,0,6.78,3.04,6.78,6.78
			S561.17,700.72,557.43,700.72L557.43,700.72z"/>
		<path class="st3" d="M263.35,474.22h84.61c0.32,0,0.57,0.26,0.57,0.57v9.85c0,0.32-0.26,0.57-0.57,0.57h-84.61
			c-0.32,0-0.57-0.26-0.57-0.57v-9.85C262.78,474.47,263.03,474.22,263.35,474.22z"/>
		<circle class="st1" cx="632.97" cy="476.42" r="8.8"/>
		<circle class="st1" cx="657.15" cy="476.42" r="8.8"/>
		<circle class="st1" cx="681.34" cy="476.42" r="8.8"/>
		<path class="st1" d="M292.75,736.99c0,1.22,0.98,2.19,2.19,2.19h376.77c1.22,0,2.19-0.98,2.19-2.19c0-1.22-0.98-2.19-2.19-2.19
			H294.94C293.73,734.8,292.75,735.77,292.75,736.99z"/>
	</g>
	<g>
		<path id="uuid-d0b76542-8f08-4363-846d-0cc3b89caf22-292" class="st0" d="M407.66,195.63c8.02-6.63,17.94-7.86,22.16-2.76
			c4.22,5.11,1.13,14.62-6.89,21.24c-3.17,2.69-6.94,4.59-10.99,5.52L377.6,247.3l-12.63-16.39l35.2-25.52
			C401.84,201.58,404.42,198.24,407.66,195.63L407.66,195.63z"/>
		<path class="st4" d="M209.17,258.03c-0.02-1.22-0.01-11.89,7.89-18.63c9.07-7.75,21.87-4.61,26.36-3.51
			c10.37,2.54,11.22,6.99,20.96,11.56c18.22,8.55-4.61,4.18,6.23,1.43c3.75-0.95,57.75-4.69,71.19-12.97
			c26.14-16.09,43.95-25.85,43.95-25.85l11.64,23.29c0,0-16.84,23.41-40.53,40.75c-24.31,17.79-36.46,26.69-54.93,30.12
			c-1.59,0.3-40.71,6.97-72.21-16.56C222.54,282.3,209.38,272.46,209.17,258.03L209.17,258.03z"/>
		<circle class="st0" cx="245.29" cy="158.24" r="40.56"/>
		<g>
			<polygon class="st0" points="562.95,430.75 521.18,387.99 499.62,410.48 530.74,451.48 561.61,455.01 			"/>
			<path class="st5" d="M324.43,350.57c2.44,0.2,10.21,1.76,17.63-2.32c5.06-2.79,7.66-6.93,8.54-8.25
				c10.88-16.35,52.66-41.84,90.15-43.41c8.49-0.36,14.08,0.63,19.16,3.28c7.2,3.75,10.08,9.13,19.22,21.73
				c5,6.89,10.53,13.38,15.59,20.23c29.62,40.09,40.85,43.24,39.71,56.09c-1.27,14.26-16.65,27.79-26.87,26.23
				c-4.19-0.64-5.81-3.55-11.4-9.44c-16.4-17.28-23.18-14.09-34.86-27.32c-13.63-15.45-11.85-28.26-18.96-28.76
				c-6.59-0.46-9.4,10.47-23.48,24.99c-6.44,6.64-11.03,9.69-25.01,19.39c-54.43,37.76-55.3,40.41-66.28,43.42
				c-4.81,1.32-38.91,10.67-51.06-4.21C257.49,418.92,302.41,348.74,324.43,350.57L324.43,350.57z"/>
			<path class="st5" d="M550.18,440.41c3.07-1.38,6.66-2.99,7.82-6.7c0.78-2.51,0.33-5.6-1.28-7.74c-1.87-2.47-4.63-2.79-4.51-3.23
				c0.17-0.66,6.7-0.4,13.86,2.13c1.35,0.48,7.48,2.72,15.27,8.8c6.24,4.87,5.4,5.85,9.32,8.66c12.02,8.63,23.29,1.83,29.79,9.92
				c2.51,3.12,3.58,7.56,2.52,11.14c-2.12,7.2-12.44,9.68-18.07,10.96c-13.58,3.08-23.85,0.57-34.58-1.24
				c-36.49-6.15-57-0.55-59.74-9c-0.52-1.6,0.32-1.46,3.14-13.21c2.78-11.59,2.69-14.77,5.05-15.7c3.56-1.4,5.95,4.96,14.92,7.13
				C541.63,444.25,548.19,441.3,550.18,440.41L550.18,440.41z"/>
		</g>
		<g>
			<polygon class="st0" points="488.69,570.63 478.13,511.79 447.66,518.29 450.39,569.7 473.95,589.95 			"/>
			<path class="st5" d="M336.35,370.34c1.91,1.54,7.46,7.19,15.89,7.98c5.76,0.54,10.23-1.43,11.7-2.03
				c18.19-7.41,67.07-5.05,98.97,14.71c7.22,4.47,11.3,8.43,14.01,13.47c3.85,7.15,3.21,13.22,3.7,28.77
				c0.27,8.51,1.2,16.99,1.54,25.5c2,49.81,9.53,58.72,1.36,68.71c-9.06,11.08-29.38,13.64-36.96,6.61
				c-3.1-2.88-2.81-6.2-4.13-14.21c-3.87-23.5-11.27-24.67-13.5-42.18c-2.6-20.44,6.07-30.04,0.46-34.44
				c-5.2-4.08-13.65,3.39-33.46,7.49c-9.06,1.88-14.57,1.82-31.58,2c-66.24,0.68-68.45,2.39-79.23-1.29
				c-4.72-1.61-38.19-13.02-39.89-32.16C242.58,389.32,319.16,356.47,336.35,370.34L336.35,370.34z"/>
			<path class="st5" d="M472.69,571.45c3.32,0.58,7.19,1.27,10.23-1.15c2.06-1.64,3.42-4.45,3.29-7.13
				c-0.16-3.09-2.26-4.91-1.92-5.21c0.51-0.45,5.77,3.43,10.28,9.55c0.85,1.15,4.66,6.45,7.69,15.86c2.43,7.54,1.19,7.88,2.85,12.4
				c5.1,13.89,18.25,14.59,19.08,24.94c0.32,3.99-1.28,8.26-4.17,10.64c-5.8,4.77-15.72,1.02-21.11-1.08
				c-12.96-5.08-20.06-12.93-27.92-20.45c-26.74-25.58-46.85-32.46-44.38-41c0.47-1.62,1.09-1.03,10.01-9.17
				c8.81-8.03,10.52-10.71,13-10.15c3.73,0.84,2.14,7.44,8.34,14.28C463.47,569.83,470.55,571.08,472.69,571.45L472.69,571.45z"/>
		</g>
		<path class="st5" d="M250.82,166c1.58-5.65-0.4-7.71,1.62-10.24c0,0,0.81-1.02,8.09-3.77l0,0c-2.15-12.45-0.54-14.56-0.54-14.56
			c1.85-2.43,5.56-3.01,8.09-2.7c5.34,0.67,6.29,5.5,9.7,5.39c4.72-0.15,10.38-9.6,8.63-17.79c-1.43-6.68-7.61-11.64-9.16-10.78
			c-1.54,0.85-7.07-2.91-9.16-2.16c-1.43,0.52-8.17-0.17-9.7,0.54c-1.67,0.77-6.45,5.6-6.91,4.99c-3.18-4.22-3.11-5.7-4.95-6.61
			c-3.27-1.61-6.82,1.37-12.94,4.31c-12.6,6.06-16.28,2.44-22.1,7.55c-2.94,2.58-4.52,7.5-7.55,17.25
			c-4.24,13.63-6.36,20.45-4.31,26.95c2.09,6.64,5.16,5.19,9.7,14.56c5.05,10.42,3.31,16.48,8.09,18.87
			c3.69,1.84,9.62,0.67,11.86-2.7c3.83-5.76-6.08-13.56-2.7-22.64c2.07-5.58,8.47-9.8,12.4-8.63c4.44,1.33,4.76,9.29,7.55,9.16
			C248.89,172.9,250.55,166.98,250.82,166C250.82,166,250.82,166,250.82,166z"/>
		<path class="st4" d="M220.09,204.81c8.3-9.31,42.11,0.33,45.28,15.09c1.31,6.07-3.51,8.64-2.16,15.63
			c1.98,10.23,13.22,9.53,21.56,19.95c11.84,14.78-0.36,29.24,12.94,53.91c2.84,5.27,5.24,9.72,10.24,14.02
			c11.49,9.87,22.18,6.48,28.03,15.63c4.37,6.84,2.58,15.28,2.16,17.25c-1.73,8.1-6.41,10.07-9.7,16.71
			c-5.49,11.04,0.73,19.15,1.08,32.34c0.44,16.51-8.33,39.39-25.88,46.9c-19.71,8.44-43.48-5.54-54.99-19.41
			c-6.86-8.28-8.86-15.91-11.86-25.34c-13.42-42.12-21-38.31-31.27-71.7c-11.73-38.17-14.04-82.88,0-97.03
			c1.86-1.88,6.98-6.21,10.24-14.02C220.17,214.25,216.38,208.98,220.09,204.81L220.09,204.81z"/>
		<g>
			<path id="uuid-35da8825-ceb1-46f8-a8e3-884fcc945dd4-293" class="st0" d="M342.74,421.45c6.44,8.18,7.43,18.12,2.23,22.22
				c-5.2,4.09-14.64,0.79-21.07-7.4c-2.62-3.23-4.42-7.04-5.26-11.12l-26.83-34.99l13.86-10.57l27.5,34.13
				C336.93,415.5,340.21,418.15,342.74,421.45L342.74,421.45z"/>
			<path class="st4" d="M244.48,240.28c1.19-0.27,11.64-2.43,19.85,3.92c9.43,7.3,8.98,20.47,8.82,25.09
				c-0.37,10.67-4.55,12.41-7.04,22.88c-4.65,19.58,4.21,37.79,9.11,47.84c1.7,3.48,7.14,14.13,17.98,25.6
				c21.08,22.31,39.9,34.05,39.9,34.05l-20.21,17.96c0,0-32.19-9.81-54.01-29.47c-22.38-20.17-56.79-91.51-63.92-108.89
				c-0.61-1.5,8.09,22.84,24.7-12.81C223.45,258.32,230.4,243.42,244.48,240.28C244.48,240.28,244.48,240.28,244.48,240.28z"/>
		</g>
	</g>
	<g>
		<path id="uuid-ba1531a6-e7ab-4297-b996-1d676f43fe3f-294" class="st6" d="M521.59,787.23c-12.85,1.97-22.24,10.19-20.99,18.37
			s12.68,13.2,25.53,11.23c5.14-0.72,10.04-2.66,14.28-5.65l54.32-9.03l-3.63-21.47l-54.2,7.67
			C531.96,786.76,526.71,786.37,521.59,787.23L521.59,787.23z"/>
		<polygon class="st4" points="755.67,720.3 734.61,765 628.72,800.64 540.85,805.33 538.65,784.23 633.88,764.31 731.6,718.14 		
			"/>
		<polygon class="st6" points="560.37,890.01 541.46,937.85 516.99,921.16 531.45,871.1 		"/>
		<polygon class="st6" points="481.39,872.22 431.33,920.05 451.36,941.19 502.53,901.14 		"/>
		<polygon class="st6" points="765.06,716.48 764.5,712.59 751.71,687.56 709.44,698.68 717.22,733.16 		"/>
		<path class="st5" d="M747.26,883.34l1.3,16.71c0,0,5.37,70.06-38.01,75.62c-43.38,5.56-62.29,11.12-87.88-32.26l-40.05-71.19
			l-23.39,27.83l-31.12-24.49c0,0,22.25-86.77,40.05-90.11c2.22-0.42,4.45-0.63,6.64-0.67c14.73-0.31,28.62,6.9,37.44,18.71
			l50.47,67.62l18.35-8.34L747.26,883.34L747.26,883.34z"/>
		<path class="st5" d="M506.98,935.62l10.01-18.91l28.92,20.02c0,0,6.67,24.47-3.34,27.81c-10.01,3.34-37.82-1.11-37.82-1.11
			s-51.17,11.12-52.28,1.11s23.36-12.24,23.36-12.24L506.98,935.62L506.98,935.62z"/>
		<path class="st5" d="M615.99,922.27l-77.31-48.71l-39.49,35.36l-26.7-31.15c0,0,48.95-72.31,63.41-75.64
			c14.46-3.34,37.82-5.56,37.82-5.56l71.19,65.63L615.99,922.27L615.99,922.27z"/>
		<path class="st5" d="M430.22,915.6l25.59,27.81l-3.37,2.89c0,0-6.64,28.91-22.21,19.13c-15.57-9.78-16.69-12-16.69-12
			s-44.5,10.01-48.95-7.79c-4.45-17.8,7.79-14.46,7.79-14.46l11.11,6.67L430.22,915.6L430.22,915.6z"/>
		<circle class="st6" cx="722.78" cy="675.32" r="35.6"/>
		<path class="st4" d="M714.44,725.93l51.17-15.57c0,0,20.02,46.72,16.69,67.86c-3.34,21.14-33.74,121.83-33.74,121.83l-67.49-37.29
			c0,0-1.11-22.25-4.45-32.26c-3.34-10.01-13.91-40.6,9.46-66.19C709.44,738.73,714.44,725.93,714.44,725.93L714.44,725.93z"/>
		<g>
			<path id="uuid-375aaccb-22f9-42b6-a352-baabb12db8d2-295" class="st6" d="M601.82,959.52c-8.33,9.98-9.93,22.36-3.58,27.66
				c6.35,5.3,18.25,1.51,26.58-8.48c3.38-3.94,5.77-8.64,6.97-13.69l34.75-42.72l-16.93-13.7l-35.56,41.62
				C609.28,952.29,605.09,955.49,601.82,959.52L601.82,959.52z"/>
			<polygon class="st4" points="753.69,748.38 765.79,796.29 706.59,891.04 646.16,951.78 626.57,935.53 687.52,859.7 
				733.71,761.99 			"/>
		</g>
		<path class="st5" d="M689.97,669.2c9.13-0.02,9.65,0.04,11.12,0c11.32-0.3,14.28-4.75,20.02-4.45c10.24,0.54-3.28,51.9-8.9,75.64
			c-5.51,23.29,13.12,44.15,14.46,45.61c18.92,20.57,52.14,24.33,57.85,15.57c4.61-7.09-11.74-17.87-7.79-33.37
			c3.86-15.15,21.71-13.54,26.7-27.81c5.22-14.95-12.33-22.49-23.36-58.96c-6.33-20.95-5.21-24.85-11.12-37.82
			c-15.8-34.68-93.24-19.91-84.54,12.24C686.09,662.07,681.61,669.22,689.97,669.2L689.97,669.2z"/>
	</g>
	<g>
		<path class="st2" d="M803.64,246.62H429.52c-10.58,0-19.19-8.61-19.19-19.19V28.7c0-10.58,8.61-19.19,19.19-19.19h374.12
			c10.58,0,19.19,8.61,19.19,19.19v198.73C822.83,238.01,814.22,246.62,803.64,246.62z"/>
		<path class="st1" d="M803.64,246.62H429.52c-10.58,0-19.19-8.61-19.19-19.19V28.7c0-10.58,8.61-19.19,19.19-19.19h374.12
			c10.58,0,19.19,8.61,19.19,19.19v198.73C822.83,238.01,814.22,246.62,803.64,246.62z M429.52,12.72
			c-8.81,0-15.98,7.17-15.98,15.98v198.73c0,8.81,7.17,15.98,15.98,15.98h374.12c8.81,0,15.98-7.17,15.98-15.98V28.7
			c0-8.81-7.17-15.98-15.98-15.98C803.64,12.72,429.52,12.72,429.52,12.72z"/>
		<circle class="st1" cx="774.76" cy="28.74" r="4.81"/>
		<circle class="st1" cx="787.58" cy="28.74" r="4.81"/>
		<circle class="st1" cx="800.4" cy="28.74" r="4.81"/>
		<path class="st4" d="M437.57,106.44c-1.33,0-2.4,1.08-2.4,2.4c0,0.65,0.25,1.24,0.7,1.68c0.46,0.47,1.06,0.72,1.7,0.72h359.63
			c1.33,0,2.4-1.08,2.4-2.4c0-0.65-0.25-1.24-0.7-1.68c-0.46-0.47-1.06-0.72-1.7-0.72H437.57z"/>
		<path class="st3" d="M752.33,105.64v6.41H437.57c-0.88,0-1.68-0.35-2.26-0.95c-0.59-0.58-0.95-1.38-0.95-2.26
			c0-1.76,1.44-3.2,3.2-3.2H752.33z"/>
		<path class="st4" d="M793.19,93.62h-32.04c-3.53,0-6.41-2.87-6.41-6.41s2.87-6.41,6.41-6.41h32.04c3.53,0,6.41,2.87,6.41,6.41
			S796.72,93.62,793.19,93.62z"/>
		<path class="st4" d="M583.32,59.98H439.97c-3.53,0-6.41-2.87-6.41-6.41c0-3.53,2.87-6.41,6.41-6.41h143.35
			c3.53,0,6.41,2.87,6.41,6.41C589.72,57.1,586.85,59.98,583.32,59.98z"/>
		<path class="st4" d="M437.57,178.53c-1.33,0-2.4,1.08-2.4,2.4c0,0.65,0.25,1.24,0.7,1.68c0.46,0.47,1.06,0.72,1.7,0.72h359.63
			c1.33,0,2.4-1.08,2.4-2.4c0-0.65-0.25-1.24-0.7-1.68c-0.46-0.47-1.06-0.72-1.7-0.72H437.57z"/>
		<path class="st3" d="M628.97,177.73v6.41H437.57c-0.88,0-1.68-0.35-2.26-0.95c-0.59-0.58-0.95-1.38-0.95-2.26
			c0-1.76,1.44-3.2,3.2-3.2H628.97z"/>
		<path class="st4" d="M793.19,165.71h-32.04c-3.53,0-6.41-2.87-6.41-6.41c0-3.53,2.87-6.41,6.41-6.41h32.04
			c3.53,0,6.41,2.87,6.41,6.41C799.6,162.84,796.72,165.71,793.19,165.71z"/>
	</g>
</g>
</svg>
