<?xml version="1.0" encoding="utf-8"?>
<!-- Generator: Adobe Illustrator 24.2.1, SVG Export Plug-In . SVG Version: 6.00 Build 0)  -->
<svg version="1.1" xmlns="http://www.w3.org/2000/svg" xmlns:xlink="http://www.w3.org/1999/xlink" x="0px" y="0px"
	 viewBox="0 0 1000 1000" style="enable-background:new 0 0 1000 1000;" xml:space="preserve">
<style type="text/css">
	.st0{display:none;}
	.st1{display:inline;}
	.st2{fill:#FFD4E9;}
</style>
<g id="Capa_1" class="st0">
	<g class="st1">
		<rect width="1000" height="1000"/>
	</g>
</g>
<g id="Capa_2">
	<g>
		<path class="st2" d="M2.93,531c0-20.7,0-41.4,0-62.1c3.17-22,5.55-44.15,9.63-65.98C49.54,205.05,214.75,43.41,413.18,10.77
			c18.43-3.03,37.02-5.12,55.53-7.64c20.7,0,41.4,0,62.1,0c2.82,0.56,5.61,1.25,8.45,1.67c22.99,3.39,46.28,5.37,68.94,10.3
			c267.2,58.1,438.31,329.48,376.07,595.8c-74.61,319.25-427.33,480.53-717.14,327.8c-5.86-3.09-10.99-3.67-17.33-1.87
			c-67.1,18.96-134.27,37.66-201.42,56.43c-24.43,6.83-32.79,3.55-45.45-17.81c0-5.18,0-10.35,0-15.53
			c0.89-1.99,2.04-3.91,2.62-5.98c19.34-69.01,38.72-138.02,57.67-207.14c1.09-3.98-0.2-9.49-2.21-13.33
			C36.43,686.44,19,637.01,10.43,584.6C7.51,566.8,5.41,548.87,2.93,531z M74.11,925.28c3.43-0.8,5.24-1.15,7.01-1.64
			c54.74-15.24,109.58-30.1,164.13-46c14.83-4.32,27.08-2.67,40.53,4.8c94.39,52.43,195.08,68.82,300.77,47.21
			c242.96-49.68,395.18-286.69,340.4-528.31C865.41,129.88,563.69-16.38,312.12,103.3C81.77,212.9-7.46,494.45,118.24,715.95
			c6.95,12.24,8.1,23.6,4.27,36.93C106.21,809.65,90.53,866.6,74.11,925.28z"/>
		<path class="st2" d="M592.84,767.96c-61.88-2.39-117.46-22.85-168.61-55.75C342.08,659.39,281.38,588.6,248.86,495.6
			c-16.86-48.22-22.02-97.51-7.85-147.63c12.41-43.88,41.11-76.13,76.81-101.74c34.2-24.53,81.53-19.93,113.11,8.21
			c12.53,11.17,24.49,23.12,35.62,35.68c31.77,35.9,31.36,89.02-0.46,124.87c-5.36,6.04-11.38,11.49-16.8,17.48
			c-7.35,8.14-7.79,17.43-0.14,25.19c30.66,31.08,61.52,61.96,92.6,92.62c8.54,8.42,17.45,6.97,27.45-1.54
			c12.22-10.4,23.86-22.6,37.97-29.42c36.65-17.72,71.77-12.07,102.83,14.23c11.56,9.79,22.06,20.92,32.41,32.03
			c35.35,37.92,35.18,92.49,0.22,130.77c-27.72,30.34-58.44,56.08-100.05,64.52C626.2,764.19,609.43,765.65,592.84,767.96z
			 M595.4,708.44c5.54-0.48,14.24-1.03,22.9-2.04c37.52-4.39,63.27-27.59,85.78-55.08c10.58-12.92,8.72-31.93-2.96-44.58
			c-9.42-10.2-19.25-20.09-29.51-29.46c-14.41-13.16-34.79-12.68-49.2,0.62c-5.22,4.82-10.01,10.12-15.22,14.95
			c-30.96,28.65-75.72,28.68-105.88-0.73c-31.71-30.92-63.07-62.23-93.94-93.99c-29.33-30.17-29.09-75.17-0.33-105.86
			c5.08-5.42,10.67-10.39,15.59-15.95c12.39-14,12.74-33.89,0.23-47.71c-9.75-10.77-20.1-21.07-30.87-30.82
			c-11.77-10.65-30.07-12.77-42.19-3.03c-24.1,19.35-45.88,40.96-53.77,72.63c-8.47,33.99-5.38,67.53,4.98,100.37
			c26.31,83.41,79.74,146.08,151.68,193.7C494.83,689.36,540.79,707.28,595.4,708.44z"/>
	</g>
</g>
</svg>
