<?xml version="1.0" encoding="utf-8"?>
<!-- Generator: Adobe Illustrator 24.2.1, SVG Export Plug-In . SVG Version: 6.00 Build 0)  -->
<svg version="1.1" id="Capa_1" xmlns="http://www.w3.org/2000/svg" xmlns:xlink="http://www.w3.org/1999/xlink" x="0px" y="0px"
	 viewBox="0 0 350 700" style="enable-background:new 0 0 350 700;" xml:space="preserve">
<style type="text/css">
	.st0{fill:#E096C0;}
	.st1{fill:#FFC01C;}
	.st2{fill:#3A0CA3;}
	.st3{fill:#290D60;}
	.st4{fill:#7A3BDF;}
	.st5{fill:none;}
	.st6{fill:#FFD4E9;}
	.st7{fill:#FF9105;}
</style>
<g>
	<path class="st0" d="M335.5,278.76c-6.87-0.14-13.74-0.28-20.61-0.42c-1.05-0.02-2.06,0.94-2.25,1.94
		c-1.12,6.1-2.24,12.2-3.36,18.3c-6.24-0.13-12.48-0.26-18.72-0.39c-1.05-0.02-2.06,0.94-2.25,1.94c-1.12,6.1-2.24,12.2-3.36,18.29
		c-6.24-0.13-12.48-0.26-18.72-0.39c-1.05-0.02-2.06,0.94-2.25,1.94c-1.12,6.1-2.24,12.2-3.36,18.29
		c-6.24-0.13-12.48-0.26-18.72-0.39c-3.13-0.06-2.85,4.78,0.26,4.85c6.87,0.14,13.74,0.28,20.61,0.43c1.05,0.02,2.06-0.94,2.25-1.94
		c1.12-6.1,2.24-12.2,3.36-18.29c6.24,0.13,12.48,0.26,18.72,0.39c1.05,0.02,2.06-0.94,2.25-1.94c1.12-6.1,2.24-12.2,3.36-18.29
		c6.24,0.13,12.48,0.26,18.72,0.39c1.05,0.02,2.06-0.94,2.25-1.94c1.12-6.1,2.24-12.2,3.36-18.3c6.24,0.13,12.48,0.26,18.72,0.39
		C338.89,283.67,338.61,278.82,335.5,278.76z"/>
	<path class="st1" d="M58.89,63.27c-4.79-3.84-9.58-7.69-14.38-11.53c3.56-4.98,7.12-9.95,10.68-14.93
		c1.57-2.19,0.38-5.54-1.79-6.81c-2.5-1.46-5.24-0.41-6.81,1.79c-3.28,4.58-6.55,9.16-9.83,13.74c-4.37-3.5-8.74-7.01-13.1-10.51
		c-2.1-1.68-4.99-2.05-7.04,0c-1.74,1.74-2.11,5.35,0,7.04c4.79,3.84,9.58,7.69,14.38,11.53c-3.56,4.98-7.12,9.95-10.68,14.93
		c-1.57,2.19-0.38,5.54,1.79,6.81c2.5,1.46,5.24,0.41,6.81-1.79c3.28-4.58,6.55-9.16,9.83-13.74c4.37,3.5,8.74,7.01,13.1,10.51
		c2.1,1.68,4.99,2.05,7.04,0C60.63,68.57,60.99,64.96,58.89,63.27z"/>
	<path class="st2" d="M9.4,685.35c3.33-5.23,7.13-10.04,10.79-15.03c-2.38,3.25,0.58-0.67,1.3-1.51c1.15-1.35,2.32-2.69,3.52-4.01
		c2.28-2.53,4.63-4.98,7.04-7.39c4.67-4.67,5.41-13.06,0.41-17.86c-4.84-4.65-12.86-5.41-17.86-0.41
		c-16.91,16.93-30.6,36.45-39.94,58.5c-1.17,2.77-2.25,5.57-3.25,8.41l30.32-7.21C4.07,694.22,6.63,689.72,9.4,685.35z"/>
	<circle class="st2" cx="45.05" cy="626.81" r="12.38"/>
	<path class="st3" d="M-323.09,361.36c0.06-0.07,0.12-0.15,0.17-0.22c0.02-0.03,0.04-0.06,0.07-0.09
		C-320.99,358.6-323.67,362.07-323.09,361.36z"/>
	<path class="st3" d="M-341.03,392.21c0.16-0.4,0.32-0.81,0.48-1.21C-341.8,394.07-341.49,393.3-341.03,392.21z"/>
	<path class="st4" d="M349.39,598.87c-0.01,0.01-0.02,0.02-0.03,0.02c-10.62,9.89-21.24,19.78-31.86,29.68
		c-16.91,15.75-33.82,31.5-50.72,47.25c-3.86,3.59-7.72,7.19-11.57,10.78c-3.02,2.81-2.61,8.99,1.4,10.83
		c1.86,0.85,3.71,1.71,5.57,2.56h32.86c-5.7-2.62-11.4-5.24-17.1-7.86c-1.88-0.87-3.77-1.73-5.65-2.6
		c8.18-7.62,16.36-15.24,24.53-22.86c16.91-15.75,33.82-31.5,50.72-47.25c0.66-0.61,1.32-1.23,1.98-1.84
		c0.83,5.15,1.66,10.29,2.49,15.44v-17.76v-17.95v-0.06C350.94,597.62,350.07,598.17,349.39,598.87z"/>
	<g>
		<path class="st5" d="M237.94,30.42c-0.03-0.19-0.06-0.38-0.09-0.57C237.87,30.01,237.9,30.22,237.94,30.42z"/>
		<path class="st5" d="M308.43,100.64c-0.34-0.05-0.68-0.1-1.02-0.15c0.23,0.05,0.5,0.09,0.73,0.12
			C308.24,100.62,308.34,100.62,308.43,100.64z"/>
		<path class="st5" d="M309.01,100.73c-0.12-0.02-0.24-0.05-0.35-0.07c-0.08-0.01-0.15-0.02-0.23-0.02
			C308.63,100.66,308.82,100.69,309.01,100.73z"/>
		<path class="st5" d="M330.06,100.64c-0.07,0.01-0.13,0.01-0.2,0.02c-0.1,0.02-0.21,0.04-0.32,0.06
			C329.71,100.69,329.88,100.67,330.06,100.64z"/>
		<path class="st5" d="M330.09,100.64c0.18-0.02,0.41-0.06,0.63-0.1c-0.22,0.03-0.44,0.07-0.66,0.1
			C330.07,100.64,330.08,100.64,330.09,100.64z"/>
		<path class="st5" d="M237.85,8.13c-0.03,0.19-0.05,0.38-0.09,0.56c0.03-0.13,0.05-0.25,0.07-0.37c0.01-0.06,0.01-0.12,0.02-0.18
			C237.85,8.14,237.85,8.13,237.85,8.13z"/>
		<path class="st5" d="M237.94,7.55c-0.04,0.21-0.07,0.41-0.09,0.57C237.88,7.94,237.91,7.75,237.94,7.55z"/>
		<path class="st5" d="M369.72,83.97C369.72,83.97,369.72,83.97,369.72,83.97C368.96,84.53,368.45,84.99,369.72,83.97z"/>
		<path class="st5" d="M237.85,29.85c0-0.01,0-0.01,0-0.02c-0.01-0.06-0.01-0.13-0.02-0.19c-0.02-0.11-0.04-0.23-0.07-0.35
			C237.8,29.47,237.82,29.66,237.85,29.85z"/>
		<path class="st6" d="M254.66,131c-0.06-0.16-0.14-0.3-0.23-0.44c-0.09-0.14-0.2-0.27-0.31-0.38c-0.59-0.59-1.45-0.85-2.27-0.69
			c-0.16,0.03-0.32,0.08-0.47,0.14c-0.16,0.06-0.3,0.14-0.44,0.23c-0.14,0.09-0.27,0.2-0.38,0.31c-0.11,0.11-0.22,0.24-0.31,0.38
			c-0.09,0.13-0.17,0.28-0.23,0.44c-0.06,0.15-0.11,0.31-0.14,0.47c-0.03,0.16-0.05,0.33-0.05,0.5c0,0.16,0.02,0.33,0.05,0.49
			c0.03,0.16,0.08,0.32,0.14,0.47c0.06,0.15,0.14,0.3,0.23,0.44c0.09,0.14,0.2,0.27,0.31,0.38c0.47,0.47,1.12,0.74,1.78,0.74
			c0.17,0,0.33-0.02,0.49-0.05c0.16-0.03,0.32-0.08,0.47-0.14c0.15-0.06,0.3-0.14,0.44-0.23c0.14-0.09,0.27-0.2,0.39-0.31
			c0.11-0.12,0.22-0.25,0.31-0.38c0.09-0.14,0.17-0.28,0.23-0.44c0.06-0.15,0.11-0.31,0.14-0.47c0.03-0.16,0.05-0.33,0.05-0.49
			c0-0.17-0.02-0.33-0.05-0.5C254.77,131.31,254.72,131.16,254.66,131z"/>
		<path class="st6" d="M229.19,75.59c-0.8,1.15-0.52,2.71,0.62,3.51c0.44,0.31,0.94,0.45,1.44,0.45c0.63,0,1.25-0.24,1.73-0.69
			c-0.94-1.36-1.86-2.74-2.73-4.14C229.84,74.91,229.47,75.19,229.19,75.59z"/>
		<path class="st6" d="M218.97,71.05c0.06,0.15,0.14,0.3,0.23,0.43c0.09,0.14,0.2,0.27,0.31,0.38c0.47,0.47,1.12,0.74,1.78,0.74
			c0.66,0,1.32-0.27,1.78-0.74c0.12-0.11,0.22-0.24,0.32-0.38c0.09-0.13,0.17-0.28,0.23-0.43c0.06-0.16,0.11-0.31,0.15-0.47
			c0.03-0.16,0.05-0.33,0.05-0.5c0-0.16-0.01-0.33-0.05-0.49c-0.03-0.16-0.08-0.32-0.15-0.47c-0.06-0.15-0.14-0.3-0.23-0.44
			c-0.09-0.14-0.2-0.27-0.32-0.39c-0.47-0.47-1.12-0.74-1.78-0.74c-0.66,0-1.31,0.27-1.78,0.74c-0.11,0.12-0.22,0.25-0.31,0.39
			c-0.09,0.14-0.17,0.28-0.23,0.44c-0.06,0.15-0.11,0.31-0.15,0.47c-0.03,0.16-0.05,0.33-0.05,0.49c0,0.16,0.02,0.33,0.05,0.5
			C218.86,70.74,218.91,70.9,218.97,71.05z"/>
		<path class="st6" d="M267.18,112.91c-0.06-0.15-0.14-0.3-0.23-0.44c-0.09-0.14-0.2-0.27-0.31-0.38c-0.12-0.12-0.25-0.22-0.38-0.32
			c-0.14-0.09-0.28-0.17-0.44-0.23c-0.15-0.06-0.31-0.11-0.47-0.15c-0.82-0.16-1.69,0.11-2.27,0.69c-0.11,0.11-0.22,0.24-0.31,0.38
			c-0.09,0.14-0.17,0.28-0.23,0.44c-0.06,0.15-0.11,0.31-0.14,0.47c-0.04,0.16-0.05,0.33-0.05,0.49c0,0.16,0.01,0.33,0.05,0.49
			c0.03,0.16,0.08,0.32,0.14,0.47c0.06,0.15,0.14,0.3,0.23,0.44c0.09,0.14,0.2,0.27,0.31,0.38c0.47,0.47,1.12,0.73,1.78,0.73
			c0.16,0,0.33-0.01,0.49-0.05c0.16-0.03,0.32-0.08,0.47-0.15c0.15-0.06,0.3-0.14,0.44-0.23c0.14-0.09,0.27-0.2,0.38-0.31
			c0.11-0.12,0.22-0.25,0.31-0.38c0.09-0.14,0.17-0.28,0.23-0.44c0.06-0.15,0.11-0.31,0.14-0.47c0.03-0.16,0.05-0.33,0.05-0.49
			c0-0.16-0.02-0.33-0.05-0.49C267.29,113.22,267.24,113.06,267.18,112.91z"/>
		<path class="st6" d="M227.07,87.53c0.79-1.15,0.51-2.72-0.63-3.51c-1.14-0.8-2.71-0.52-3.51,0.62c-0.79,1.14-0.51,2.71,0.63,3.51
			c0.44,0.31,0.94,0.45,1.44,0.45C225.8,88.6,226.58,88.23,227.07,87.53z"/>
		<path class="st6" d="M256.95,108.37c0.8-1.14,0.52-2.71-0.62-3.51c-1.14-0.79-2.71-0.51-3.51,0.63c-0.8,1.14-0.52,2.71,0.63,3.51
			c0.44,0.31,0.94,0.45,1.44,0.45C255.68,109.45,256.46,109.07,256.95,108.37z"/>
		<path class="st6" d="M246.99,101.42c0.79-1.14,0.51-2.71-0.63-3.51c-1.14-0.8-2.71-0.52-3.51,0.62c-0.8,1.14-0.52,2.71,0.62,3.51
			c0.44,0.31,0.94,0.45,1.44,0.45C245.72,102.5,246.5,102.12,246.99,101.42z"/>
		<path class="st6" d="M237.03,94.47c0.8-1.14,0.52-2.71-0.62-3.51c-1.15-0.8-2.71-0.52-3.51,0.62c-0.8,1.14-0.52,2.71,0.63,3.51
			c0.44,0.31,0.94,0.45,1.43,0.45C235.76,95.55,236.54,95.18,237.03,94.47z"/>
		<path class="st6" d="M217.13,80.53c0.09-0.14,0.17-0.28,0.23-0.44c0.06-0.15,0.11-0.31,0.14-0.47c0.03-0.16,0.05-0.33,0.05-0.49
			c0-0.17-0.02-0.33-0.05-0.5c-0.03-0.16-0.08-0.32-0.14-0.47c-0.06-0.16-0.14-0.3-0.23-0.44c-0.09-0.14-0.2-0.27-0.31-0.38
			c-0.59-0.59-1.46-0.85-2.28-0.69c-0.16,0.03-0.32,0.08-0.47,0.14c-0.16,0.06-0.3,0.14-0.44,0.23c-0.14,0.09-0.27,0.2-0.38,0.31
			c-0.11,0.11-0.22,0.24-0.32,0.38c-0.09,0.13-0.16,0.28-0.23,0.44c-0.06,0.15-0.11,0.31-0.14,0.47c-0.03,0.16-0.05,0.33-0.05,0.5
			c0,0.16,0.02,0.33,0.05,0.49c0.03,0.16,0.08,0.32,0.14,0.47c0.06,0.15,0.14,0.3,0.23,0.44c0.09,0.14,0.2,0.27,0.32,0.38
			c0.11,0.11,0.24,0.22,0.38,0.31c0.13,0.09,0.28,0.17,0.44,0.23c0.15,0.06,0.31,0.11,0.47,0.14c0.17,0.03,0.33,0.05,0.5,0.05
			c0.66,0,1.32-0.27,1.78-0.74C216.94,80.8,217.04,80.67,217.13,80.53z"/>
		<path class="st6" d="M260.92,121.96c-0.06-0.15-0.14-0.3-0.23-0.44c-0.09-0.14-0.2-0.27-0.32-0.39c-0.47-0.47-1.12-0.74-1.78-0.74
			c-0.66,0-1.31,0.27-1.78,0.74c-0.11,0.12-0.22,0.25-0.31,0.39c-0.09,0.14-0.17,0.28-0.23,0.44c-0.06,0.15-0.11,0.31-0.14,0.47
			c-0.03,0.16-0.05,0.33-0.05,0.49c0,0.16,0.02,0.33,0.05,0.5c0.03,0.16,0.08,0.32,0.14,0.47c0.06,0.15,0.14,0.3,0.23,0.44
			c0.09,0.14,0.2,0.27,0.31,0.38c0.47,0.47,1.12,0.74,1.78,0.74c0.66,0,1.32-0.27,1.78-0.74c0.47-0.47,0.74-1.12,0.74-1.78
			c0-0.16-0.01-0.33-0.05-0.49C261.03,122.27,260.98,122.11,260.92,121.96z"/>
		<path class="st6" d="M220.81,96.57c0.8-1.14,0.52-2.71-0.62-3.51c-1.15-0.79-2.71-0.51-3.51,0.63c-0.8,1.14-0.52,2.71,0.62,3.51
			c0.44,0.3,0.94,0.45,1.44,0.45C219.53,97.65,220.32,97.27,220.81,96.57z"/>
		<path class="st6" d="M240.73,110.47c0.8-1.14,0.52-2.71-0.62-3.51c-1.14-0.8-2.71-0.51-3.51,0.63c-0.8,1.14-0.52,2.71,0.62,3.51
			c0.44,0.31,0.94,0.45,1.44,0.45C239.46,111.54,240.24,111.17,240.73,110.47z"/>
		<path class="st6" d="M230.77,103.52c0.79-1.14,0.51-2.71-0.63-3.51c-1.14-0.79-2.71-0.51-3.51,0.63
			c-0.79,1.14-0.51,2.71,0.63,3.51c0.44,0.3,0.94,0.45,1.44,0.45C229.5,104.6,230.28,104.22,230.77,103.52z"/>
		<path class="st6" d="M250.7,117.41c0.8-1.14,0.52-2.71-0.63-3.51c-1.14-0.8-2.71-0.52-3.51,0.63c-0.79,1.14-0.51,2.71,0.63,3.51
			c0.44,0.31,0.94,0.45,1.44,0.45C249.42,118.49,250.21,118.12,250.7,117.41z"/>
		<path class="st6" d="M210.88,89.58c0.09-0.14,0.17-0.28,0.23-0.44c0.06-0.15,0.11-0.31,0.15-0.47c0.03-0.16,0.05-0.33,0.05-0.49
			c0-0.66-0.27-1.32-0.74-1.78c-0.47-0.47-1.12-0.74-1.78-0.74c-0.66,0-1.31,0.27-1.78,0.74c-0.47,0.47-0.74,1.12-0.74,1.78
			c0,0.16,0.02,0.33,0.05,0.49c0.03,0.16,0.08,0.32,0.14,0.47c0.06,0.15,0.14,0.3,0.23,0.44c0.09,0.14,0.2,0.27,0.31,0.38
			c0.47,0.47,1.12,0.74,1.78,0.74c0.66,0,1.32-0.27,1.78-0.74C210.68,89.84,210.78,89.72,210.88,89.58z"/>
		<path class="st6" d="M243.81,122.95c-1.14-0.8-2.71-0.52-3.51,0.62c-0.8,1.15-0.51,2.71,0.63,3.51c0.44,0.31,0.94,0.45,1.44,0.45
			c0.8,0,1.58-0.38,2.07-1.08C245.23,125.32,244.95,123.75,243.81,122.95z"/>
		<path class="st6" d="M233.85,116c-1.14-0.8-2.71-0.52-3.51,0.62c-0.8,1.14-0.52,2.71,0.62,3.51c0.44,0.31,0.94,0.45,1.44,0.45
			c0.8,0,1.58-0.38,2.07-1.08C235.27,118.37,234.99,116.8,233.85,116z"/>
		<path class="st6" d="M213.92,102.11c-1.14-0.8-2.71-0.52-3.51,0.62c-0.79,1.15-0.51,2.72,0.63,3.51c0.44,0.31,0.94,0.45,1.44,0.45
			c0.8,0,1.58-0.38,2.07-1.08C215.35,104.47,215.07,102.9,213.92,102.11z"/>
		<path class="st6" d="M223.88,109.05c-1.14-0.8-2.71-0.52-3.51,0.63c-0.8,1.14-0.52,2.71,0.62,3.51c0.44,0.31,0.94,0.45,1.44,0.45
			c0.79,0,1.58-0.38,2.07-1.08C225.31,111.42,225.03,109.85,223.88,109.05z"/>
		<path class="st6" d="M202.52,94.7c-0.66,0-1.32,0.27-1.78,0.74c-0.47,0.47-0.74,1.12-0.74,1.78c0,0.17,0.02,0.33,0.05,0.5
			c0.03,0.16,0.08,0.32,0.14,0.47c0.06,0.15,0.14,0.3,0.23,0.44c0.09,0.14,0.2,0.27,0.31,0.38c0.47,0.47,1.12,0.74,1.78,0.74
			c0.66,0,1.31-0.27,1.78-0.74c0.11-0.11,0.22-0.24,0.31-0.38c0.09-0.14,0.17-0.28,0.23-0.44c0.06-0.15,0.11-0.31,0.14-0.47
			c0.03-0.16,0.05-0.33,0.05-0.5c0-0.66-0.27-1.31-0.74-1.78C203.83,94.97,203.19,94.7,202.52,94.7z"/>
		<path class="st6" d="M281.3,87.7c0.06,0.15,0.14,0.3,0.23,0.44c0.09,0.14,0.2,0.27,0.31,0.38c0.47,0.47,1.12,0.74,1.78,0.74
			c0.16,0,0.33-0.01,0.5-0.05c0.16-0.03,0.32-0.08,0.47-0.15c0.15-0.06,0.3-0.14,0.44-0.23c0.14-0.09,0.27-0.2,0.38-0.32
			c0.12-0.11,0.22-0.24,0.32-0.38c0.09-0.14,0.16-0.28,0.23-0.44c0.06-0.16,0.11-0.31,0.15-0.47c0.03-0.16,0.05-0.33,0.05-0.49
			c0-0.16-0.01-0.33-0.05-0.49c-0.04-0.16-0.08-0.32-0.15-0.47c-0.06-0.15-0.14-0.3-0.23-0.44c-0.1-0.14-0.2-0.27-0.32-0.38
			c-0.11-0.12-0.24-0.22-0.38-0.32c-0.14-0.09-0.28-0.17-0.44-0.23c-0.16-0.06-0.31-0.11-0.47-0.15c-0.82-0.16-1.69,0.11-2.28,0.69
			c-0.11,0.11-0.22,0.24-0.31,0.38c-0.09,0.14-0.17,0.28-0.23,0.44c-0.06,0.15-0.11,0.31-0.14,0.47c-0.03,0.16-0.05,0.33-0.05,0.49
			c0,0.16,0.02,0.33,0.05,0.49C281.19,87.39,281.24,87.54,281.3,87.7z"/>
		<path class="st6" d="M272.22,81.86c0.44,0.3,0.94,0.45,1.44,0.45c0.8,0,1.58-0.38,2.07-1.08c0.8-1.14,0.51-2.71-0.63-3.51
			c-1.14-0.79-2.71-0.51-3.51,0.63C270.8,79.49,271.08,81.06,272.22,81.86z"/>
		<path class="st6" d="M253.61,68.4c0.04,0,0.08,0.01,0.12,0.01c0.8,0,1.58-0.38,2.07-1.08c0.8-1.14,0.52-2.71-0.62-3.51
			c-1.14-0.79-2.71-0.51-3.51,0.63c-0.16,0.22-0.26,0.46-0.33,0.71c0.43,0.65,0.87,1.3,1.32,1.94
			C252.97,67.54,253.29,67.97,253.61,68.4z"/>
		<path class="st6" d="M262.26,74.9c0.44,0.31,0.94,0.46,1.44,0.46c0.79,0,1.58-0.38,2.07-1.08c0.8-1.14,0.52-2.71-0.62-3.51
			c-1.14-0.79-2.71-0.51-3.51,0.63C260.84,72.54,261.12,74.11,262.26,74.9z"/>
		<path class="st7" d="M330.72,100.54c0.84-0.15,1.61-0.36-0.86,0.12c0.07-0.01,0.13-0.01,0.2-0.02
			C330.28,100.61,330.5,100.57,330.72,100.54z"/>
		<path class="st7" d="M308.66,100.66c-2.1-0.41-1.86-0.3-1.24-0.18c0.34,0.05,0.68,0.1,1.02,0.15
			C308.51,100.64,308.59,100.65,308.66,100.66z"/>
		<path class="st7" d="M237.85,8.15c-0.01,0.06-0.01,0.12-0.02,0.18c0.47-2.46,0.26-1.63,0.11-0.77c-0.03,0.19-0.06,0.38-0.09,0.57
			C237.85,8.13,237.85,8.14,237.85,8.15z"/>
		<path class="st7" d="M237.85,29.85c0.03,0.19,0.06,0.38,0.09,0.57c0.15,0.86,0.36,1.69-0.11-0.78c0.01,0.06,0.01,0.13,0.02,0.19
			C237.85,29.84,237.85,29.84,237.85,29.85z"/>
		<path class="st7" d="M371.11,82.83c-0.43,0.36-0.87,0.72-1.31,1.07c-3.69,2.55-7.27,5.14-11.21,7.32
			c-1.94,1.07-3.92,2.08-5.93,3.01c-0.5,0.23-0.99,0.45-1.49,0.67c-1.02,0.4-2.04,0.81-3.08,1.18c-4.44,1.61-9,2.88-13.63,3.8
			c-1.02,0.2-2.04,0.39-3.07,0.55c-0.22,0.04-0.45,0.07-0.67,0.1c-0.22,0.04-0.46,0.08-0.63,0.1c-0.01,0-0.02,0-0.03,0
			c-0.17,0.03-0.35,0.05-0.52,0.08c0.11-0.02,0.22-0.04,0.32-0.06c-2.45,0.28-4.91,0.46-7.37,0.54c-4.61,0.15-9.24-0.03-13.83-0.55
			c0.11,0.02,0.22,0.04,0.35,0.07c-0.19-0.04-0.38-0.06-0.57-0.09c-0.1-0.01-0.19-0.02-0.29-0.03c-0.23-0.03-0.5-0.08-0.73-0.12
			c-0.09-0.01-0.18-0.02-0.27-0.04c-1.13-0.18-2.25-0.39-3.37-0.62c-2.32-0.47-4.63-1.03-6.91-1.67c-2.16-0.61-4.3-1.3-6.41-2.07
			c-1.01-0.37-2-0.76-2.99-1.15c-0.52-0.24-1.05-0.46-1.57-0.71c-4.2-1.94-8.25-4.2-12.11-6.74c-1.84-1.21-3.58-2.55-5.38-3.82
			c3.18,2.26-0.01-0.04-0.73-0.64c-1-0.83-1.98-1.68-2.94-2.55c-3.41-3.08-6.58-6.41-9.5-9.96c-0.6-0.73-2.6-3.64-0.44-0.5
			c-0.37-0.54-0.77-1.07-1.17-1.6c-0.32-0.43-0.65-0.86-0.96-1.31c-0.45-0.64-0.89-1.29-1.32-1.94c-0.84-1.27-1.66-2.56-2.44-3.87
			c-1.14-1.9-2.2-3.84-3.2-5.82c-0.5-0.99-0.98-1.99-1.45-3c-0.21-0.46-0.41-0.91-0.62-1.37c-1.69-4.33-3.15-8.71-4.23-13.23
			c-0.53-2.22-0.98-4.46-1.35-6.72c-0.04-0.24-0.07-0.48-0.11-0.73c-0.04-0.2-0.07-0.41-0.09-0.57c-0.03-0.19-0.05-0.38-0.09-0.57
			c0.02,0.12,0.05,0.24,0.07,0.35c-0.13-1.2-0.25-2.39-0.34-3.59c-0.36-4.9-0.35-9.84,0.05-14.74c0.08-0.99,0.18-1.98,0.29-2.97
			c-0.02,0.12-0.05,0.24-0.07,0.37c0.04-0.19,0.06-0.38,0.09-0.56c0.02-0.16,0.05-0.37,0.09-0.57c0.03-0.24,0.07-0.48,0.1-0.72
			c0.4-2.46,0.9-4.9,1.49-7.32c1.08-4.39,2.58-8.58,4.16-12.8c0.18-0.4,0.36-0.8,0.54-1.2c0.42-0.92,0.86-1.83,1.31-2.73
			c1.08-2.16,2.25-4.28,3.49-6.35c0.91-1.5,1.86-2.98,2.85-4.43h-26.37c-6.07,12.18-9.78,25.42-10.91,39.3
			c-1.73,21.37,3.59,43.46,14.64,61.82c0.33,0.54,0.66,1.08,0.99,1.61c0.88,1.4,1.79,2.78,2.73,4.14
			c10.52,15.16,25.11,27.76,41.89,35.4c20.68,9.41,43.36,12.14,65.68,7.72c11.15-2.21,21.76-6.37,31.45-12.08V82.05
			C371.7,82.31,371.41,82.58,371.11,82.83z M369.72,83.97C368.45,84.99,368.96,84.53,369.72,83.97
			C369.72,83.97,369.72,83.97,369.72,83.97z"/>
	</g>
</g>
</svg>
