<?xml version="1.0" encoding="utf-8"?>
<!-- Generator: Adobe Illustrator 24.2.1, SVG Export Plug-In . SVG Version: 6.00 Build 0)  -->
<svg version="1.1" id="Capa_1" xmlns="http://www.w3.org/2000/svg" xmlns:xlink="http://www.w3.org/1999/xlink" x="0px" y="0px"
	 viewBox="0 0 216 288" style="enable-background:new 0 0 216 288;" xml:space="preserve">
<style type="text/css">
	.st0{clip-path:url(#SVGID_1_);}
	.st1{fill:#7A3BDF;}
	.st2{fill:#D2C2FF;}
	.st3{opacity:0.13;clip-path:url(#SVGID_1_);}
	.st4{fill:#1A143F;}
	.st5{fill:#FCD9B2;}
	.st6{clip-path:url(#SVGID_2_);}
	.st7{fill:#C7CBD1;}
	.st8{fill:#FDFDFE;}
	.st9{fill:#0D0B0A;}
	.st10{fill:#D6DAE1;}
	.st11{fill:#020101;}
	.st12{fill:#14110D;}
	.st13{fill:#110E0B;}
	.st14{fill:#D7DBE1;}
	.st15{fill:#FFFFFF;}
	.st16{fill:#8080B7;}
	.st17{clip-path:url(#SVGID_3_);}
	.st18{fill:#111111;}
	.st19{clip-path:url(#SVGID_4_);}
	.st20{opacity:0.63;clip-path:url(#XMLID_2_);fill:#3D3D7F;}
	.st21{fill:#090966;}
</style>
<g>
	<g>
		<defs>
			<path id="SVGID_9_" d="M110.66,158.85c0,0,0.6,43.69,12.82,54.76c12.22,11.07,43.21,33.07,43.21,33.07l9.84-19.4
				c0,0-29.5-24.5-31.45-31.62c-2.04-7.44,5.15-42.05,1.1-56.26c-2.68-9.44-6-15.29-6.93-16.82c1.96-11.36-3.6-37.32-2.64-41.49
				c0.22-0.94,1.46-1.13,1.95-0.3c0.22,0.4,0.45,0.81,0.67,1.21c7.25,13.55,29.79,24.41,36.96,31.47
				c7.27,7.17,18.37,13.08,21.18,15.06c2.67,1.89,2.07,5.98,2.29,8.78c0.05,0.63,0.14,1.26,0.42,1.82c0.28,0.56,0.79,1.04,1.41,1.14
				c0.42,0.07,0.89-0.06,1.12-0.42c0.21-0.33,0.17-0.75,0.12-1.14c-0.24-1.89-0.31-4.94,1.34-6.28c1.15-0.93,2.28-0.73,3.24-0.04
				c0.2,0.86,0.32,2.06-0.3,2.96c-1.07,1.56-1.7,4.11-0.61,4.56c0.88,0.37,2.99-0.86,3.58-3.12c0.3,1.09,0.52,2.21,0.88,3.29
				c0.19,0.59,0.49,1.23,1.27,1.19c0.4-0.02,0.76-0.24,1-0.55c1.6-2,1.89-4.78,1.24-7.24c-0.76-2.84-2.65-5.52-4.95-7.32
				c-7.49-5.85-16.07-8.83-22.47-15.9c-2.7-2.98-12.43-19.81-15.19-23.81c-11.01-15.97-16.68-19.82-22.49-24.6
				c-9.85-8.12-21.9-9.37-26.84-9.31c-1.73,0.02-25.27-3.83-26.53-4.23c-5.42-1.72-19.48-5.7-28.79-3.98
				c-9.47,1.75-35.87-11.76-39.97-13.9c-0.37-0.19-0.75-0.37-1.13-0.53l-8.38-3.41c-1.45-0.59-2.95-1.05-4.48-1.36
				C9.55,24.41,3,23.06,3,23.06c-0.83-0.17-1.65,0.43-1.69,1.33c-0.03,0.65,0.43,1.22,1.05,1.41l11.03,3.3c0,0-7.15-2.12-7.37-0.13
				s6.71,3.08,6.71,3.08s-6.6-1.06-6.78,0.6c-0.18,1.67,4.24,2.19,5.68,2.31c-2.94-0.15-6.72,1.27-3.86,2.58
				c0.88,0.4,10.73,1.79,14.32,1.54c0.7-0.05,1.72,0.24,2.28,0.67c4.67,3.55,5.53,4.61,6.6,5.67c0.08,0.08,7.11,8.15,14.13,12.98
				c20.29,13.96,34.92,10.69,38.34,13.08c3.43,2.39-2.43,8.25,2.06,18.01c3.14,6.82,5.94,18.02,4.74,30.39
				c-0.08,0.08-31.81,33.14-36.69,56.4c-4.61,21.94-4.36,67.65,2.1,76.08l19.37-5.27c0,0-4.06-42.73,3.09-56.04
				C85.28,177.73,110.66,158.85,110.66,158.85"/>
		</defs>
		<use xlink:href="#SVGID_9_"  style="overflow:visible;fill:#EEE6FF;"/>
		<clipPath id="SVGID_1_">
			<use xlink:href="#SVGID_9_"  style="overflow:visible;"/>
		</clipPath>
		<g class="st0">
			<g>
				<polygon class="st1" points="83.46,189.08 49.49,172.47 52.5,165.81 86.28,184.08 				"/>
			</g>
			<g>
				<polygon class="st1" points="204.2,119.24 192.3,128.87 189.84,125.97 202.43,116.83 				"/>
			</g>
			<g>
				<polygon class="st1" points="175.07,85.87 156.97,103.91 153.65,100.76 170.8,81.5 				"/>
			</g>
			<g>
				<polygon class="st1" points="31.8,30.04 26.57,44.43 30.12,45.82 34.66,30.94 				"/>
			</g>
			<g>
				<polygon class="st1" points="67.19,35.58 53.22,64.39 58.15,66.95 73.9,38.75 				"/>
			</g>
			<g>
				<polygon class="st1" points="153.64,196.38 117.66,217.43 115.44,213.47 150.31,190.29 				"/>
			</g>
		</g>
		<g class="st0">
			<path class="st2" d="M84.11,75.53c-0.01,0-0.02,0-0.02,0c-0.18-0.03-0.3-0.21-0.27-0.39c0.02-0.12,2.11-11.8,2.68-15.81
				c0.03-0.18,0.2-0.31,0.38-0.28c0.18,0.03,0.31,0.2,0.28,0.38c-0.58,4.01-2.66,15.71-2.69,15.83
				C84.44,75.43,84.28,75.54,84.11,75.53z"/>
		</g>
		<g class="st3">
			<g>
				<path class="st4" d="M162.41,205.94l-14.54-14.34l6.98-27.09l-4.91-25.71l-3.65-5.58l-0.81-10.2c0,0-2.41-0.05-5.93-0.09
					l-0.25-0.39l-6.59,0.34c-9.32-0.02-20.38,0.16-20.78,1.13c-0.69,1.7-0.62,2.35-0.62,2.35c1.35-0.62,3.03-0.57,4.31-0.6
					c10.05-0.2,16.49,7.49,18.68,16.19c1.08,4.29,1.98,8.47,2.29,11.5c0.98,9.5-1.81,35.04,1.71,42.81
					c3.52,7.77,12.93,17.99,18.63,22.07C162.62,222.41,162.41,205.94,162.41,205.94z"/>
			</g>
			<g>
				<path class="st4" d="M110.4,161.67l-0.8-14.44c0,0-0.05,0.04-0.13,0.12l0.14-0.88c0,0,0.97-17.39,3-22.8l-17.32-2.16
					c0,0,8.16,9.95,9.86,17.04c0.62,2.56,0.17,5.57-0.66,8.37c-1.41,4.78-4.03,9.12-7.48,12.71
					c-11.08,11.51-25.76,28.46-27.77,39.33c-3.28,17.76,0.15,38.61,0.15,38.61l6.58-8.01l2.15-28.96l16.35-20.7L110.4,161.67z"/>
			</g>
			<g>
				<path class="st4" d="M109.71,118.66c0,0,21.87,1.84,21.66-5.52s0.82-23.54,0.44-27.51c-0.25-2.64,1.04-8.13,1.93-11.49
					c0.31-1.18,1.82-1.5,2.59-0.56c3.92,4.8,13.42,15.88,20.59,19.67c11.02,5.82,26.19,22.95,29.2,25.01s16.17,7.93,17.94,14.2
					c1.76,6.27-2.87,11.81-2.87,11.81l-4.87-6.78l-1.74-5.8l-16.89-9.32l-17.48-17.74l-19.48-15.5l0.72,13.45l1,20.51L109.71,118.66
					z"/>
			</g>
			<g>
				<path class="st4" d="M62.81,61.94c-9.88-4.59-24.03-13.25-27.75-16.55c-3.17-2.82-9.42-8.6-13.07-8.74
					c-3.65-0.13-14.49-1.68-17.31-1.48c-2.83,0.2,4.63,5.5,16.7,7.07c12.07,1.58,8.86,11.75,15.38,15.27
					c6.52,3.52,31.72,15.76,37.97,15.79c6.25,0.04,9.44-0.22,9.44-0.22l1.76-10.2C85.94,62.88,73.36,66.83,62.81,61.94z"/>
			</g>
		</g>
		<g class="st0">
			<circle class="st1" cx="140.78" cy="56.59" r="7.32"/>
		</g>
	</g>
	<g>
		<g>
			<path class="st4" d="M97.83,14.24c-2.49,3.4-3.53,7.27-3.56,11.45c0,0.12-0.02,0.25-0.03,0.37c0,0-0.01,0.01-0.01,0.01
				c0.02,0.22,0.03,0.45,0.05,0.67c0.11,1.17,0.34,2.32,0.59,3.47c0.22,0.59,0.43,1.19,0.65,1.78l0.01-0.01
				c0.05,0.1,0.1,0.19,0.15,0.29l0.01,0.03c0.06,0.13,0.12,0.25,0.18,0.38l0,0c1.24,2.07,2.75,3.88,4.87,5.1
				c0.35,0.2,1.02,1.41,1.45,1.4c0.1-0.26-0.42-1.42-0.53-1.61c-0.7-1.15-1.06-2.4-1.01-3.74c0.03-0.83,0.19-1.65,0.32-2.47
				c0.57-3.53,1.15-7.06,1.73-10.59c0.03-0.15,0.07-0.3,0.1-0.45l0,0c0.47-1.88,1.34-3.54,2.71-4.93c-0.06-0.06-0.11-0.12,0.01-0.17
				c0.06-0.04,0.11-0.08,0.17-0.12c0.58-0.8,1.44-1.24,2.25-1.73c1.27-0.77,2.7-1.04,4.15-1.23C107.35,8.69,101.72,8.93,97.83,14.24
				z"/>
		</g>
		<g>
			<path class="st5" d="M121.8,27.56c-0.17-0.86-0.38-1.72-0.54-2.58c-0.21-1.13-0.61-2.22-0.63-3.38c-0.8-1.53-1.78-2.93-2.97-4.18
				c-0.16-0.03-0.32-0.06-0.47-0.09c-3.84-0.64-7.69-1.29-11.53-1.93c-0.05,0.01-0.1,0.01-0.14,0c-1.37,1.39-2.24,3.04-2.71,4.93
				c-0.03,0.15-0.07,0.3-0.1,0.45c-0.58,3.53-1.16,7.06-1.73,10.59c-0.13,0.82-0.3,1.64-0.32,2.47c-0.04,1.33,0.48,3.54,1.17,4.69
				c0.12,0.19,1.31,0.38,1.99,0.58c4.13,1.2,8.2,0.67,12.27-0.38c0.93-0.24,1.85-0.51,2.73-0.86c1.15-0.46,2-1.36,2.25-2.51
				c0.52-2.38,0.83-4.81,1.23-7.22C121.95,28.08,121.86,27.85,121.8,27.56z"/>
		</g>
		<g>
			<defs>
				<path id="SVGID_11_" d="M103.57,5.81c0.36-0.19,0.73-0.35,1.06-0.57c2.35-1.5,4.92-2.42,7.65-2.96
					c3.09-0.61,6.17-0.42,9.23,0.22c1.66,0.52,3.33,1,4.87,1.85c0.15,0.08,0.33,0.09,0.5,0.13c0,0,0,0,0,0
					c0.04,0.14,0.15,0.18,0.28,0.2c0.23,0.14,0.46,0.28,0.7,0.42c1.71,1.24,3.41,2.48,4.84,4.07c2.72,3.01,4.48,6.48,5.34,10.43
					c0.5,2.31,0.56,4.63,0.38,6.97c-0.31,1.85-0.6,3.7-1.08,5.51c-0.41,1.1-0.76,2.21-1.23,3.28c-0.93,2.13-2.13,4.11-3.72,5.82
					c-0.14,0.15-0.32,0.26-0.35,0.48c-1.26,1.22-1.97,2.78-2.72,4.32c-0.1,0.25-0.19,0.49-0.29,0.74
					c-9.68-1.62-19.36-3.25-29.04-4.88c-0.3-0.05-0.59-0.12-0.89-0.19c-0.21-2.51-1.1-4.76-2.45-6.88c-0.4-0.62-0.96-1.26-0.78-2.13
					c1.24,2.07,2.75,3.88,4.87,5.1c0.35,0.2,0.69,0.41,1.11,0.41c0.5,0.63,1.27,0.71,1.96,0.91c4.13,1.2,8.2,0.67,12.27-0.38
					c0.93-0.24,1.85-0.51,2.73-0.86c1.15-0.46,2-1.36,2.25-2.51c0.52-2.38,0.83-4.81,1.23-7.22c0.04-0.17,0.07-0.35,0.11-0.52
					c0.08-0.5,0.16-1,0.25-1.5c0.13-0.8-0.03-1.57-0.44-2.24c-0.48-0.78-0.82-1.66-1.57-2.26c-0.8-1.53-1.78-2.93-2.97-4.18
					c-0.01-0.17-0.12-0.27-0.25-0.36c-0.15-0.17-0.29-0.33-0.44-0.5c-1.43-1.69-2.97-3.26-4.88-4.41
					c-4.74-3.45-10.37-3.21-14.26,2.1c-2.49,3.4-3.53,7.27-3.56,11.45c0,0.12-0.02,0.25-0.02,0.37c-0.38-0.39-0.2-0.88-0.2-1.32
					c0-1.04,0.06-2.07,0.1-3.11c0.23-1.25,0.36-2.52,0.78-3.73c1.27-4.14,3.55-7.64,6.77-10.54C102.17,6.94,103.49,5.93,103.57,5.81
					z M128.16,37.76c2.89,0.42,5.37-1.4,5.82-4.26c0.45-2.87-1.27-5.34-4.2-5.87c-2.75-0.5-5.5,1.44-5.8,4.23
					C123.36,34.58,125.34,37.35,128.16,37.76z"/>
			</defs>
			<use xlink:href="#SVGID_11_"  style="overflow:visible;fill:#D6DAE1;"/>
			<clipPath id="SVGID_2_">
				<use xlink:href="#SVGID_11_"  style="overflow:visible;"/>
			</clipPath>
			<g class="st6">
				<path class="st7" d="M123.21,0.71c0,0,10.43,14.18,8.71,26.16c-1.54,10.79-9.81,21.93-9.81,21.93l10.93,1.19l9.45-27.33
					l-7.61-15.5L123.21,0.71z"/>
			</g>
		</g>
		<g>
			<path class="st8" d="M129.79,27.63c2.93,0.53,4.65,3,4.2,5.87c-0.45,2.86-2.94,4.69-5.82,4.26c-2.83-0.42-4.8-3.18-4.18-5.91
				C124.29,29.08,127.04,27.13,129.79,27.63z M128.73,34.9c0.51,0.61,1.41,0.81,2.04,0.35c1.35-1,1.71-2.8,0.84-4.23
				c-0.59-0.97-1.85-0.97-2.65-0.08c-0.41,0.46-0.64,1.01-0.79,1.64C128.11,33.39,128.16,34.21,128.73,34.9z"/>
		</g>
		<g>
			<path class="st9" d="M129.64,47.74c0.03-0.25-0.04-0.43-0.16-0.59c-0.21-0.27-0.53-0.43-0.87-0.48c-9.54-1.6-19.08-3.2-28.62-4.8
				c-0.3-0.05-0.59-0.12-0.89-0.19c-1.06,0.08-1.28,0.29-1.47,1.34c-0.22,1.29-0.45,2.59-0.68,3.88c-0.03,0.23-0.06,0.45-0.09,0.68
				c-0.12,0.88,0.19,1.34,1.08,1.49c2.52,0.43,5.04,0.84,7.56,1.27c1.35,0.23,2.69,0.47,4.04,0.7c3.11,0.51,6.23,1.02,9.34,1.53
				c2.79,0.46,5.58,0.93,8.37,1.4c0.65,0.11,1.22,0.05,1.46-0.69L129.64,47.74z"/>
		</g>
		<g>
			<path class="st10" d="M95.69,32.29c-0.16,0.23-0.07,0.34,0.18,0.38C95.81,32.55,95.75,32.42,95.69,32.29z"/>
		</g>
		<g>
			<g>
				<path class="st11" d="M122.2,23.85c-0.48-0.78-0.82-1.66-1.57-2.26c0.01,1.16,0.42,2.26,0.63,3.38
					c0.16,0.86,0.37,1.72,0.54,2.58c0.06,0.29,0.14,0.53,0.49,0.56c0.04-0.17,0.07-0.35,0.11-0.52c0.08-0.5,0.16-1,0.25-1.5
					C122.78,25.29,122.62,24.53,122.2,23.85z"/>
			</g>
			<g>
				<path class="st11" d="M117.41,17.05c-0.15-0.17-0.29-0.33-0.44-0.5c-1.43-1.69-2.97-3.26-4.88-4.41
					c-1.45,0.19-2.89,0.46-4.15,1.23c-0.81,0.49-1.67,0.93-2.24,1.73c-0.06,0.04-0.11,0.08-0.17,0.12
					c-0.13,0.05-0.08,0.11-0.01,0.17c0.05,0.01,0.1,0.01,0.14,0c3.84,0.64,7.69,1.29,11.53,1.93c0.16,0.03,0.32,0.06,0.47,0.09
					C117.66,17.24,117.55,17.14,117.41,17.05z"/>
			</g>
		</g>
		<g>
			<path class="st10" d="M95.54,31.98c-0.05,0.15-0.08,0.28,0.15,0.29C95.64,32.17,95.59,32.08,95.54,31.98z"/>
		</g>
		<g>
			<path class="st12" d="M107.85,32.04c0.32,0.05,0.65,0.09,0.97,0.17c0.36,0.09,0.54,0.04,0.61-0.38c0.06-0.4-0.1-0.45-0.42-0.52
				c-1.4-0.28-1.4-0.29-0.92-1.64c0.47-1.33,0.95-2.66,1.45-3.98c0.11-0.3,0.18-0.48-0.21-0.61c-0.38-0.13-0.52-0.03-0.65,0.33
				c-0.7,1.97-1.42,3.93-2.15,5.89c-0.15,0.39-0.06,0.55,0.36,0.58C107.2,31.91,107.52,31.99,107.85,32.04z"/>
		</g>
		<g>
			<path class="st13" d="M114.01,26.1c-0.79-0.09-1.53-0.02-2.08,0.64c-0.11,0.13-0.38,0.31-0.17,0.5c0.21,0.18,0.49,0.35,0.81,0.16
				c1.15-0.69,1.79-0.58,2.61,0.5c0.3,0.39,0.55,0.08,0.78,0.02c0.34-0.08,0.08-0.33,0.02-0.47
				C115.58,26.63,114.84,26.28,114.01,26.1z"/>
		</g>
		<g>
			<path class="st12" d="M114.69,23.5c-0.35-0.09-0.81-0.07-1.26-0.05c-0.23,0.01-0.54-0.08-0.46,0.37c0.05,0.31,0.03,0.58,0.5,0.55
				c1.11-0.09,2.17,0.17,3.11,0.76c0.45,0.28,0.5-0.09,0.67-0.29c0.26-0.29,0-0.38-0.2-0.49C116.34,23.93,115.59,23.65,114.69,23.5z
				"/>
		</g>
		<g>
			<path class="st13" d="M107.81,20.99c0.29,0.07,0.63,0.07,0.87,0.22c0.49,0.29,0.52-0.11,0.66-0.37c0.22-0.4-0.13-0.39-0.34-0.47
				c-1.22-0.46-2.46-0.46-3.7-0.16c-0.19,0.04-0.58-0.03-0.37,0.42c0.13,0.27,0.12,0.65,0.64,0.46
				C106.29,20.85,107.05,20.86,107.81,20.99z"/>
		</g>
		<g>
			<path class="st13" d="M109.14,34.88c-0.06,0.27-0.12,0.47,0.29,0.5c1.33,0.1,2.85-0.82,3.31-2.07c0.07-0.18,0.31-0.46-0.08-0.54
				c-0.24-0.05-0.55-0.31-0.75,0.17c-0.42,1.01-1.27,1.47-2.32,1.52C109.25,34.49,109.14,34.6,109.14,34.88z"/>
		</g>
		<g>
			<path class="st9" d="M105.48,25.32c-0.09,0.62,0.21,1,0.73,1.09c0.52,0.09,0.94-0.17,1.03-0.75c0.09-0.56-0.18-0.95-0.73-1.04
				C105.97,24.53,105.6,24.8,105.48,25.32z"/>
		</g>
		<g>
			<path class="st14" d="M128.17,32.58c-0.06,0.82-0.01,1.63,0.56,2.33c0.51,0.61,1.41,0.81,2.04,0.35c1.35-1,1.71-2.8,0.84-4.23
				c-0.59-0.97-1.85-0.97-2.65-0.08C128.55,31.4,128.32,31.95,128.17,32.58z"/>
		</g>
	</g>
	<g>
		<g>
			<g>
				<path class="st4" d="M145.68,128.72c0.32,0.93-0.28,1.9-1.31,2.12c-13.72,2.91-28.12,2.39-41.72-1.51l-16.84-4.74
					c-1.72-0.48-2.61-2.23-1.91-3.71l2.92-6.16c0.59-1.26,2.13-1.89,3.58-1.47l13.33,3.86c13.16,3.81,22.88,4.26,35.67,1.65
					c1.52-0.31,3.07,0.52,3.54,1.89L145.68,128.72z"/>
			</g>
		</g>
		<g>
			<g>
				<path class="st2" d="M127,99.55c0.05,1.89-1.84,3.3-3.88,2.89l0,0c-7.57-1.53-15.19-2.8-22.86-3.79
					c-1.59-0.21-2.79-1.45-2.83-2.91l-0.72-26.77c-0.03-1.01,0.99-1.77,2.08-1.54l0,0c8.32,1.72,15.86,2.36,24.29,3.44h0
					c1.34,0.17,1.73,1.14,1.76,2.37L127,99.55z"/>
			</g>
			<g>
				<path class="st15" d="M123.78,97.39c0.05,1.86-1.78,3.25-3.75,2.85h0c-7.3-1.49-14.65-2.72-22.04-3.68
					c-1.53-0.2-2.69-1.42-2.73-2.85l-0.64-26.29c-0.02-1,0.96-1.74,2.01-1.52l0,0c8.02,1.68,16.1,3.04,24.23,4.08h0
					c1.29,0.17,2.27,1.19,2.3,2.4L123.78,97.39z"/>
			</g>
			<g>
				<path class="st16" d="M110.41,90.46c-0.41-0.04-0.73-0.39-0.74-0.81l-0.4-16.67c-0.01-0.46,0.35-0.84,0.81-0.85
					c0.46-0.01,0.84,0.35,0.85,0.81l0.4,16.67c0.01,0.46-0.35,0.84-0.81,0.85C110.49,90.47,110.45,90.47,110.41,90.46z"/>
			</g>
			<g>
				<path class="st16" d="M115.83,91.73c-0.41-0.04-0.73-0.39-0.74-0.81l-0.4-16.67c-0.01-0.46,0.35-0.84,0.81-0.85
					c0.46-0.01,0.84,0.35,0.85,0.81l0.4,16.67c0.01,0.46-0.35,0.84-0.81,0.85C115.91,91.73,115.87,91.73,115.83,91.73z"/>
			</g>
			<g>
				
					<ellipse transform="matrix(0.2855 -0.9584 0.9584 0.2855 -8.8199 160.7633)" class="st16" cx="103.41" cy="86.3" rx="2.55" ry="3.25"/>
			</g>
			<g>
				
					<ellipse transform="matrix(0.2855 -0.9584 0.9584 0.2855 1.7652 152.7396)" class="st16" cx="103.32" cy="75.19" rx="2.55" ry="3.25"/>
			</g>
		</g>
	</g>
	<g>
		<g>
			<defs>
				<path id="SVGID_13_" d="M75.93,228.06c0.01,0.09,0.02,0.18,0.04,0.27c0.97,7.3,2.11,14.57,3.42,21.82
					c1.04,5.72,1.91,16.99,1.91,18.15c-0.01,2.36-27.87,22.87-36.04,16.6c-7.53-5.77-3.09-14.41,0.23-17.5
					c3.82-3.55,6.17-4.81,7.42-5.25c0.64-0.22,1.01-0.89,0.87-1.55l-4.89-23.2c-0.43-2.02,0.89-4.01,2.92-4.41L75.93,228.06
					L75.93,228.06z"/>
			</defs>
			<use xlink:href="#SVGID_13_"  style="overflow:visible;"/>
			<clipPath id="SVGID_3_">
				<use xlink:href="#SVGID_13_"  style="overflow:visible;"/>
			</clipPath>
			<g class="st17">
				
					<ellipse transform="matrix(0.8836 -0.4682 0.4682 0.8836 -122.8395 62.7453)" class="st18" cx="64.79" cy="278.45" rx="20.28" ry="3.52"/>
			</g>
		</g>
		<g>
			<defs>
				<path id="SVGID_15_" d="M161.27,211.65c0.07,0.05,0.14,0.11,0.21,0.16c5.87,4.44,11.85,8.74,17.93,12.89
					c4.8,3.28,13.43,10.57,14.26,11.39c1.67,1.67-3.29,35.9-13.5,37.31c-9.39,1.3-12.43-7.92-12.3-12.46
					c0.16-5.22,0.91-7.77,1.48-8.97c0.29-0.61,0.08-1.34-0.49-1.7l-19.95-12.82c-1.74-1.12-2.23-3.44-1.09-5.17L161.27,211.65
					L161.27,211.65z"/>
			</defs>
			<use xlink:href="#SVGID_15_"  style="overflow:visible;fill:#020202;"/>
			<clipPath id="SVGID_4_">
				<use xlink:href="#SVGID_15_"  style="overflow:visible;"/>
			</clipPath>
			<g class="st19">
				
					<ellipse transform="matrix(0.3529 -0.9357 0.9357 0.3529 -116.7617 342.7716)" class="st18" cx="189.42" cy="255.8" rx="19.2" ry="4.37"/>
			</g>
		</g>
	</g>
	<g>
		<g>
			<defs>
				<path id="XMLID_20_" d="M133.41,134.89L133.41,134.89c-4.53-0.55-9.12-0.5-13.64,0.17l-1.18,0.17
					c-1.47,0.03-2.68-1.13-2.71-2.59l-0.28-12.06c-0.03-1.47,1.13-2.68,2.59-2.71l2.52,0.18c3.03,0.21,6.08,0.15,9.1-0.17l3.2-0.35
					c1.47-0.03,2.68,1.13,2.71,2.59l0.28,12.06C136.04,133.64,134.88,134.85,133.41,134.89z"/>
			</defs>
			<use xlink:href="#XMLID_20_"  style="overflow:visible;fill:#E1E1FF;"/>
			<clipPath id="XMLID_2_">
				<use xlink:href="#XMLID_20_"  style="overflow:visible;"/>
			</clipPath>
			<path class="st20" d="M136.78,125.27c0,0-4.24,4.93-9.34,5.78c-4.23,0.7-11.61-0.74-11.61-0.74s-1.05,4.02-1.21,4.05
				c-0.17,0.02,1.46,1.12,1.46,1.12l6.39,0.66l13.43-0.11L136.78,125.27z"/>
			<use xlink:href="#XMLID_20_"  style="overflow:visible;fill:none;stroke:#3D3D7F;stroke-miterlimit:10;"/>
		</g>
		<circle class="st21" cx="130.32" cy="122.81" r="2.76"/>
		<circle class="st15" cx="129.55" cy="121.7" r="0.53"/>
	</g>
</g>
</svg>
