<?xml version="1.0" encoding="utf-8"?>
<!-- Generator: Adobe Illustrator 24.2.1, SVG Export Plug-In . SVG Version: 6.00 Build 0)  -->
<svg version="1.1" id="Capa_1" xmlns="http://www.w3.org/2000/svg" xmlns:xlink="http://www.w3.org/1999/xlink" x="0px" y="0px"
	 viewBox="0 0 800 800" style="enable-background:new 0 0 800 800;" xml:space="preserve">
<style type="text/css">
	.st0{fill:#FFC01C;}
	.st1{fill:#2D1F02;}
</style>
<g>
	<circle class="st0" cx="399.61" cy="399.61" r="400.39"/>
	<path class="st1" d="M626.11,282.26c7.49,10.67,9.17,22.74,5.05,36.21l-77.2,254.34c-3.56,11.98-10.71,22.04-21.48,30.18
		c-10.76,8.14-22.22,12.21-34.39,12.21H238.99c-14.41,0-28.31-5.01-41.69-15.02c-13.38-10.01-22.69-22.32-27.93-36.92
		c-4.49-12.54-4.68-24.42-0.56-35.65c0-0.75,0.28-3.28,0.84-7.58c0.56-4.3,0.94-7.77,1.12-10.39c0.19-1.5-0.09-3.51-0.84-6.04
		c-0.75-2.53-1.03-4.35-0.84-5.47c0.37-2.06,1.12-4.02,2.25-5.9c1.12-1.87,2.67-4.07,4.63-6.6c1.97-2.53,3.51-4.73,4.63-6.6
		c4.3-7.11,8.52-15.67,12.63-25.69c4.12-10.01,6.92-18.57,8.42-25.69c0.56-1.87,0.61-4.68,0.14-8.42s-0.51-6.36-0.14-7.86
		c0.56-2.06,2.15-4.68,4.77-7.86c2.62-3.18,4.21-5.33,4.77-6.46c3.93-6.74,7.86-15.35,11.79-25.83c3.93-10.48,6.27-18.9,7.02-25.27
		c0.19-1.68-0.05-4.68-0.7-8.98c-0.66-4.3-0.61-6.92,0.14-7.86c0.75-2.43,2.81-5.29,6.18-8.56c3.37-3.28,5.43-5.38,6.18-6.32
		c3.56-4.87,7.53-12.77,11.93-23.72s6.97-19.98,7.72-27.09c0.19-1.5-0.09-3.88-0.84-7.16c-0.75-3.28-0.94-5.75-0.56-7.44
		c0.37-1.5,1.22-3.18,2.53-5.05c1.31-1.87,2.99-4.02,5.05-6.46c2.06-2.43,3.65-4.4,4.77-5.9c1.5-2.25,3.04-5.1,4.63-8.56
		c1.59-3.46,2.99-6.74,4.21-9.83c1.22-3.09,2.71-6.46,4.49-10.11s3.6-6.64,5.47-8.98s4.35-4.54,7.44-6.6
		c3.09-2.06,6.46-3.13,10.11-3.23s8.09,0.42,13.33,1.54l-0.28,0.84c7.11-1.68,11.88-2.53,14.32-2.53h213.63
		c13.85,0,24.52,5.24,32,15.72c7.49,10.48,9.17,22.65,5.05,36.49l-76.92,254.34c-6.74,22.27-13.43,36.63-20.07,43.09
		c-6.64,6.46-18.67,9.68-36.07,9.68H209.8c-5.05,0-8.61,1.4-10.67,4.21c-2.06,2.99-2.15,7.02-0.28,12.07
		c4.49,13.1,17.97,19.65,40.42,19.65h259.11c5.43,0,10.67-1.45,15.72-4.35c5.05-2.9,8.33-6.78,9.83-11.65l84.22-277.07
		c1.31-4.12,1.78-9.45,1.4-16C616.66,273,622.18,277.02,626.11,282.26z M327.42,282.83c-0.75,2.43-0.56,4.54,0.56,6.32
		s2.99,2.67,5.61,2.67h170.68c2.43,0,4.82-0.89,7.16-2.67s3.88-3.88,4.63-6.32l5.9-17.97c0.75-2.43,0.56-4.54-0.56-6.32
		c-1.12-1.78-2.99-2.67-5.61-2.67H345.11c-2.43,0-4.82,0.89-7.16,2.67c-2.34,1.78-3.88,3.88-4.63,6.32L327.42,282.83z
		 M304.12,354.69c-0.75,2.43-0.56,4.54,0.56,6.32c1.12,1.78,2.99,2.67,5.61,2.67h170.68c2.43,0,4.82-0.89,7.16-2.67
		s3.88-3.88,4.63-6.32l5.9-17.97c0.75-2.43,0.56-4.54-0.56-6.32c-1.12-1.78-2.99-2.67-5.61-2.67H321.81c-2.43,0-4.82,0.89-7.16,2.67
		c-2.34,1.78-3.88,3.88-4.63,6.32L304.12,354.69z"/>
</g>
</svg>
