<?xml version="1.0" encoding="utf-8"?>
<!-- Generator: Adobe Illustrator 24.2.1, SVG Export Plug-In . SVG Version: 6.00 Build 0)  -->
<svg version="1.1" id="Capa_1" xmlns="http://www.w3.org/2000/svg" xmlns:xlink="http://www.w3.org/1999/xlink" x="0px" y="0px"
	 viewBox="0 0 556 295" style="enable-background:new 0 0 556 295;" xml:space="preserve">
<style type="text/css">
	.st0{fill:#FFC01C;}
	.st1{fill:#F4A300;}
	.st2{fill:#FFC85A;}
	.st3{clip-path:url(#XMLID_2_);fill:#353535;}
	.st4{opacity:0.43;clip-path:url(#XMLID_3_);fill:#7F3E04;}
	.st5{clip-path:url(#XMLID_5_);fill:#FF9105;}
	.st6{opacity:0.22;clip-path:url(#XMLID_5_);fill:#66411C;}
	.st7{clip-path:url(#SVGID_1_);}
	.st8{fill:#5322B2;}
	.st9{fill:#A5A5A5;}
	.st10{fill:#FFFFFF;}
	.st11{clip-path:url(#SVGID_2_);}
	.st12{opacity:0.43;clip-path:url(#XMLID_11_);fill:#7F3E04;}
	.st13{fill:#FAF8FF;}
	.st14{fill:#FFB078;}
	.st15{clip-path:url(#SVGID_3_);}
	.st16{fill:#8D8DFF;}
	.st17{fill:#C08FFF;}
	.st18{fill:#8DE0FF;}
	.st19{fill:#F7B360;}
	.st20{clip-path:url(#SVGID_4_);}
	.st21{fill:#9178FF;}
	.st22{fill:#FFDF94;}
</style>
<g>
	<g>
		<g>
			<path class="st0" d="M222.56,205.34c0,0-46.88,21.05-49.37,86.26c-0.07,1.72,1.43,3.09,3.14,2.87
				c14.28-1.76,71.55-11.45,82.52-54.39L222.56,205.34z"/>
			<path class="st1" d="M228.33,210.87c0,0-33.01,14.82-35.22,60.62c-0.08,1.75,1.43,3.16,3.16,2.92
				c11.58-1.55,50.37-8.94,57.98-38.72L228.33,210.87z"/>
			<path class="st2" d="M232.13,214.51c0,0-22.6,10.15-24.6,41.39c-0.11,1.78,1.45,3.2,3.21,2.94c9.17-1.37,34.42-6.94,39.53-26.96
				L232.13,214.51z"/>
		</g>
		<g>
			<defs>
				<path id="XMLID_24_" d="M262.03,243.14l-40.64-38.91c-2.64-2.53-1.75-6.87,1.63-8.01l5.79-1.95c0.9-0.3,1.91-0.07,2.62,0.6
					l39.56,37.87c0.71,0.68,0.98,1.69,0.71,2.61l-1.74,5.84C268.93,244.6,264.65,245.65,262.03,243.14z"/>
			</defs>
			<use xlink:href="#XMLID_24_"  style="overflow:visible;fill:#565656;"/>
			<clipPath id="XMLID_2_">
				<use xlink:href="#XMLID_24_"  style="overflow:visible;"/>
			</clipPath>
			<path class="st3" d="M219.62,192.75L219.62,192.75c16.03,19.17,34.11,36.54,53.91,51.8l0.98,0.76l-13.17,2.34l-45.94-46.29
				L219.62,192.75z"/>
		</g>
	</g>
	<g>
		<g>
			<defs>
				<path id="XMLID_23_" d="M378.1,167.32c0,0,15.32,49.27-18.53,73.2c-16.05,11.35-29.05,15.82-35.38,19.58
					c-2.22,1.31-4.87-0.85-4.03-3.28l2.45-7.15c12.6-21.54,17.7-57.48,17.7-57.48L378.1,167.32z"/>
			</defs>
			<use xlink:href="#XMLID_23_"  style="overflow:visible;fill:#CE6802;"/>
			<clipPath id="XMLID_3_">
				<use xlink:href="#XMLID_23_"  style="overflow:visible;"/>
			</clipPath>
			<path class="st4" d="M392.04,159.54c0,0-16.62,54.8-64.95,63.9l9.91-36.79l25.37-26.29L392.04,159.54z"/>
		</g>
		<g>
			<defs>
				<path id="XMLID_10_" d="M293.1,85.93c0,0-49.88-13.16-72.33,21.69c-10.64,16.53-14.54,29.71-18.02,36.2
					c-1.22,2.27,1.06,4.82,3.46,3.88l7.04-2.76c20.97-13.53,56.66-20.18,56.66-20.18L293.1,85.93z"/>
			</defs>
			<use xlink:href="#XMLID_10_"  style="overflow:visible;fill:#CE6802;"/>
			<clipPath id="XMLID_4_">
				<use xlink:href="#XMLID_10_"  style="overflow:visible;"/>
			</clipPath>
		</g>
	</g>
	<g>
		<defs>
			<path id="XMLID_9_" d="M231.24,194.69c-0.88-0.85-1.23-2.11-0.9-3.29c28.04-99.19,108.9-172.06,211.3-190.24l4.41-0.78
				c5.09-0.9,9.59,3.4,8.91,8.52l-0.85,6.41c-13.48,102.12-82.08,186.19-178.61,219.26c-1.17,0.4-2.46,0.11-3.36-0.74L231.24,194.69
				z"/>
		</defs>
		<use xlink:href="#XMLID_9_"  style="overflow:visible;fill:#E9DEFF;"/>
		<clipPath id="XMLID_5_">
			<use xlink:href="#XMLID_9_"  style="overflow:visible;"/>
		</clipPath>
		<path class="st5" d="M347.22,24.02c0,0,80.88-8.22,91.39,83.48L459.72-2.21l-44.24-8.44L347.22,24.02z"/>
		<path class="st5" d="M238.46,155.03l1.15,1.61c19.24,26.95,43.55,50.06,71.44,67.89l0,0l-35.73,13.91l-21.14-15.47l-23.22-23.53
			l-2.87-13.58L238.46,155.03z"/>
		<path class="st6" d="M459.52-6.21c0,0-44.89,96.72-94.08,144.49s-96.1,78.16-115.63,85.34c-19.52,7.18,34.89,24.21,34.89,24.21
			l118.81-87.46l57.05-118.43L459.52-6.21z"/>
	</g>
	<g>
		<g>
			<g>
				<defs>
					<circle id="SVGID_5_" cx="371.52" cy="87.53" r="19.74"/>
				</defs>
				<use xlink:href="#SVGID_5_"  style="overflow:visible;fill:#7A3BDF;"/>
				<clipPath id="SVGID_1_">
					<use xlink:href="#SVGID_5_"  style="overflow:visible;"/>
				</clipPath>
				<g class="st7">
					<path class="st8" d="M395.74,73.67c0,0-21.74,43.58-54.36,12.34l12.71,17.03l20.6,8.79l19.68-15.17l0.22-14.37L395.74,73.67z"
						/>
				</g>
			</g>
			<g>
				<path class="st9" d="M354,105.83c-10.09-9.66-10.44-25.73-0.78-35.81s25.73-10.44,35.81-0.78s10.44,25.73,0.78,35.81
					S364.09,115.49,354,105.83z M386.16,72.23c-8.43-8.08-21.87-7.78-29.94,0.65c-8.08,8.43-7.78,21.87,0.65,29.94
					c8.43,8.08,21.87,7.78,29.94-0.65C394.89,93.74,394.6,80.31,386.16,72.23z"/>
			</g>
		</g>
		<g>
			<path class="st10" d="M361.02,79.67c-0.44-0.42-0.52-1.12-0.15-1.63c0.17-0.23,4.25-5.72,12.5-5.45c0.69,0.02,1.23,0.6,1.2,1.29
				c-0.02,0.69-0.6,1.23-1.29,1.2c-6.89-0.23-10.26,4.23-10.4,4.42c-0.41,0.55-1.19,0.67-1.74,0.27
				C361.1,79.74,361.06,79.71,361.02,79.67z"/>
		</g>
		<g>
			<circle class="st10" cx="377.99" cy="74.47" r="1.45"/>
		</g>
		<g>
			<g>
				<defs>
					<circle id="SVGID_7_" cx="330.28" cy="129.4" r="15.05"/>
				</defs>
				<use xlink:href="#SVGID_7_"  style="overflow:visible;fill:#7A3BDF;"/>
				<clipPath id="SVGID_2_">
					<use xlink:href="#SVGID_7_"  style="overflow:visible;"/>
				</clipPath>
				<g class="st11">
					<path class="st8" d="M344.83,113.88c0,0-6.09,36.62-36.85,21.16l13.07,9.56l16.98,1.79l10.95-15.46l-3.06-10.52L344.83,113.88z
						"/>
				</g>
			</g>
			<g>
				<path class="st9" d="M321.61,146.65c-9.51-4.78-13.36-16.41-8.58-25.92s16.41-13.36,25.92-8.58s13.36,16.41,8.58,25.92
					C342.75,147.58,331.12,151.43,321.61,146.65z M337.53,114.97c-7.95-4-17.68-0.78-21.67,7.18s-0.78,17.68,7.18,21.67
					c7.95,4,17.68,0.78,21.67-7.18C348.7,128.69,345.48,118.97,337.53,114.97z"/>
			</g>
		</g>
		<g>
			<path class="st10" d="M320.87,126.02c-0.42-0.21-0.63-0.7-0.47-1.15c0.07-0.21,1.81-5.12,7.89-6.77
				c0.51-0.14,1.03,0.16,1.17,0.67c0.14,0.51-0.16,1.03-0.67,1.17c-5.07,1.38-6.53,5.38-6.59,5.55c-0.17,0.49-0.71,0.76-1.21,0.58
				C320.95,126.06,320.91,126.04,320.87,126.02z"/>
		</g>
		<g>
			<circle class="st10" cx="332.07" cy="118.43" r="1.11"/>
		</g>
	</g>
	<g>
		<defs>
			<path id="XMLID_6_" d="M314.33,148.84l-0.17-0.16c-42.17,10.9-73.98,44.12-83.03,86.72l0.17,0.16
				C273.47,224.66,305.27,191.44,314.33,148.84z"/>
		</defs>
		<use xlink:href="#XMLID_6_"  style="overflow:visible;fill:#CE6802;"/>
		<clipPath id="XMLID_11_">
			<use xlink:href="#XMLID_6_"  style="overflow:visible;"/>
		</clipPath>
		<path class="st12" d="M323.2,134.41c0,0-31.12,54.72-98.17,104.93c-6.09,3.66,53.13-14.96,66.85-32.29
			c13.72-17.33,26.2-51.38,26.2-51.38L323.2,134.41z"/>
	</g>
	<path class="st13" d="M299.87,104.85c0.17-0.51,0.36-1.01,0.56-1.49l0.6-1.46c0.43-0.95,0.87-1.9,1.32-2.83
		c0.44-0.94,0.93-1.85,1.4-2.77c0.49-0.9,1.01-1.79,1.51-2.68c1.02-1.78,2.13-3.48,3.24-5.19c0.54-0.87,1.15-1.67,1.73-2.5
		c0.59-0.82,1.17-1.66,1.78-2.46c4.86-6.46,10.34-12.39,16.36-17.79l4.61-3.94c0.79-0.63,1.61-1.24,2.42-1.86
		c0.81-0.62,1.61-1.24,2.44-1.83c0.83-0.59,1.63-1.21,2.48-1.78c0.84-0.58,1.72-1.12,2.58-1.67c1.73-1.1,3.44-2.22,5.27-3.2
		c0.9-0.51,1.83-0.97,2.75-1.46c0.92-0.48,1.84-0.96,2.77-1.42c0.92-0.47,1.88-0.9,2.86-1.3l2.93-1.2c0.99-0.38,1.97-0.77,2.96-1.14
		c0.49-0.19,1.01-0.35,1.52-0.51c0.51-0.16,1.04-0.3,1.56-0.45l3.13-0.86c1.07-0.24,2.11-0.53,3.2-0.73l0.06-0.01
		c0.15-0.03,0.34,0.08,0.41,0.25c0.06,0.14,0.03,0.27-0.07,0.33l-5.3,2.96l-1.32,0.74c-0.44,0.24-0.89,0.49-1.3,0.77l-2.54,1.62
		l-2.56,1.6c-0.86,0.53-1.71,1.06-2.52,1.64l-4.93,3.43c-0.83,0.56-1.62,1.17-2.41,1.78l-2.38,1.82l-2.38,1.82
		c-0.79,0.6-1.54,1.26-2.32,1.89l-4.6,3.81l-4.47,3.96c-5.94,5.29-11.65,10.82-17.12,16.59c-1.35,1.46-2.72,2.89-4.05,4.37
		c-1.32,1.49-2.67,2.94-3.96,4.46c-2.64,2.97-5.21,6.01-7.68,9.13c-0.09,0.11-0.28,0.1-0.42-0.02c-0.12-0.1-0.17-0.25-0.13-0.37
		L299.87,104.85z"/>
</g>
<g>
	<path class="st14" d="M126.9,136.48c0.12,0.63,0.22,1.27,0.31,1.9c0.59,4.1,0.65,8.16,0.22,12.1
		c-2.24,20.87-17.91,38.68-39.62,42.67c-21.44,3.94-42.19-6.83-51.85-25.15c-1.36-2.57-2.5-5.3-3.39-8.15
		c-0.59-1.88-1.07-3.8-1.43-5.78c-0.61-3.31-0.86-6.59-0.8-9.82l0-0.01c0.03-1.79,0.17-3.56,0.4-5.3
		c2.67-20.38,18.17-37.62,39.47-41.53c21.57-3.96,42.42,6.95,52.02,25.45c1.3,2.52,2.4,5.17,3.26,7.96
		C126.08,132.65,126.55,134.54,126.9,136.48z"/>
	<g>
		<defs>
			
				<ellipse id="SVGID_6_" transform="matrix(0.9835 -0.1806 0.1806 0.9835 -24.9435 16.6659)" cx="79.03" cy="145.28" rx="48.67" ry="48.67"/>
		</defs>
		<clipPath id="SVGID_3_">
			<use xlink:href="#SVGID_6_"  style="overflow:visible;"/>
		</clipPath>
		<g class="st15">
			<path class="st16" d="M28.41,153.41c-0.54-8.72,12.2-9.31,17.86-11.88c7.32-3.33,8.46-9.49,11.94-15.89
				c3.52-6.49,13.15-5.15,18.27-10.12c2.68-2.6,4.1-6.14,5.39-9.57c1.31-3.46,3-8.52,7.44-8.59c4.77-0.07,5.37-6.52,0.65-7.38
				c-10.03-1.82-13.37,9.75-16.54,16.62c-2.24,4.86-6.3,5.69-11.02,7.18c-3.99,1.26-7.51,3.17-9.84,6.75
				c-2.08,3.19-2.78,7.03-4.74,10.25c-2.56,4.2-7.56,5.26-11.77,7.11c-6.04,2.67-13.67,8.78-11.42,16.23
				C25.35,156.49,28.57,155.89,28.41,153.41L28.41,153.41z"/>
		</g>
		<g class="st15">
			<path class="st16" d="M34.09,168.61c1.18-9.42,14.11-10.85,20.79-14.59c3.88-2.17,6.66-5.09,8.58-9.1
				c2.16-4.51,3.54-8.07,8.41-10.19c7.99-3.48,15.84-4.22,20.42-12.61c2.07-3.79,3.34-8.22,6.42-11.38
				c3.56-3.65,8.72-5.38,13.39-7.09c4.33-1.59,1.19-8.33-3.16-6.54c-4.83,1.99-9.8,4.14-13.74,7.68c-3.49,3.15-5.42,7.15-7.35,11.34
				c-2.23,4.84-4.81,7.73-9.87,9.61c-4.38,1.62-9.14,2.49-12.93,5.39c-3.8,2.91-5.11,7.03-6.98,11.22c-2.4,5.37-7.13,7.4-12.29,9.51
				c-7.26,2.96-15.61,7.83-14.62,16.89C31.33,170.47,33.88,170.21,34.09,168.61L34.09,168.61z"/>
		</g>
		<g class="st15">
			<path class="st17" d="M32.02,167.18c1.18-9.42,14.11-10.85,20.79-14.59c3.88-2.17,6.66-5.09,8.58-9.1
				c2.16-4.51,3.54-8.07,8.4-10.19c7.99-3.48,15.84-4.22,20.42-12.61c2.07-3.79,3.34-8.22,6.42-11.38
				c3.56-3.65,8.72-5.38,13.39-7.09c4.33-1.59,1.19-8.33-3.16-6.54c-4.83,1.99-9.8,4.14-13.74,7.68c-3.49,3.15-5.42,7.15-7.35,11.34
				c-2.23,4.84-4.81,7.73-9.87,9.61c-4.38,1.62-9.14,2.49-12.93,5.39c-3.8,2.91-5.11,7.03-6.98,11.22c-2.4,5.37-7.13,7.4-12.29,9.51
				c-7.26,2.96-15.61,7.83-14.62,16.89C29.26,169.04,31.81,168.78,32.02,167.18L32.02,167.18z"/>
		</g>
		<g class="st15">
			<path class="st16" d="M66.32,95.76c0.21,6.54-4.97,8.78-10.34,10.66c-4.66,1.63-9.13,3.31-11.98,7.6
				c-2.8,4.22-3.46,9.68-8.45,12.07c-4.14,1.97-9.79,0.87-13.36,3.6c-1.61,1.23-0.77,3.45,0.77,4.19
				c4.25,2.05,11.67-0.94,15.37-3.34c5.31-3.44,6.28-8.87,9.83-13.66c4.03-5.45,11.87-5.59,17.21-9.2
				c4.17-2.81,7.01-7.73,5.02-12.67C69.62,93.13,66.25,93.63,66.32,95.76L66.32,95.76z"/>
		</g>
		<g class="st15">
			<path class="st17" d="M63.5,93.81c0.21,6.54-4.97,8.78-10.34,10.66c-4.66,1.63-9.13,3.31-11.98,7.6
				c-2.8,4.22-3.46,9.68-8.45,12.07c-4.14,1.97-9.79,0.87-13.36,3.6c-1.61,1.23-0.77,3.45,0.77,4.19
				c4.25,2.05,11.67-0.94,15.37-3.34c5.31-3.44,6.28-8.87,9.83-13.66c4.03-5.45,11.87-5.59,17.21-9.2
				c4.17-2.81,7.01-7.73,5.02-12.67C66.8,91.18,63.43,91.69,63.5,93.81L63.5,93.81z"/>
		</g>
		<g class="st15">
			<path class="st16" d="M38.85,180.1c2.69-4.6,6.21-7.47,11.03-9.69c4.14-1.9,8.57-3.23,12.37-5.81c4.48-3.03,6.07-7.01,8.61-11.55
				c2.31-4.13,6.17-6.34,10.41-8.14c7.18-3.03,15.52-4.93,20.24-11.72c2.98-4.28,3.54-9.39,7.81-12.82
				c4.7-3.77,10.3-6.33,15.05-10.05c1.76-1.38-0.18-4.41-2.17-3.31c-5,2.77-9.92,6.18-14.48,9.62c-4.55,3.43-5.58,7.72-8.29,12.45
				c-4.63,8.09-15.59,9.34-23.17,13.43c-3.49,1.88-6.65,4.33-8.72,7.76c-1.47,2.44-2.3,5.26-4.1,7.49
				c-1.89,2.36-4.57,3.99-7.21,5.39c-6.93,3.69-18.19,7.04-19.23,16.27C36.89,180.41,38.33,180.99,38.85,180.1L38.85,180.1z"/>
		</g>
		<g class="st15">
			<path class="st16" d="M52.91,191.11c1.39-4.54,3.77-8.34,7.58-11.22c3.45-2.61,7.34-3.74,11.3-5.31c4-1.59,7.16-4.03,9.78-7.43
				c2.53-3.28,4.34-7.03,8.24-8.91c3.87-1.87,8.3-2.27,12.15-4.21c3.46-1.75,6.15-4.51,8.45-7.58c2.47-3.3,4.49-6.99,7.48-9.87
				c3.61-3.47,8.13-5.31,13.06-5.9c5.08-0.61,3.66-8.66-1.44-7.85c-10.08,1.6-16.82,7.61-22.28,15.85
				c-2.54,3.83-5.09,7.64-9.45,9.52c-4.43,1.91-9.31,2.32-13.4,5.05c-3.61,2.41-5.74,6.05-8.27,9.45c-3.1,4.17-7.44,5.49-11.97,7.61
				c-8.06,3.78-13.45,11.21-14.67,20.04C49.19,192.33,52.32,193.04,52.91,191.11L52.91,191.11z"/>
		</g>
		<g class="st15">
			<path class="st17" d="M50.84,189.68c1.39-4.54,3.77-8.34,7.58-11.22c3.45-2.61,7.34-3.74,11.3-5.31c4-1.59,7.16-4.03,9.78-7.43
				c2.53-3.28,4.34-7.03,8.24-8.91c3.87-1.87,8.3-2.27,12.15-4.21c3.46-1.75,6.15-4.51,8.45-7.58c2.47-3.3,4.49-6.99,7.48-9.87
				c3.61-3.47,8.13-5.31,13.06-5.9c5.08-0.61,3.66-8.66-1.44-7.85c-10.08,1.6-16.82,7.61-22.28,15.85
				c-2.54,3.83-5.09,7.64-9.45,9.52c-4.43,1.91-9.31,2.32-13.4,5.05c-3.61,2.41-5.74,6.05-8.27,9.45c-3.1,4.17-7.44,5.49-11.97,7.61
				c-8.06,3.78-13.45,11.21-14.67,20.04C47.12,190.91,50.25,191.61,50.84,189.68L50.84,189.68z"/>
		</g>
		<g class="st15">
			<path class="st16" d="M64.49,193.37c1.6-7.6,9.53-10.59,15.35-14.34c5.88-3.8,9.99-10.06,16.86-12.24
				c6.24-1.98,12.47-2.46,17.27-7.42c4.95-5.11,7.52-13.29,15.64-13.95c1.6-0.13,1.44-2.71-0.13-2.8c-7.22-0.43-11.86,5.51-16,10.58
				c-3.15,3.87-6.08,6.4-10.97,7.78c-3.65,1.03-7.48,1.66-10.85,3.5c-3.12,1.7-5.48,4.3-7.91,6.83c-3.08,3.21-6.51,5.48-10.3,7.76
				c-5.44,3.27-10.83,7.27-11.19,14.12C62.17,194.66,64.2,194.76,64.49,193.37L64.49,193.37z"/>
		</g>
		<g class="st15">
			<path class="st16" d="M77.09,199.21c3.58-5.81,6.66-10.12,13.2-12.84c5.81-2.41,11.51-4.03,15.89-8.83
				c2.31-2.53,4.23-5.37,7.47-6.78c2.9-1.26,6.17-1.44,9.21-2.19c3.87-0.95,12.43-3.8,10.84-9.24c-0.41-1.4-1.42-2.08-2.87-1.98
				c-2.66,0.18-4.41,2.88-6.9,3.85c-3.16,1.22-6.63,1.43-9.88,2.34c-3.09,0.86-5.89,2.16-8.28,4.33c-2.39,2.17-4.14,4.97-6.67,6.99
				c-5.15,4.11-12.07,4.76-17.12,9.25c-3.92,3.49-7.6,8.56-8.33,13.86C73.4,199.82,76.11,200.8,77.09,199.21L77.09,199.21z"/>
		</g>
		<g class="st15">
			<path class="st17" d="M80.29,201.42c3.58-5.81,6.66-10.12,13.2-12.84c5.81-2.41,11.51-4.03,15.89-8.83
				c2.31-2.53,4.23-5.37,7.47-6.78c2.9-1.26,6.17-1.44,9.21-2.19c3.88-0.95,12.43-3.8,10.84-9.24c-0.41-1.4-1.42-2.08-2.87-1.98
				c-2.66,0.18-4.41,2.88-6.9,3.84c-3.16,1.22-6.63,1.43-9.88,2.34c-3.09,0.86-5.89,2.16-8.28,4.33c-2.39,2.17-4.14,4.97-6.67,6.99
				c-5.15,4.11-12.07,4.76-17.12,9.25c-3.92,3.49-7.6,8.56-8.33,13.86C76.6,202.03,79.31,203.01,80.29,201.42L80.29,201.42z"/>
		</g>
	</g>
	<path class="st18" d="M122.25,122.86c1.3,2.52,2.4,5.17,3.26,7.96c1.44,1.04,2.34,2.26,2.59,3.63c0.23,1.26-0.09,2.57-0.88,3.93
		c-4.46,7.55-24.04,16.13-48.42,20.61c-19.1,3.51-36.34,3.61-46.21,0.86c-4.98-1.38-8.08-3.51-8.59-6.28
		c-0.53-2.89,1.83-6.13,6.37-9.33l0-0.01c0.03-1.79,0.17-3.56,0.4-5.3c-19.02,6.81-30.85,14.48-29.75,20.49
		c1.1,6,14.83,8.96,34.96,8.58c12.76-0.23,28.1-1.81,44.41-4.81c18.09-3.32,34.44-7.84,47.05-12.7
		c16.68-6.43,26.82-13.44,25.8-19.02C152.2,125.88,140.19,122.93,122.25,122.86z"/>
</g>
<g>
	
		<ellipse transform="matrix(0.7071 -0.7071 0.7071 0.7071 73.5334 398.3896)" class="st19" cx="517.67" cy="110.43" rx="38.08" ry="38.08"/>
	<g>
		<defs>
			
				<ellipse id="SVGID_8_" transform="matrix(0.7071 -0.7071 0.7071 0.7071 73.5334 398.3896)" cx="517.67" cy="110.43" rx="38.08" ry="38.08"/>
		</defs>
		<use xlink:href="#SVGID_8_"  style="overflow:visible;fill:#8DE0FF;"/>
		<clipPath id="SVGID_4_">
			<use xlink:href="#SVGID_8_"  style="overflow:visible;"/>
		</clipPath>
		<g class="st20">
			<path class="st21" d="M509.95,139.12c1.89-1.33,3.83-2.65,4.55-4.95c1.32-4.2-2.52-7.14-6.42-6.95c-2.14,0.1-4.14,1-6.03,1.93
				c-0.75,0.37-2.17,1.29-3.55,1.9c1.08-1.08,2.42-2.2,2.71-2.43c1.8-1.4,3.76-2.57,5.72-3.74c3.18-1.89,8.55-4.34,7.98-8.91
				c-0.57-4.67-6.62-5.42-10.32-4.79c-3.48,0.59-6.6,2.22-9.84,3.52c0.19-0.39,0.36-0.73,0.49-0.94c1.38-2.22,3.39-4.6,4.01-7.18
				c1.2-5-3.43-7.71-7.83-7.02c-9.67,1.52-17.35,8.4-23.82,15.17c-1.13,1.18,0.68,3.19,1.95,2.12c2.84-2.4,6.24-4.32,9.7-5.91
				c-1.19,1.8-2.07,3.74-2.56,5.63c-1.43,5.54-0.26,14.76,5.9,17.13c0.4,0.15,0.82,0.24,1.23,0.27c-0.12,0.45-0.22,0.89-0.31,1.35
				c-0.91,4.93,2.8,7.63,6.96,8.13c-1.82,1-3.62,2.03-5.36,3.14c-3.33,2.14-0.41,7.89,3.28,6.2c5.09-2.33,9.83-5.72,14.48-8.81
				C505.27,142.39,507.61,140.76,509.95,139.12z"/>
			<path class="st21" d="M530.05,121.3c-1.05-0.14-6.67,1.42-7.02,0.65c-0.53-1.16,4.37-4.18,5.25-4.86
				c2.14-1.65,4.21-3.56,5.27-6.1c1.71-4.08,0.1-8.5-3.45-10.96c-4.56-3.15-10.3-2.07-15.42-1.35c-1.57,0.22-8.44,2.12-9.35,0.45
				c-0.76-1.4,1.32-4.87,1.38-6.51c0.23-6.24-7.25-6.1-11.66-5.84c-6.55,0.38-13.09,1.96-19.17,4.42c-2.36,0.95-1.03,4.56,1.39,3.71
				c5.09-1.79,10.31-3.06,15.69-3.58c2.35-0.23,5.32-0.79,7.65-0.35c3.48,0.66,1.92,3.21,1.33,5.58c-0.81,3.24,0.05,6.96,3.88,7.45
				c2.29,0.3,4.84-0.37,7.1-0.67c2.76-0.36,5.54-0.87,8.32-0.98c5.34-0.21,10.9,3.14,6.28,8.52c-2.85,3.31-8.03,5.13-9.45,9.57
				c-1.18,3.67,2.12,6.29,5.51,6.42c1.87,0.07,4.23-1.31,5.98-0.74c2.34,0.76,1.33,4.03,0.25,5.46c-1.86,2.47-4.74,4.13-7.23,5.87
				c-2.53,1.77-5.09,3.5-7.6,5.31c-2.51,1.8-4.97,3.67-7.45,5.51c-2.46,1.82-5.15,3.56-7.02,6.02c-1.14,1.5,0.28,3.74,2.15,3.05
				c2.74-1.01,5.03-2.88,7.36-4.61c2.77-2.06,5.58-4.08,8.32-6.18c4.53-3.49,9.48-6.86,13.67-10.74c3.24-3,5.22-7.78,2.46-11.81
				C533.45,122.53,531.85,121.54,530.05,121.3z"/>
			<path class="st21" d="M501.69,83.79c3.44,2.12,7.59-0.22,11.21-0.55c2.11-0.19,2.44,0,1.38,1.72c-0.73,1.2-1.6,2.28-2.07,3.62
				c-1.1,3.05,0.15,6.26,3.18,7.59c3.74,1.65,7.18-0.57,10.41-2.28c3.87-2.05,7.91-3.73,11.91-5.49c4.27-1.88,8.82-3.26,12.91-5.48
				c2.94-1.59,0.94-6.74-2.28-6.13c-0.37,0.07-0.73,0.15-1.1,0.23c0.09-0.72,0.01-1.49-0.29-2.28c-1.01-2.68-3.93-3.83-6.56-2.99
				c-1.68,0.54-3.35,1.32-5,2.2c-0.67-1.19-1.83-2.15-3.42-2.56c-3.78-0.99-7.74-1.03-11.62-0.68c-1.35,0.12-2.7,0.3-4.05,0.47
				c-0.8-2.55-3.87-4.39-7.04-2.63c-2.36,1.31-4.79,2.72-6.62,4.69c-1.31,0.85-2.39,1.96-2.98,3.52
				C498.73,79.3,499.31,82.32,501.69,83.79z"/>
			<path class="st21" d="M563,131.37c-3.54,1.14-6.92,2.68-10.31,4.22c2.18-6.23,4.45-12.34,5.42-18.95
				c0.5-3.37,0.73-6.82,0.88-10.22c0.18-4.08,0.36-7.66-3.1-10c0.21-0.19,0.42-0.39,0.63-0.6c2.23-2.29-0.25-5.45-2.87-5.45
				c-0.03,0-0.07,0-0.1,0c-0.35-0.43-0.93-0.69-1.61-0.51c-4,1.05-7.85,2.49-11.47,4.49c-2.59,1.43-5.83,3.52-5.87,6.86
				c-0.04,3.38,3.07,4.61,5.89,5.09c0.42,0.07,2.02,0.11,2.23,0.58c0.31,0.69-0.58,1.11-1.07,1.59c-1.77,1.69-3.66,3.23-5.43,4.91
				c-2.06,1.96-3.13,5.14-0.73,7.32c2.41,2.19,5.07,0.71,7.78,1.37c0.09,0.02,0.18,0.04,0.25,0.07c-0.02,0.61-0.04,1.19-0.05,1.55
				c0,0,0,0,0,0c-0.46,0.98-0.9,1.97-1.35,2.95c-0.98,2.13-1.94,4.27-2.83,6.44c-1.28,3.1-2.82,6.84-0.12,9.67
				c2.83,2.97,7.25,1.64,10.52,0.3c5.11-2.09,10.4-3.87,15.29-6.45C568.07,134.98,566.53,130.24,563,131.37z M548.09,97.9
				c0.03,0.07,0.05,0.14,0.08,0.21C547.75,97.89,547.71,97.82,548.09,97.9z M538.93,100.61c0.02,0.23,0.06,0.47,0.1,0.71
				C538.89,101.07,538.87,100.84,538.93,100.61z"/>
			<g>
				<path class="st22" d="M478.35,96.33c4.55-0.28,9.02-2.36,13.52-3.11c2.15-0.36,5.1-1.07,7.25-0.64c2.6,0.52,1.07,3.53,0.66,5.37
					c-0.75,3.35,0.25,6.35,3.63,7.63c3.66,1.39,7.56-0.37,11.2-0.93c2.39-0.37,4.82-0.51,7.24-0.38c2.59,0.14,7.61,0.29,5.33,4.05
					c-1.09,1.8-3.32,3.23-4.75,4.77c-1.46,1.57-2.82,3.26-3.97,5.07c-1.66,2.61-2.68,6.26-0.33,8.82c0.87,0.95,2.05,1.41,3.31,1.54
					c1.63,0.17,5.78-1.26,7.02,0.37c2.05,2.71-9.21,10.14-11.15,11.57c-4.6,3.4-9.15,6.81-14.27,9.4c-1.38,0.7-0.3,2.73,0.99,1.88
					c4.4-2.92,9-5.59,13.26-8.72c4.2-3.08,8.25-6.46,12.14-9.91c2.19-1.93,2.82-5.06-0.14-6.7c-1.36-0.75-2.95-0.8-4.45-0.65
					c-1.88,0.19-4.37,0.85-5.33-1.43c-0.8-1.89,0.47-3.97,1.51-5.5c1.35-1.98,2.96-3.82,4.69-5.49c1.63-1.57,3.7-2.97,4.45-5.22
					c1.26-3.76-1.6-5.62-4.87-6.08c-4.91-0.69-9.81-0.27-14.61,0.86c-2.71,0.64-6.54,1.69-8.22-1.26c-1.43-2.5,0.76-5.6,0.59-8.35
					c-0.26-4.16-6.25-3.13-8.96-2.8c-5.18,0.64-11.8,1.81-16.09,4.94C477.62,95.74,477.86,96.36,478.35,96.33L478.35,96.33z"/>
			</g>
			<g>
				<path class="st22" d="M509.2,71.46c-2.74,2.03-8.26,7.36-2.31,8.86c3.59,0.91,7.94-0.81,11.53-1.26
					c1.4-0.18,3.55-0.82,2.99,2.13c-0.14,0.75-1.04,1.65-1.45,2.28c-0.81,1.24-1.48,2.52-1.94,3.94c-0.52,1.61-0.8,3.98,1.48,4.32
					c1.13,0.17,2.24-0.62,3.17-1.13c1.87-1.02,3.8-1.93,5.74-2.82c7.31-3.34,14.88-6.15,22.62-8.31c1.35-0.38,0.59-2.46-0.77-2.05
					c-6.23,1.87-12.37,3.98-18.37,6.52c-3.15,1.33-6.23,2.83-9.33,4.28c-0.33,0.15-1.53,0.94-1.86,0.86
					c-1.12-0.27-0.33-1.26-0.01-2.02c0.61-1.45,1.57-2.63,2.36-3.97c2.35-4.01-0.02-7.03-4.48-6.59c-3.35,0.32-6.63,1.24-9.97,1.56
					c-2.31,0.22-2.42-0.41-1.18-2.15c0.84-1.18,1.81-2.26,2.82-3.29C510.87,71.96,509.9,70.94,509.2,71.46L509.2,71.46z"/>
			</g>
			<g>
				<path class="st22" d="M557.62,92.59c-4.38,0.7-8.5,2.2-12.5,4.09c-1.79,0.85-4.65,1.82-3.62,4.36c0.45,1.09,1.45,1.63,2.49,2.01
					c1.68,0.61,3.19,0.57,4.34,2.15c1.32,1.81,0.91,3.53-0.92,4.82c-2.03,1.43-7.29,2.66-7.45,5.67c-0.05,0.92,0.45,1.68,1.16,2.2
					c2.01,1.49,4.76-0.35,5.97,2.62c1.7,4.16-3.75,8.24-4.79,12.01c-1.78,6.47,4.42,11.9,10.6,9.72c1.2-0.42,0.51-2.19-0.68-1.83
					c-4.92,1.47-9.54-2.95-7.6-7.94c1.13-2.9,3.59-5.08,4.53-8.09c0.68-2.19,0.51-4.7-1.1-6.46c-1.07-1.16-1.95-1.09-3.28-1.56
					c-3.45-1.21,0.06-2.44,1.49-3.22c2.12-1.15,4.52-2.21,5.09-4.8c0.5-2.3-0.68-4.57-2.58-5.85c-1.14-0.77-2.25-0.85-3.5-1.3
					c-1.59-0.58-2.65-1.65-0.51-2.65c0.75-0.35,1.53-0.66,2.3-0.97c3.55-1.42,7.23-2.54,10.86-3.74
					C558.6,93.61,558.35,92.47,557.62,92.59L557.62,92.59z"/>
			</g>
			<g>
				<path class="st22" d="M473.45,113.22c3.81-2.63,7.95-4.46,12.32-5.95c0.67-0.23,5.6-2.17,6-1.18c0.11,0.27-1.97,3.05-2.23,3.54
					c-1.15,2.1-2.29,4.21-3.43,6.31c-0.63,1.16-1.58,2.41-1.14,3.78c0.78,2.45,4.04,1.96,5.93,1.5c3.79-0.92,7.36-2.99,11.3-3.23
					c1.07-0.06,2.09-0.67,1.2,0.49c-0.34,0.45-0.97,0.79-1.42,1.13c-0.86,0.66-1.76,1.28-2.61,1.95c-1.89,1.46-3.79,2.97-5.57,4.56
					c-2.08,1.85-3.89,4.3-3.3,7.23c0.56,2.76,2.94,4.06,5.64,3.56c1.04-0.19,2-0.64,3-0.97c0.78-0.26,3.32-1.34,4.1-0.91
					c1.66,0.9-0.7,2.45-1.41,2.99c-1.15,0.88-2.31,1.74-3.47,2.61c-4.49,3.35-8.93,6.78-13.35,10.23c-1.04,0.81,0.11,2.47,1.19,1.68
					c4.38-3.19,8.76-6.39,13.08-9.68c2.28-1.74,7.9-4.52,7.33-8.17c-0.53-3.42-5.76-1.62-7.81-0.94c-1.07,0.36-2.62,1.26-3.78,1.17
					c-3.31-0.25-2.78-3.59-1.56-5.32c1.56-2.22,4.28-3.83,6.37-5.52c1.39-1.13,7.7-4.91,5.97-7.43c-1.52-2.21-6.57-0.55-8.5,0.06
					c-2.01,0.63-3.95,1.46-5.98,2.03c-0.68,0.19-2.89,1.04-3.53,0.54c-1.05-0.83,1.03-3.5,1.48-4.31c1.08-1.99,2.11-4.03,3.31-5.94
					c0.55-0.88,1.53-1.99,1.44-3.1c-0.55-6.34-19.32,4.23-21.62,5.79C471.43,112.4,472.48,113.89,473.45,113.22L473.45,113.22z"/>
			</g>
		</g>
	</g>
</g>
</svg>
