<?xml version="1.0" encoding="utf-8"?>
<!-- Generator: Adobe Illustrator 24.2.1, SVG Export Plug-In . SVG Version: 6.00 Build 0)  -->
<svg version="1.1" id="Capa_1" xmlns="http://www.w3.org/2000/svg" xmlns:xlink="http://www.w3.org/1999/xlink" x="0px" y="0px"
	 viewBox="0 0 800 800" style="enable-background:new 0 0 800 800;" xml:space="preserve">
<style type="text/css">
	.st0{fill:#7A3BDF;}
	.st1{fill:#DBCCFF;}
</style>
<g>
	<circle class="st0" cx="399.61" cy="399.61" r="400.39"/>
	<g>
		<g>
			<g>
				<path class="st1" d="M569.53,338.09c-3.12-35.12-18.21-65.02-42.79-89.93c-38.75-39.26-86.87-56.54-146.24-59.02
					c-7.65,0.67-20.39,1.12-32.91,3.02c-45.93,6.98-85.77,26.2-117.3,60.89c-22.93,25.22-36.56,54.84-38.46,89.1
					c-2.3,41.5,12.39,76.94,40.21,107.25c2.34,2.55,2.73,4.5,1.57,7.65c-9.09,24.63-17.91,49.36-27.05,73.98
					c-2.6,7.01-4.01,13.65,2.17,19.38c6.35,5.89,12.98,3.8,19.87,0.55c31.53-14.89,63.13-29.63,94.79-44.24
					c2.43-1.12,5.7-1.6,8.28-1.01c33.65,7.6,67.27,7.56,100.72-0.64c44.09-10.81,81.35-32.74,108.84-69.53
					C562.77,406.68,572.72,374.09,569.53,338.09z M290.03,374.57c-13.36,0.02-24.29-10.85-24.33-24.19
					c-0.04-13.33,10.85-24.19,24.26-24.2c13.4-0.01,24.33,10.82,24.35,24.14C314.32,363.61,303.38,374.55,290.03,374.57z
					 M381.05,374.56c-13.41,0.08-24.35-10.66-24.45-24c-0.1-13.43,10.61-24.31,24.01-24.39c13.54-0.08,24.3,10.49,24.39,23.95
					C405.09,363.62,394.44,374.48,381.05,374.56z M471.82,374.57c-13.44,0.08-24.25-11.11-24.36-25.22
					c-0.11-14.11,10.56-25.44,24.03-25.5c13.42-0.06,24.36,11.2,24.46,25.16C496.05,362.93,485.14,374.49,471.82,374.57z"/>
			</g>
			<path class="st1" d="M566.09,514.81c-1.58-4.23-1.04-6.8,1.99-10.26c37.8-43.13,49.69-91.8,30.49-146.81
				c-1.88-5.38-4.52-10.49-6.97-16.09c-0.68,10.9-0.58,21.16-2.08,31.19c-6.49,43.39-27.57,78.99-61,106.68
				c-56.85,47.09-122.45,60.86-194.38,48.15c-1.82-0.32-3.98-0.82-5.53-0.16c-6.82,2.9-13.48,6.19-20.56,9.51
				c1.42,0.92,2.37,1.59,3.37,2.16c48.98,27.74,101.03,34.38,155.79,22.88c2.73-0.57,6.15-0.23,8.67,0.93
				c32.46,14.96,64.78,30.23,97.26,45.16c3.25,1.49,7.44,2.32,10.89,1.71c8.84-1.57,12.91-10.23,9.61-19.4
				C584.54,565.22,575.45,539.96,566.09,514.81z"/>
		</g>
	</g>
</g>
</svg>
