<?xml version="1.0" encoding="utf-8"?>
<!-- Generator: Adobe Illustrator 24.2.1, SVG Export Plug-In . SVG Version: 6.00 Build 0)  -->
<svg version="1.1" xmlns="http://www.w3.org/2000/svg" xmlns:xlink="http://www.w3.org/1999/xlink" x="0px" y="0px"
	 viewBox="0 0 1000 1000" style="enable-background:new 0 0 1000 1000;" xml:space="preserve">
<style type="text/css">
	.st0{display:none;}
	.st1{display:inline;}
	.st2{fill:#A0616A;}
	.st3{fill:#3F3D56;}
	.st4{fill:#FFFFFF;}
	.st5{fill:#FF9105;}
	.st6{fill:#E6E6E6;}
	.st7{fill:#2F2E41;}
	.st8{fill:#FFB6B6;}
	.st9{fill:#7A3BDF;}
	.st10{opacity:0.1;enable-background:new    ;}
</style>
<g id="Capa_1" class="st0">
	<g class="st1">
		<polygon class="st2" points="233.37,173.18 226,211.91 262.78,222.28 258.21,180.93 		"/>
		<path class="st3" d="M16.34,974.91c0,1.22,0.98,2.19,2.19,2.19h963.27c1.22,0,2.19-0.98,2.19-2.19c0-1.22-0.98-2.19-2.19-2.19
			H18.54C17.32,972.71,16.34,973.69,16.34,974.91z"/>
		<g>
			<path class="st4" d="M672.99,449.03H293.67c-43.01,0-77.89,34.87-77.89,77.89v367.82c0,43.01,34.87,77.89,77.89,77.89h379.32
				c43.01,0,77.89-34.87,77.89-77.89V526.91C750.87,483.9,716,449.03,672.99,449.03L672.99,449.03z"/>
			<path class="st3" d="M672.99,974.46H293.67c-43.96,0-79.73-35.77-79.73-79.73V526.91c0-43.96,35.77-79.73,79.73-79.73h379.32
				c43.96,0,79.73,35.77,79.73,79.73v367.82C752.72,938.69,716.95,974.46,672.99,974.46L672.99,974.46z M293.67,450.87
				c-41.93,0-76.04,34.11-76.04,76.04v367.82c0,41.93,34.11,76.04,76.04,76.04h379.32c41.93,0,76.04-34.11,76.04-76.04V526.91
				c0-41.93-34.11-76.04-76.04-76.04L293.67,450.87L293.67,450.87z"/>
			<path class="st5" d="M700.47,608.49H548c-6.47,0-11.73-5.26-11.73-11.73s5.26-11.73,11.73-11.73h152.47
				c6.47,0,11.73,5.26,11.73,11.73S706.93,608.49,700.47,608.49L700.47,608.49z"/>
			<path class="st5" d="M557.43,700.72h-148.2c-3.74,0-6.78-3.04-6.78-6.78s3.04-6.78,6.78-6.78h148.2c3.74,0,6.78,3.04,6.78,6.78
				S561.17,700.72,557.43,700.72L557.43,700.72z"/>
			<path class="st5" d="M263.35,474.22h84.61c0.32,0,0.57,0.26,0.57,0.57v9.85c0,0.32-0.26,0.57-0.57,0.57h-84.61
				c-0.32,0-0.57-0.26-0.57-0.57v-9.85C262.78,474.47,263.03,474.22,263.35,474.22z"/>
			<circle class="st3" cx="632.97" cy="476.42" r="8.8"/>
			<circle class="st3" cx="657.15" cy="476.42" r="8.8"/>
			<circle class="st3" cx="681.34" cy="476.42" r="8.8"/>
			<path class="st3" d="M292.75,736.99c0,1.22,0.98,2.19,2.19,2.19h376.77c1.22,0,2.19-0.98,2.19-2.19c0-1.22-0.98-2.19-2.19-2.19
				H294.94C293.73,734.8,292.75,735.77,292.75,736.99z"/>
		</g>
		<g>
			<path id="uuid-d0b76542-8f08-4363-846d-0cc3b89caf22-292" class="st2" d="M407.66,195.63c8.02-6.63,17.94-7.86,22.16-2.76
				c4.22,5.11,1.13,14.62-6.89,21.24c-3.17,2.69-6.94,4.59-10.99,5.52L377.6,247.3l-12.63-16.39l35.2-25.52
				C401.84,201.58,404.42,198.24,407.66,195.63L407.66,195.63z"/>
			<path class="st6" d="M209.17,258.03c-0.02-1.22-0.01-11.89,7.89-18.63c9.07-7.75,21.87-4.61,26.36-3.51
				c10.37,2.54,11.22,6.99,20.96,11.56c18.22,8.55-4.61,4.18,6.23,1.43c3.75-0.95,57.75-4.69,71.19-12.97
				c26.14-16.09,43.95-25.85,43.95-25.85l11.64,23.29c0,0-16.84,23.41-40.53,40.75c-24.31,17.79-36.46,26.69-54.93,30.12
				c-1.59,0.3-40.71,6.97-72.21-16.56C222.54,282.3,209.38,272.46,209.17,258.03L209.17,258.03z"/>
			<circle class="st2" cx="245.29" cy="158.24" r="40.56"/>
			<g>
				<polygon class="st2" points="562.95,430.75 521.18,387.99 499.62,410.48 530.74,451.48 561.61,455.01 				"/>
				<path class="st7" d="M324.43,350.57c2.44,0.2,10.21,1.76,17.63-2.32c5.06-2.79,7.66-6.93,8.54-8.25
					c10.88-16.35,52.66-41.84,90.15-43.41c8.49-0.36,14.08,0.63,19.16,3.28c7.2,3.75,10.08,9.13,19.22,21.73
					c5,6.89,10.53,13.38,15.59,20.23c29.62,40.09,40.85,43.24,39.71,56.09c-1.27,14.26-16.65,27.79-26.87,26.23
					c-4.19-0.64-5.81-3.55-11.4-9.44c-16.4-17.28-23.18-14.09-34.86-27.32c-13.63-15.45-11.85-28.26-18.96-28.76
					c-6.59-0.46-9.4,10.47-23.48,24.99c-6.44,6.64-11.03,9.69-25.01,19.39c-54.43,37.76-55.3,40.41-66.28,43.42
					c-4.81,1.32-38.91,10.67-51.06-4.21C257.49,418.92,302.41,348.74,324.43,350.57L324.43,350.57z"/>
				<path class="st7" d="M550.18,440.41c3.07-1.38,6.66-2.99,7.82-6.7c0.78-2.51,0.33-5.6-1.28-7.74c-1.87-2.47-4.63-2.79-4.51-3.23
					c0.17-0.66,6.7-0.4,13.86,2.13c1.35,0.48,7.48,2.72,15.27,8.8c6.24,4.87,5.4,5.85,9.32,8.66c12.02,8.63,23.29,1.83,29.79,9.92
					c2.51,3.12,3.58,7.56,2.52,11.14c-2.12,7.2-12.44,9.68-18.07,10.96c-13.58,3.08-23.85,0.57-34.58-1.24
					c-36.49-6.15-57-0.55-59.74-9c-0.52-1.6,0.32-1.46,3.14-13.21c2.78-11.59,2.69-14.77,5.05-15.7c3.56-1.4,5.95,4.96,14.92,7.13
					C541.63,444.25,548.19,441.3,550.18,440.41L550.18,440.41z"/>
			</g>
			<g>
				<polygon class="st2" points="488.69,570.63 478.13,511.79 447.66,518.29 450.39,569.7 473.95,589.95 				"/>
				<path class="st7" d="M336.35,370.34c1.91,1.54,7.46,7.19,15.89,7.98c5.76,0.54,10.23-1.43,11.7-2.03
					c18.19-7.41,67.07-5.05,98.97,14.71c7.22,4.47,11.3,8.43,14.01,13.47c3.85,7.15,3.21,13.22,3.7,28.77
					c0.27,8.51,1.2,16.99,1.54,25.5c2,49.81,9.53,58.72,1.36,68.71c-9.06,11.08-29.38,13.64-36.96,6.61
					c-3.1-2.88-2.81-6.2-4.13-14.21c-3.87-23.5-11.27-24.67-13.5-42.18c-2.6-20.44,6.07-30.04,0.46-34.44
					c-5.2-4.08-13.65,3.39-33.46,7.49c-9.06,1.88-14.57,1.82-31.58,2c-66.24,0.68-68.45,2.39-79.23-1.29
					c-4.72-1.61-38.19-13.02-39.89-32.16C242.58,389.32,319.16,356.47,336.35,370.34L336.35,370.34z"/>
				<path class="st7" d="M472.69,571.45c3.32,0.58,7.19,1.27,10.23-1.15c2.06-1.64,3.42-4.45,3.29-7.13
					c-0.16-3.09-2.26-4.91-1.92-5.21c0.51-0.45,5.77,3.43,10.28,9.55c0.85,1.15,4.66,6.45,7.69,15.86c2.43,7.54,1.19,7.88,2.85,12.4
					c5.1,13.89,18.25,14.59,19.08,24.94c0.32,3.99-1.28,8.26-4.17,10.64c-5.8,4.77-15.72,1.02-21.11-1.08
					c-12.96-5.08-20.06-12.93-27.92-20.45c-26.74-25.58-46.85-32.46-44.38-41c0.47-1.62,1.09-1.03,10.01-9.17
					c8.81-8.03,10.52-10.71,13-10.15c3.73,0.84,2.14,7.44,8.34,14.28C463.47,569.83,470.55,571.08,472.69,571.45L472.69,571.45z"/>
			</g>
			<path class="st7" d="M250.82,166c1.58-5.65-0.4-7.71,1.62-10.24c0,0,0.81-1.02,8.09-3.77l0,0c-2.15-12.45-0.54-14.56-0.54-14.56
				c1.85-2.43,5.56-3.01,8.09-2.7c5.34,0.67,6.29,5.5,9.7,5.39c4.72-0.15,10.38-9.6,8.63-17.79c-1.43-6.68-7.61-11.64-9.16-10.78
				c-1.54,0.85-7.07-2.91-9.16-2.16c-1.43,0.52-8.17-0.17-9.7,0.54c-1.67,0.77-6.45,5.6-6.91,4.99c-3.18-4.22-3.11-5.7-4.95-6.61
				c-3.27-1.61-6.82,1.37-12.94,4.31c-12.6,6.06-16.28,2.44-22.1,7.55c-2.94,2.58-4.52,7.5-7.55,17.25
				c-4.24,13.63-6.36,20.45-4.31,26.95c2.09,6.64,5.16,5.19,9.7,14.56c5.05,10.42,3.31,16.48,8.09,18.87
				c3.69,1.84,9.62,0.67,11.86-2.7c3.83-5.76-6.08-13.56-2.7-22.64c2.07-5.58,8.47-9.8,12.4-8.63c4.44,1.33,4.76,9.29,7.55,9.16
				C248.89,172.9,250.55,166.98,250.82,166C250.82,166,250.82,166,250.82,166z"/>
			<path class="st6" d="M220.09,204.81c8.3-9.31,42.11,0.33,45.28,15.09c1.31,6.07-3.51,8.64-2.16,15.63
				c1.98,10.23,13.22,9.53,21.56,19.95c11.84,14.78-0.36,29.24,12.94,53.91c2.84,5.27,5.24,9.72,10.24,14.02
				c11.49,9.87,22.18,6.48,28.03,15.63c4.37,6.84,2.58,15.28,2.16,17.25c-1.73,8.1-6.41,10.07-9.7,16.71
				c-5.49,11.04,0.73,19.15,1.08,32.34c0.44,16.51-8.33,39.39-25.88,46.9c-19.71,8.44-43.48-5.54-54.99-19.41
				c-6.86-8.28-8.86-15.91-11.86-25.34c-13.42-42.12-21-38.31-31.27-71.7c-11.73-38.17-14.04-82.88,0-97.03
				c1.86-1.88,6.98-6.21,10.24-14.02C220.17,214.25,216.38,208.98,220.09,204.81L220.09,204.81z"/>
			<g>
				<path id="uuid-35da8825-ceb1-46f8-a8e3-884fcc945dd4-293" class="st2" d="M342.74,421.45c6.44,8.18,7.43,18.12,2.23,22.22
					c-5.2,4.09-14.64,0.79-21.07-7.4c-2.62-3.23-4.42-7.04-5.26-11.12l-26.83-34.99l13.86-10.57l27.5,34.13
					C336.93,415.5,340.21,418.15,342.74,421.45L342.74,421.45z"/>
				<path class="st6" d="M244.48,240.28c1.19-0.27,11.64-2.43,19.85,3.92c9.43,7.3,8.98,20.47,8.82,25.09
					c-0.37,10.67-4.55,12.41-7.04,22.88c-4.65,19.58,4.21,37.79,9.11,47.84c1.7,3.48,7.14,14.13,17.98,25.6
					c21.08,22.31,39.9,34.05,39.9,34.05l-20.21,17.96c0,0-32.19-9.81-54.01-29.47c-22.38-20.17-56.79-91.51-63.92-108.89
					c-0.61-1.5,8.09,22.84,24.7-12.81C223.45,258.32,230.4,243.42,244.48,240.28C244.48,240.28,244.48,240.28,244.48,240.28z"/>
			</g>
		</g>
		<g>
			<path id="uuid-ba1531a6-e7ab-4297-b996-1d676f43fe3f-294" class="st8" d="M521.59,787.23c-12.85,1.97-22.24,10.19-20.99,18.37
				s12.68,13.2,25.53,11.23c5.14-0.72,10.04-2.66,14.28-5.65l54.32-9.03l-3.63-21.47l-54.2,7.67
				C531.96,786.76,526.71,786.37,521.59,787.23L521.59,787.23z"/>
			<polygon class="st6" points="755.67,720.3 734.61,765 628.72,800.64 540.85,805.33 538.65,784.23 633.88,764.31 731.6,718.14 			
				"/>
			<polygon class="st8" points="560.37,890.01 541.46,937.85 516.99,921.16 531.45,871.1 			"/>
			<polygon class="st8" points="481.39,872.22 431.33,920.05 451.36,941.19 502.53,901.14 			"/>
			<polygon class="st8" points="765.06,716.48 764.5,712.59 751.71,687.56 709.44,698.68 717.22,733.16 			"/>
			<path class="st7" d="M747.26,883.34l1.3,16.71c0,0,5.37,70.06-38.01,75.62c-43.38,5.56-62.29,11.12-87.88-32.26l-40.05-71.19
				l-23.39,27.83l-31.12-24.49c0,0,22.25-86.77,40.05-90.11c2.22-0.42,4.45-0.63,6.64-0.67c14.73-0.31,28.62,6.9,37.44,18.71
				l50.47,67.62l18.35-8.34L747.26,883.34L747.26,883.34z"/>
			<path class="st7" d="M506.98,935.62l10.01-18.91l28.92,20.02c0,0,6.67,24.47-3.34,27.81c-10.01,3.34-37.82-1.11-37.82-1.11
				s-51.17,11.12-52.28,1.11s23.36-12.24,23.36-12.24L506.98,935.62L506.98,935.62z"/>
			<path class="st7" d="M615.99,922.27l-77.31-48.71l-39.49,35.36l-26.7-31.15c0,0,48.95-72.31,63.41-75.64
				c14.46-3.34,37.82-5.56,37.82-5.56l71.19,65.63L615.99,922.27L615.99,922.27z"/>
			<path class="st7" d="M430.22,915.6l25.59,27.81l-3.37,2.89c0,0-6.64,28.91-22.21,19.13c-15.57-9.78-16.69-12-16.69-12
				s-44.5,10.01-48.95-7.79c-4.45-17.8,7.79-14.46,7.79-14.46l11.11,6.67L430.22,915.6L430.22,915.6z"/>
			<circle class="st8" cx="722.78" cy="675.32" r="35.6"/>
			<path class="st6" d="M714.44,725.93l51.17-15.57c0,0,20.02,46.72,16.69,67.86c-3.34,21.14-33.74,121.83-33.74,121.83
				l-67.49-37.29c0,0-1.11-22.25-4.45-32.26c-3.34-10.01-13.91-40.6,9.46-66.19C709.44,738.73,714.44,725.93,714.44,725.93
				L714.44,725.93z"/>
			<g>
				<path id="uuid-375aaccb-22f9-42b6-a352-baabb12db8d2-295" class="st8" d="M601.82,959.52c-8.33,9.98-9.93,22.36-3.58,27.66
					c6.35,5.3,18.25,1.51,26.58-8.48c3.38-3.94,5.77-8.64,6.97-13.69l34.75-42.72l-16.93-13.7l-35.56,41.62
					C609.28,952.29,605.09,955.49,601.82,959.52L601.82,959.52z"/>
				<polygon class="st6" points="753.69,748.38 765.79,796.29 706.59,891.04 646.16,951.78 626.57,935.53 687.52,859.7 
					733.71,761.99 				"/>
			</g>
			<path class="st7" d="M689.97,669.2c9.13-0.02,9.65,0.04,11.12,0c11.32-0.3,14.28-4.75,20.02-4.45c10.24,0.54-3.28,51.9-8.9,75.64
				c-5.51,23.29,13.12,44.15,14.46,45.61c18.92,20.57,52.14,24.33,57.85,15.57c4.61-7.09-11.74-17.87-7.79-33.37
				c3.86-15.15,21.71-13.54,26.7-27.81c5.22-14.95-12.33-22.49-23.36-58.96c-6.33-20.95-5.21-24.85-11.12-37.82
				c-15.8-34.68-93.24-19.91-84.54,12.24C686.09,662.07,681.61,669.22,689.97,669.2L689.97,669.2z"/>
		</g>
		<g>
			<path class="st4" d="M803.64,246.62H429.52c-10.58,0-19.19-8.61-19.19-19.19V28.7c0-10.58,8.61-19.19,19.19-19.19h374.12
				c10.58,0,19.19,8.61,19.19,19.19v198.73C822.83,238.01,814.22,246.62,803.64,246.62z"/>
			<path class="st3" d="M803.64,246.62H429.52c-10.58,0-19.19-8.61-19.19-19.19V28.7c0-10.58,8.61-19.19,19.19-19.19h374.12
				c10.58,0,19.19,8.61,19.19,19.19v198.73C822.83,238.01,814.22,246.62,803.64,246.62z M429.52,12.72
				c-8.81,0-15.98,7.17-15.98,15.98v198.73c0,8.81,7.17,15.98,15.98,15.98h374.12c8.81,0,15.98-7.17,15.98-15.98V28.7
				c0-8.81-7.17-15.98-15.98-15.98C803.64,12.72,429.52,12.72,429.52,12.72z"/>
			<circle class="st3" cx="774.76" cy="28.74" r="4.81"/>
			<circle class="st3" cx="787.58" cy="28.74" r="4.81"/>
			<circle class="st3" cx="800.4" cy="28.74" r="4.81"/>
			<path class="st6" d="M437.57,106.44c-1.33,0-2.4,1.08-2.4,2.4c0,0.65,0.25,1.24,0.7,1.68c0.46,0.47,1.06,0.72,1.7,0.72h359.63
				c1.33,0,2.4-1.08,2.4-2.4c0-0.65-0.25-1.24-0.7-1.68c-0.46-0.47-1.06-0.72-1.7-0.72H437.57z"/>
			<path class="st5" d="M752.33,105.64v6.41H437.57c-0.88,0-1.68-0.35-2.26-0.95c-0.59-0.58-0.95-1.38-0.95-2.26
				c0-1.76,1.44-3.2,3.2-3.2H752.33z"/>
			<path class="st6" d="M793.19,93.62h-32.04c-3.53,0-6.41-2.87-6.41-6.41s2.87-6.41,6.41-6.41h32.04c3.53,0,6.41,2.87,6.41,6.41
				S796.72,93.62,793.19,93.62z"/>
			<path class="st6" d="M583.32,59.98H439.97c-3.53,0-6.41-2.87-6.41-6.41c0-3.53,2.87-6.41,6.41-6.41h143.35
				c3.53,0,6.41,2.87,6.41,6.41C589.72,57.1,586.85,59.98,583.32,59.98z"/>
			<path class="st6" d="M437.57,178.53c-1.33,0-2.4,1.08-2.4,2.4c0,0.65,0.25,1.24,0.7,1.68c0.46,0.47,1.06,0.72,1.7,0.72h359.63
				c1.33,0,2.4-1.08,2.4-2.4c0-0.65-0.25-1.24-0.7-1.68c-0.46-0.47-1.06-0.72-1.7-0.72H437.57z"/>
			<path class="st5" d="M628.97,177.73v6.41H437.57c-0.88,0-1.68-0.35-2.26-0.95c-0.59-0.58-0.95-1.38-0.95-2.26
				c0-1.76,1.44-3.2,3.2-3.2H628.97z"/>
			<path class="st6" d="M793.19,165.71h-32.04c-3.53,0-6.41-2.87-6.41-6.41c0-3.53,2.87-6.41,6.41-6.41h32.04
				c3.53,0,6.41,2.87,6.41,6.41C799.6,162.84,796.72,165.71,793.19,165.71z"/>
		</g>
	</g>
</g>
<g id="Capa_2" class="st0">
	<g class="st1">
		<path class="st6" d="M945.62,754.16H68.94c-18.75,0-34-15.25-34-34V614.65h944.68v105.51
			C979.62,738.91,964.37,754.16,945.62,754.16z"/>
		<rect x="397.18" y="736.51" class="st6" width="223.56" height="159.69"/>
		<rect x="383.73" y="876.03" class="st6" width="250.46" height="20.17"/>
		<path class="st3" d="M978.78,659.19H34.94V122.78c0-12.87,10.47-23.33,23.33-23.33h897.17c12.87,0,23.33,10.47,23.33,23.33V659.19
			z"/>
		<rect x="56.79" y="123.82" class="st4" width="899.29" height="505.96"/>
		<circle class="st9" cx="850.84" cy="429.41" r="76.67"/>
		<path class="st3" d="M991,898.66L991,898.66c0,0.93-0.48,1.68-1.07,1.68H9.34v-3.37h980.59C990.52,896.98,991,897.73,991,898.66z"
			/>
		<g>
			<polygon class="st8" points="76.85,418.25 67.16,452.16 105.92,454.58 103.49,414.62 			"/>
			<g>
				<g>
					<path id="uuid-a6c07e27-609a-42c1-9803-308006772003-286" class="st8" d="M237.85,556.67c9.2,3.14,18.27,0.94,20.27-4.91
						s-3.84-13.14-13.04-16.28c-3.66-1.3-7.57-1.71-11.42-1.19l-39.13-12.81l-5.62,18.49l39.17,10.67
						C230.8,553.4,234.15,555.47,237.85,556.67L237.85,556.67z"/>
					<path class="st9" d="M107.99,444.64c0,0-24.26,29.18-10.22,41.26c14.03,12.07,76.7,56.77,76.7,56.77l24.43,3.8l6.25-23.62
						l-55.17-40.88L107.99,444.64L107.99,444.64z"/>
				</g>
				<polygon class="st8" points="172.27,755.31 185.75,805.27 207.16,801.3 202.4,749.76 				"/>
				<path class="st7" d="M188.92,802.09l-7.93,1.59l-6.34,21.41c0,0,10.31,3.96,10.31,11.9c0,7.93,3.97,13.48,19.83,12.69
					c15.86-0.79,17.45,0,17.45-6.34s-11.9-39.65-11.9-39.65s0.79-13.48-8.72-12.69C192.09,791.79,188.92,802.09,188.92,802.09
					L188.92,802.09z"/>
				<polygon class="st8" points="99.77,754.53 100.69,806.27 122.43,807.63 130.35,756.48 				"/>
				<path class="st7" d="M104.54,803.96l-8.08-0.39L85.1,822.8c0,0,9.03,6.35,7.1,14.05s0.57,14.04,16.14,17.13
					s16.92,4.24,18.47-1.91c1.54-6.15-1.89-41.35-1.89-41.35s4.05-12.88-5.37-14.43C110.13,794.74,104.54,803.96,104.54,803.96
					L104.54,803.96z"/>
				<path class="st9" d="M108.83,445.24L66,442.07l-9.52,11.9c0,0-4.76,80.09-1.59,88.02c3.17,7.93,0.79,53.13,0.79,53.13
					l107.95-7.53l-23.89-57.49l0.79-33.31l-21.41-40.44L108.83,445.24L108.83,445.24z"/>
				<path class="st7" d="M60.45,578.47c0,0-17.45,25.38-11.1,38.86s49.38,91.76,49.38,91.76l-5.55,72.96l38.06-3.17l6.34-78.51
					l-26.38-64l4.76-7.14l39.65,48.37l14.27,84.06l38.06-4.76l-20.62-122.92l-24.1-47.38L60.45,578.47z"/>
				<circle class="st7" cx="56.73" cy="381.98" r="14.7"/>
				<circle class="st8" cx="90.68" cy="404.47" r="32.02"/>
				<path class="st7" d="M80.53,439.57c-3.4,1.8-12.98-4.82-16.4-13.68c-2.2-5.7-7.56-4.76-10.98-11.87
					c-1.99-4.15,3.96-8.2,2.98-11.79c-1.78-6.49,0.45-12.31,0.74-13.02c2.45-6.14,6.07-6,8.98-13.15c1.75-4.31,0.63-4.81,2.1-7.01
					c4.26-6.36,16.61-6.6,25.32-3.59c3.01,1.04,10.27-4.53,16.17-0.5c6.94,4.76,11.56,18.47,10.5,20.99
					c-0.65,1.53-4.24-0.03-11.72,1.15c-6.92,1.09,2.21,6.26-5.58,8.02c-9.21,2.08-11.99,0.18-14.54,3.1
					c-2.7,3.08-3.2,9.32-0.74,13.02c1.22,1.84,2.8,2.48,2.6,3.76c-0.36,2.33-2.43,1.07-3.11,3.54c-0.79,2.88,5.77,6.66,5.2,7.53
					c-0.11,0.18-0.61,0.37-7.01-2.1c-2.56-0.99-3.54-1.84-3.83-1.52c-0.46,0.51-2.76,5.62-0.15,7.8c4.07,3.38,1.25,4.73,3.1,7.38
					C86.06,440.34,82.69,438.42,80.53,439.57L80.53,439.57z"/>
				<g>
					<path id="uuid-cdcc4a7b-c7e9-4136-bdd1-e7c84b73eb6c-287" class="st8" d="M88.02,624.56c5.11,8.27,13.52,12.33,18.78,9.08
						c5.26-3.25,5.38-12.59,0.27-20.86c-2-3.33-4.76-6.13-8.07-8.18l-22.09-34.75l-16.08,10.71l23.49,33.12
						C84.66,617.55,85.94,621.28,88.02,624.56z"/>
					<path class="st9" d="M58.87,455.55c0,0-37.27,7.14-34.1,25.38c3.17,18.24,23.19,92.57,23.19,92.57l16.46,18.45l19.83-14.27
						l-16.65-66.61L58.87,455.55L58.87,455.55z"/>
				</g>
			</g>
		</g>
		<g>
			<path class="st6" d="M939.2,470.78c-1.47-2.47-7.81,0.17-8.97-2.07c-1.16-2.23,4.73-5.64,8.1-13.42
				c0.61-1.4,4.43-10.24,1.6-12.97c-5.37-5.17-29.93,16.17-38.52,9.18c-1.89-1.53-3.2-4.59-8.91-9.56
				c-2.27-1.98-3.64-2.87-4.97-2.54c-1.89,0.47-2.04,2.99-4.06,7.96c-3.03,7.44-4.83,6.99-6.59,12.93
				c-1.31,4.41-1.01,6.97-2.56,7.47c-2.18,0.71-4.19-3.97-6.96-3.55c-2.82,0.43-4.53,5.87-5.07,9.95c-1.01,7.65,1.8,12.7,3.35,18
				c1.69,5.77,2.7,14.54-1.21,26.96l-38.67,108.96c8.54-22.36,33.26-83.65,43.65-106.42c3-6.57,6.31-13.24,13.11-15.88
				c6.55-2.53,15.53-1.02,26.99-3.78c1.34-0.32,5.05-1.27,5.52-3.45c0.39-1.81-1.8-2.81-1.46-4.51c0.45-2.27,4.75-2.3,10.03-4.91
				c3.72-1.85,6.04-4.04,8.04-5.93C932.21,482.64,941.15,474.07,939.2,470.78L939.2,470.78L939.2,470.78z"/>
			<path class="st6" d="M787.05,528.15c-1.64,0.01-2.17,3.88-3.6,3.81c-1.43-0.07-1.4-3.95-4.25-7.85c-0.51-0.7-3.75-5.13-5.9-4.53
				c-4.09,1.14-0.7,19.35-6.61,21.56c-1.3,0.48-3.18,0.25-7.26,1.62c-1.63,0.54-2.46,0.96-2.68,1.71c-0.31,1.06,0.88,1.86,2.73,4.29
				c2.78,3.64,2.04,4.39,4.44,6.97c1.79,1.92,3.13,2.51,2.93,3.41c-0.28,1.28-3.16,0.91-3.75,2.39c-0.61,1.51,1.57,3.92,3.42,5.36
				c3.46,2.7,6.75,2.78,9.8,3.55c3.32,0.83,7.91,2.87,12.88,8.37l42.32,50.42c-8.51-10.64-31.46-40.46-39.64-52.13
				c-2.36-3.37-4.68-6.92-4.01-11.01c0.64-3.94,3.98-7.92,5.93-14.34c0.23-0.75,0.84-2.85-0.1-3.71c-0.77-0.71-1.9,0.07-2.63-0.58
				c-0.98-0.88,0.24-2.99,0.48-6.34c0.17-2.36-0.24-4.13-0.59-5.65C790.85,535,789.23,528.14,787.05,528.15L787.05,528.15
				L787.05,528.15z"/>
			<path class="st6" d="M819.69,535.47l-0.99-8.8l0.45-0.67c2.08-3.08,3.15-6.1,3.16-8.96c0-0.45-0.02-0.91-0.04-1.37
				c-0.08-1.84-0.19-4.12,1-6.78c0.67-1.48,2.54-4.92,5.36-4.49c0.76,0.11,1.33,0.45,1.77,0.86c0.06-0.1,0.13-0.2,0.2-0.31
				c0.88-1.34,1.57-1.91,2.24-2.46c0.51-0.42,1.05-0.86,1.88-1.9c0.37-0.45,0.65-0.85,0.89-1.19c0.73-1.02,1.68-2.23,3.36-2.2
				c1.79,0.08,2.73,1.57,3.35,2.55c1.11,1.75,1.61,3.01,1.95,3.85c0.12,0.31,0.26,0.65,0.33,0.76c0.58,0.85,5.27,0.06,7.04-0.23
				c3.97-0.66,7.41-1.24,8.83,1.27c1.02,1.79,0.26,4.16-2.31,7.23c-0.8,0.96-1.65,1.68-2.41,2.25c0.63,0.37,1.19,0.95,1.41,1.85l0,0
				c0.54,2.13-1.3,4.27-5.45,6.36c-1.03,0.52-2.42,1.22-4.36,1.55c-0.92,0.16-1.74,0.2-2.44,0.22c-0.01,0.41-0.11,0.85-0.36,1.3
				c-0.73,1.34-2.25,1.98-4.53,1.82c-2.52-0.13-4.59-0.61-6.41-1.03c-1.6-0.37-2.97-0.68-4.05-0.6c-2,0.16-3.54,1.76-5.35,3.84
				L819.69,535.47L819.69,535.47L819.69,535.47z"/>
			<path class="st6" d="M824.26,483.09l-8.26,3.18l-0.76-0.27c-3.51-1.23-6.69-1.5-9.46-0.78c-0.44,0.11-0.87,0.25-1.32,0.39
				c-1.75,0.55-3.93,1.23-6.81,0.75c-1.6-0.27-5.4-1.21-5.7-4.04c-0.09-0.76,0.1-1.4,0.39-1.93c-0.11-0.04-0.23-0.07-0.35-0.11
				c-1.52-0.51-2.25-1.04-2.95-1.54c-0.54-0.39-1.1-0.79-2.31-1.33c-0.53-0.24-0.99-0.41-1.38-0.56c-1.17-0.45-2.58-1.06-2.98-2.69
				c-0.37-1.76,0.82-3.04,1.61-3.89c1.41-1.52,2.5-2.33,3.23-2.86c0.27-0.19,0.56-0.42,0.65-0.51c0.68-0.77-1.28-5.12-2.01-6.75
				c-1.65-3.68-3.08-6.86-1.01-8.86c1.48-1.44,3.96-1.31,7.58,0.4c1.13,0.53,2.05,1.17,2.79,1.76c0.2-0.7,0.62-1.39,1.43-1.84l0,0
				c1.93-1.06,4.46,0.17,7.53,3.66c0.77,0.86,1.79,2.03,2.61,3.82c0.38,0.85,0.63,1.63,0.83,2.31c0.4-0.09,0.85-0.11,1.35,0.02
				c1.48,0.37,2.48,1.67,2.91,3.92c0.51,2.47,0.57,4.59,0.63,6.46c0.05,1.64,0.1,3.04,0.44,4.07c0.66,1.89,2.6,2.98,5.07,4.2
				L824.26,483.09L824.26,483.09L824.26,483.09z"/>
			<path class="st6" d="M819.69,457.17l-0.99-8.8l0.45-0.67c2.08-3.08,3.15-6.1,3.16-8.96c0-0.45-0.02-0.91-0.04-1.37
				c-0.08-1.84-0.19-4.12,1-6.78c0.67-1.48,2.54-4.92,5.36-4.49c0.76,0.11,1.33,0.45,1.77,0.86c0.06-0.1,0.13-0.2,0.2-0.31
				c0.88-1.34,1.57-1.91,2.24-2.46c0.51-0.42,1.05-0.86,1.88-1.9c0.37-0.45,0.65-0.85,0.89-1.19c0.73-1.02,1.68-2.23,3.36-2.2
				c1.79,0.08,2.73,1.57,3.35,2.55c1.11,1.75,1.61,3.01,1.95,3.85c0.12,0.31,0.26,0.65,0.33,0.76c0.58,0.85,5.27,0.06,7.04-0.23
				c3.97-0.66,7.41-1.24,8.83,1.27c1.02,1.79,0.26,4.16-2.31,7.23c-0.8,0.96-1.65,1.68-2.41,2.25c0.63,0.37,1.19,0.95,1.41,1.85l0,0
				c0.54,2.13-1.3,4.27-5.45,6.36c-1.03,0.52-2.42,1.22-4.36,1.55c-0.92,0.16-1.74,0.2-2.44,0.22c-0.01,0.41-0.11,0.85-0.36,1.3
				c-0.73,1.34-2.25,1.98-4.53,1.82c-2.52-0.13-4.59-0.61-6.41-1.03c-1.6-0.37-2.97-0.68-4.05-0.6c-2,0.16-3.54,1.76-5.35,3.84
				L819.69,457.17L819.69,457.17L819.69,457.17z"/>
			<path class="st6" d="M828.69,627.95l-1.84-1.16l-0.45-2.13l0.45,2.13l-2.15,0.25c-0.03-0.2-0.15-0.66-0.33-1.38
				c-0.96-3.93-3.9-15.91-6.34-34.76c-1.71-13.16-2.67-26.69-2.87-40.22c-0.2-13.55,0.44-23.81,0.96-32.06
				c0.39-6.22,0.86-12.14,1.32-17.91c1.23-15.41,2.39-29.97,1.53-46.09c-0.19-3.6-0.59-11.09-4.97-19.06
				c-2.54-4.62-6.03-8.73-10.39-12.19l2.71-3.41c4.81,3.83,8.68,8.38,11.5,13.51c4.85,8.84,5.29,17,5.5,20.92
				c0.88,16.4-0.3,31.1-1.54,46.66c-0.46,5.75-0.93,11.64-1.32,17.84c-0.51,8.17-1.14,18.34-0.95,31.72
				c0.2,13.37,1.15,26.73,2.84,39.73c2.42,18.62,5.31,30.41,6.26,34.28C829.1,626.7,829.21,627.13,828.69,627.95L828.69,627.95
				L828.69,627.95z"/>
			<path class="st6" d="M795.62,430.28c-0.18,0-0.36,0-0.54-0.02c-3.7-0.2-7.13-2.42-10.2-6.59c-1.44-1.96-2.17-4.2-3.64-8.67
				c-0.23-0.69-1.33-4.18-2-8.99c-0.44-3.14-0.38-4.45,0.24-5.61c0.69-1.29,1.81-2.19,3.07-2.8c-0.06-0.42-0.01-0.85,0.17-1.28
				c0.74-1.81,2.71-1.58,3.78-1.46c0.54,0.07,1.21,0.16,1.94,0.12c1.14-0.06,1.76-0.4,2.69-0.9c0.89-0.49,2-1.1,3.64-1.43
				c3.24-0.68,5.95,0.24,6.84,0.54c4.7,1.57,7.02,5.23,9.71,9.46c0.54,0.85,2.37,3.94,3.59,8.18c0.88,3.06,0.75,4.42,0.49,5.43
				c-0.54,2.08-1.8,3.27-5.01,5.89c-3.35,2.75-5.03,4.13-6.48,4.96C800.54,429.07,798.42,430.28,795.62,430.28L795.62,430.28
				L795.62,430.28z"/>
		</g>
		<g>
			<path class="st4" d="M603.7,551.11H262.37c-13.74,0-24.92-11.18-24.92-24.92V268.09c0-13.74,11.18-24.92,24.92-24.92H603.7
				c13.74,0,24.92,11.18,24.92,24.92v258.11C628.62,539.93,617.45,551.11,603.7,551.11L603.7,551.11z"/>
			<path class="st3" d="M603.7,551.11H262.37c-13.74,0-24.92-11.18-24.92-24.92V268.09c0-13.74,11.18-24.92,24.92-24.92H603.7
				c13.74,0,24.92,11.18,24.92,24.92v258.11C628.62,539.93,617.45,551.11,603.7,551.11L603.7,551.11z M262.37,247.33
				c-11.45,0-20.76,9.31-20.76,20.76v258.11c0,11.45,9.31,20.76,20.76,20.76H603.7c11.45,0,20.76-9.31,20.76-20.76V268.09
				c0-11.45-9.31-20.76-20.76-20.76H262.37z"/>
			<circle class="st3" cx="566.2" cy="268.13" r="6.24"/>
			<circle class="st3" cx="582.85" cy="268.13" r="6.24"/>
			<circle class="st3" cx="599.49" cy="268.13" r="6.24"/>
			<path class="st6" d="M272.82,369.05c-1.72,0-3.12,1.4-3.12,3.12c0,0.84,0.32,1.62,0.91,2.19c0.59,0.61,1.37,0.93,2.21,0.93
				h322.51c1.72,0,3.12-1.4,3.12-3.12c0-0.84-0.32-1.62-0.91-2.19c-0.59-0.61-1.37-0.93-2.21-0.93H272.82z"/>
			<path class="st9" d="M537.07,368.01v8.32H272.82c-1.14,0-2.18-0.46-2.93-1.23c-0.77-0.75-1.23-1.79-1.23-2.93
				c0-2.29,1.87-4.16,4.16-4.16L537.07,368.01L537.07,368.01z"/>
			<path class="st6" d="M590.13,352.4h-41.61c-4.59,0-8.32-3.73-8.32-8.32c0-4.59,3.73-8.32,8.32-8.32h41.61
				c4.59,0,8.32,3.73,8.32,8.32C598.45,348.67,594.72,352.4,590.13,352.4z"/>
			<path class="st6" d="M317.55,308.71h-41.61c-4.59,0-8.32-3.73-8.32-8.32s3.73-8.32,8.32-8.32h41.61c4.59,0,8.32,3.73,8.32,8.32
				S322.14,308.71,317.55,308.71z"/>
			<path class="st6" d="M272.82,462.68c-1.72,0-3.12,1.4-3.12,3.12c0,0.84,0.32,1.62,0.91,2.19c0.59,0.61,1.37,0.93,2.21,0.93
				h322.51c1.72,0,3.12-1.4,3.12-3.12c0-0.84-0.32-1.62-0.91-2.19c-0.59-0.61-1.37-0.93-2.21-0.93H272.82z"/>
			<path class="st9" d="M376.86,461.64v8.32H272.82c-1.14,0-2.18-0.46-2.93-1.23c-0.77-0.75-1.23-1.79-1.23-2.93
				c0-2.29,1.87-4.16,4.16-4.16L376.86,461.64L376.86,461.64z"/>
			<path class="st6" d="M590.13,446.04h-41.61c-4.59,0-8.32-3.73-8.32-8.32c0-4.59,3.73-8.32,8.32-8.32h41.61
				c4.59,0,8.32,3.73,8.32,8.32C598.45,442.3,594.72,446.04,590.13,446.04z"/>
		</g>
	</g>
</g>
<g id="Capa_3">
	<g>
		<path class="st3" d="M916.86,490.14H88.92c-11.1,0-20.13-10.5-20.13-23.42V137.88c0-12.91,9.03-23.42,20.13-23.42h827.94
			c11.1,0,20.13,10.5,20.13,23.42v328.84C936.99,479.63,927.96,490.14,916.86,490.14z M88.92,117.26c-9.77,0-17.73,9.25-17.73,20.62
			v328.84c0,11.37,7.95,20.63,17.73,20.63h827.94c9.77,0,17.73-9.25,17.73-20.63V137.88c0-11.37-7.95-20.62-17.73-20.62
			C916.86,117.26,88.92,117.26,88.92,117.26z"/>
		<rect id="uuid-dac6dc9f-03bc-4283-a90c-97bcdcbf45dc" x="0.34" y="882.98" class="st3" width="999.66" height="2.24"/>
		<rect id="uuid-2f9646f7-bb94-4523-8d2e-fd8f0877664c" x="0.34" y="762.93" class="st6" width="999.66" height="5.47"/>
		<g>
			<path id="uuid-bb35f39c-94aa-41c4-b5d9-34ca9a9e88f1-290" class="st8" d="M467.79,503.05c0.85,10.72,7.08,18.97,13.9,18.43
				c6.82-0.54,11.66-9.67,10.8-20.4c-0.28-4.29-1.59-8.45-3.81-12.13l-4.19-45.38l-21.25,2.42l6.38,44.48
				C468.03,494.45,467.39,498.77,467.79,503.05z"/>
			<path class="st6" d="M442.41,291.35c0,0,19.87-10.52,29.94,5.2c10.07,15.72,17.03,185.68,17.03,185.68l-27.92,2.98l-5.29-119.77
				L442.41,291.35L442.41,291.35z"/>
			<g>
				<polygon class="st8" points="401.17,754.88 417.35,754.88 425.04,692.49 401.17,692.49 				"/>
				<path class="st7" d="M456.59,754.52L456.59,754.52c0.5,0.85,0.77,3.59,0.77,4.57l0,0c0,3.03-2.46,5.49-5.49,5.49h-50.09
					c-2.07,0-3.75-1.68-3.75-3.75v-2.09c0,0-2.48-6.27,2.62-13.99c0,0,6.34,6.05,15.82-3.43l2.79-5.06l20.22,14.79l11.21,1.38
					C453.15,752.74,455.33,752.39,456.59,754.52L456.59,754.52L456.59,754.52z"/>
			</g>
			<g>
				<polygon class="st8" points="494.77,752.2 510.45,748.2 502.46,685.85 479.33,691.76 				"/>
				<path class="st7" d="M548.38,738.13L548.38,738.13c0.7,0.7,1.63,3.28,1.88,4.24l0,0c0.75,2.94-1.02,5.93-3.96,6.68l-48.53,12.4
					c-2,0.51-4.04-0.7-4.56-2.7l-0.52-2.02c0,0-3.95-5.46-0.92-14.21c0,0,7.64,4.29,14.48-7.23l1.45-5.6l23.26,9.33l11.2-1.44
					C544.61,737.26,546.63,736.39,548.38,738.13L548.38,738.13L548.38,738.13z"/>
			</g>
			<polygon class="st8" points="387.79,277.94 387.03,272.37 396.14,250.11 421.18,247.33 426.59,279.2 			"/>
			<polygon class="st10" points="387.79,277.94 387.03,272.37 396.14,250.11 421.18,247.33 426.59,279.2 			"/>
			<polygon class="st7" points="358.57,435.16 347.44,465.77 355.79,482.47 397.53,724.56 425.28,724.56 419.79,510.29 
				483.8,724.56 511.26,724.56 489.17,579.86 472.66,446.29 462.65,440.1 414.23,412.9 			"/>
			<polygon class="st6" points="429.53,456.03 412.84,458.81 390.57,405.94 440.66,405.94 			"/>
			<polygon class="st7" points="462.92,442.12 429.53,456.03 418.4,430.99 412.84,458.81 354.4,440 362.75,405.94 354.4,294.63 
				383.87,274.99 387.79,272.37 423.97,275.15 427.14,276.88 449.01,289.07 454.58,380.9 			"/>
			<polygon class="st6" points="427.14,276.88 411.45,343.33 383.87,274.99 387.79,272.37 423.97,275.15 			"/>
			<polygon class="st7" points="400.31,272.37 394.75,281.96 400.31,285.15 397.53,343.5 408.66,358.64 419.79,336.27 
				411.45,285.15 414.23,272.37 			"/>
			<circle class="st8" cx="408.66" cy="240.37" r="26.44"/>
			<path class="st7" d="M391.77,242.69l5.71,2.49l2.49-14.96c0,0,9.97-4.99,17.45-2.49s19.94,0,19.94,0s0-24.93-17.45-24.93
				s-34.9,2.49-34.9,9.97c0,7.48-7.48,14.96-7.48,14.96s-9.97,14.96,0,24.93c9.97,9.97,14.96,9.97,14.96,9.97L391.77,242.69
				L391.77,242.69z"/>
			<path id="uuid-97233535-ec91-4408-928f-bf1e5273ca3e-291" class="st8" d="M340.47,502.27c-0.29,10.75,5.02,19.61,11.86,19.8
				c6.84,0.18,12.62-8.38,12.91-19.14c0.17-4.29-0.68-8.57-2.5-12.46l0.65-45.56l-21.39,0.15l1.63,44.9
				C341.62,493.74,340.53,497.97,340.47,502.27z"/>
			<path class="st6" d="M366.94,289.02c0,0-18.09-5.57-26.44,11.13s2.78,186.44,2.78,186.44h28.08l-7.45-119.66L366.94,289.02
				L366.94,289.02z"/>
		</g>
		<g>
			<path class="st3" d="M952.81,604.43l-61.67-20.65c-1.36-0.46-2.8-0.62-4.22-0.49l-312.56,29.09c-4.46,0.41-5.58,6.99-1.56,9.13
				l10.01,5.33h-0.27v255.38h9.43v-250.5l31.38,16.72c2.4,1.28,5.08,1.8,7.74,1.51l3.34-0.37v232.64h9.43V648.55l241.75-26.71
				v260.39h9.43V620.8l40.09-4.43v265.86h9.43v-266.9l7.31-0.81C957.04,613.96,957.75,606.08,952.81,604.43L952.81,604.43z"/>
			<path class="st4" d="M649.75,611.38c6.45,0,101.89-11.61,101.89-11.61l14.19,19.35l-99.31,19.35L649.75,611.38L649.75,611.38z"/>
			<g>
				<polygon class="st2" points="754.5,872.32 737.92,872.29 730.14,808.31 754.61,808.35 				"/>
				<path class="st7" d="M697.69,871.84L697.69,871.84c-0.52,0.87-0.8,3.67-0.8,4.69l0,0c-0.01,3.11,2.51,5.63,5.62,5.64l51.35,0.09
					c2.12,0,3.84-1.71,3.85-3.83l0-2.14c0,0,2.55-6.42-2.67-14.35c0,0-6.51,6.19-16.21-3.54l-2.86-5.19l-20.76,15.13l-11.5,1.39
					C701.21,870.03,698.99,869.67,697.69,871.84L697.69,871.84L697.69,871.84z"/>
			</g>
			<g>
				<polygon class="st2" points="843.5,842.57 830.42,852.43 786.13,806.67 805.44,792.1 				"/>
				<path class="st7" d="M798.45,876.08L798.45,876.08c0.11,0.99,1.57,3.37,2.17,4.17l0,0c1.85,2.45,5.34,2.94,7.79,1.09
					l40.51-30.56c1.67-1.26,2.01-3.64,0.74-5.31l-1.27-1.69c0,0-1.82-6.58-10.66-9.72c0,0-1.44,8.76-14.88,6.88l-5.35-2.39
					l-7.33,24.3l-8.23,7.96C800.15,872.55,798.18,873.59,798.45,876.08L798.45,876.08L798.45,876.08z"/>
			</g>
			<path class="st2" d="M808.84,511.93c0,15.29-12.4,27.69-27.69,27.69c-15.29,0-27.69-12.4-27.69-27.69s12.4-27.69,27.69-27.69
				C796.45,484.24,808.84,496.64,808.84,511.93z"/>
			<path class="st7" d="M806.23,671.57c0,0-101.94-5.77-107.71,5.77s31.2,170.07,31.2,170.07l32.98-6.91l-16.09-111.22
				c0,0,85.07,22.53,96.61-4.4c11.54-26.93,8.22-36.96,8.22-36.96L806.23,671.57L806.23,671.57z"/>
			<path class="st7" d="M832.35,652.2c0,0-99.84,21.4-102.35,34.06s75.07,155.75,75.07,155.75l29.98-15.39l-44.94-103
				c0,0,88-0.78,92.01-29.8c4.01-29.02-1.85-37.81-1.85-37.81L832.35,652.2L832.35,652.2z"/>
			<path class="st5" d="M843.74,543.66h-47.97l-32.82,53.86c0,0-7.69,34.8,0,38.56c7.69,3.76,7.69,44.15,7.69,44.15l80.79,7.69
				c0,0,11.54-121.18,7.69-132.72C855.28,543.66,843.74,543.66,843.74,543.66z"/>
			<path class="st2" d="M767.77,579.25l-4.81,56.83l-54.09-22.95l-12.91-6.49c-2.53-3.3-5.81-5.94-9.57-7.71
				c-9.35-4.56-19.27-3.43-22.17,2.52c-2.9,5.95,2.33,14.46,11.67,19.01c3.71,1.87,7.82,2.83,11.97,2.79l37.77,21.45l0.04-0.08
				l0.17,0.3l59.23,24.74l13.63-74.61L767.77,579.25L767.77,579.25z"/>
			<path class="st7" d="M761.99,515.77c0,0-28.85,3.85-17.31-21.16c0,0-1.76-13.56,6.81-14.47c8.57-0.92,20.11-16.3,20.11-16.3
				s26.46-13.46,40.16,0c13.7,13.46,54.09,92.33,54.09,92.33l-26.93,28.85c0,0-16.19-42.56-35.02-37.63
				c-18.83,4.93-36.15,19.63-36.15,19.63s-19.11-9.57-10.52-17.9C765.84,540.78,761.99,515.77,761.99,515.77z"/>
			<path class="st5" d="M800.46,558.09c0,0-13.46-17.31-23.08-3.85c-9.62,13.46-17.31,30.78-17.31,30.78l38.47,13.46L800.46,558.09z
				"/>
			<path class="st6" d="M946.53,878.4l-44.69-142.06l0.01,0h0.1l-0.18-0.23l0-0.01l-3.18-10.12l0,0c4.85-4.18,8.15-10.15,8.81-17.03
				l-20.43-112.37c1.41-14.76-9.91-27.65-24.73-28.18l-46.1-0.12c-13.1-0.46-24.45,9-26.36,21.98l-1.02,6.89l-14.12,96.08
				c-0.52,3.46-0.31,6.86,0.5,10.05l-10.16,1.33l-3.08,0.41l-12.19,1.59l-0.04,0.01l-1.52,0.19h-1.65v41.27h0.1v131.92
				c0,0.85,0.7,1.55,1.55,1.55c0.86,0,1.56-0.7,1.56-1.55V748.09h18.08l18.04,131.77c0.12,0.77,0.77,1.34,1.55,1.34
				c0.06,0,0.14,0,0.21-0.01c0.85-0.12,1.44-0.9,1.33-1.75l-17.98-131.34h86.76c8.62,0,16.6-2.73,23.1-7.42l34.4,138.94
				c0.18,0.7,0.81,1.17,1.5,1.17c0.13,0,0.26-0.02,0.38-0.05c0.83-0.21,1.33-1.06,1.12-1.89l-34.73-140.28
				c0.46-0.39,0.92-0.8,1.36-1.22l13.81-0.81l44.93,142.8c0.21,0.66,0.82,1.09,1.48,1.09c0.15,0,0.31-0.02,0.47-0.07
				C946.33,880.1,946.78,879.22,946.53,878.4L946.53,878.4z M895.62,728.19c0.12-0.06,0.22-0.14,0.32-0.21l0,0l0.33,1.05
				L895.62,728.19z"/>
		</g>
		<g>
			<g>
				<polygon class="st8" points="213.77,630.46 243.85,611.33 256.08,618.71 213.77,667.32 				"/>
				<path class="st6" d="M172.64,556.42c0,0-19.98,4.7-10.58,31.73c9.4,27.03,39.96,83.44,49.36,79.92
					c9.4-3.53,10.58-38.78,10.58-38.78s-1.18,1.18-5.88-3.53c-4.7-4.7-4.7-2.55-4.7-7.74c0-5.19-3.85-9.03-3.85-9.03l-4.38-9.08
					c0,0,0-42.31-17.63-44.66C167.94,552.89,172.64,556.42,172.64,556.42z"/>
				
					<ellipse transform="matrix(0.7071 -0.7071 0.7071 0.7071 -355.0789 360.199)" class="st8" cx="257.26" cy="608.72" rx="19.98" ry="12.34"/>
			</g>
			<g>
				<polygon class="st6" points="94.82,712.14 115.35,746.11 234.96,739.04 203.11,697.99 				"/>
				<path class="st6" d="M130.56,871.03c-0.7,0-1.3-0.51-1.4-1.22L93.42,608.77c-0.11-0.77,0.44-1.49,1.21-1.59
					c0.77-0.11,1.49,0.44,1.59,1.21l35.74,261.04c0.11,0.77-0.44,1.49-1.21,1.59C130.69,871.03,130.63,871.03,130.56,871.03z"/>
				<path class="st6" d="M94.82,871.37c-0.78,0-1.42-0.63-1.42-1.42V608.63c0-0.78,0.63-1.42,1.42-1.42c0.78,0,1.42,0.63,1.42,1.42
					v261.32C96.24,870.73,95.6,871.37,94.82,871.37z"/>
				<path class="st6" d="M274.24,870.33c-0.6,0-1.16-0.39-1.35-0.99l-84.58-268.83c-0.23-0.75,0.18-1.54,0.93-1.78
					c0.75-0.23,1.54,0.18,1.77,0.93l84.58,268.83c0.23,0.75-0.18,1.54-0.93,1.78C274.52,870.31,274.38,870.33,274.24,870.33
					L274.24,870.33z"/>
				<path class="st6" d="M248.41,870.66c-0.63,0-1.21-0.43-1.37-1.07l-58.74-237.26c-0.19-0.76,0.27-1.53,1.02-1.72
					c0.76-0.19,1.53,0.27,1.72,1.02l58.74,237.26c0.19,0.76-0.27,1.53-1.02,1.72C248.64,870.64,248.52,870.66,248.41,870.66
					L248.41,870.66z"/>
				<polygon class="st6" points="94.82,612.79 192.85,611.28 210.9,714.26 96.24,714.26 				"/>
			</g>
			<g>
				<polygon class="st8" points="245.46,764.22 220.76,807.71 249.44,814.02 261.4,783.09 				"/>
				<path class="st7" d="M229.63,799.5c0,0-0.96-7.09-6.6-4.84s-21.93,10.62-21.93,10.62s42.48,69.03,50.54,65.81
					c8.06-3.22-1.59-22.73-1.59-22.73l2.13-34.49L229.63,799.5L229.63,799.5z"/>
				<path class="st7" d="M136.21,679.82c0,0-8.81,40.55,18.22,54.65s119.29-20.57,119.29-20.57L231.4,777.3l29.38,11.82
					c0,0,66.99-88.14,62.29-102.25c-4.7-14.1-36.43-15.28-36.43-15.28l-71.69,3.53l-18.8-5.88
					C196.15,669.24,136.21,679.82,136.21,679.82z"/>
			</g>
			<g>
				<polygon class="st8" points="208.91,783.52 170.08,815.04 194.5,831.36 216.89,806.9 				"/>
				<path class="st7" d="M181.33,810.62c0,0,1.69-6.96-4.39-6.91c-6.08,0.04-24.29,1.91-24.29,1.91s14.45,79.75,23.13,79.69
					s6.79-21.75,6.79-21.75l14.53-31.35L181.33,810.62L181.33,810.62z"/>
				<path class="st7" d="M137.86,665.15c0,0-22.96,34.56-2.92,57.53c20.05,22.97,118.59,24.25,118.59,24.25l-62.48,43.65l23.07,21.7
					c0,0,94.47-57.73,95.22-72.57s-28.38-27.49-28.38-27.49l-68.06-22.8l-15.38-12.32C197.54,677.11,137.86,665.15,137.86,665.15z"
					/>
			</g>
			<path class="st7" d="M196.85,585.11c0,0-22.33-8.23-32.91-8.23c-1.01,0-2.01,0.12-3.01,0.33c-6.77,1.43-13,7.25-15.98,10.42
				c-1.16,1.25-1.83,2.08-1.83,2.08s0.07-0.81,0.21-2.23c0.69-7.47,3.26-32,7.85-47.7c1.65-5.61,3.54-10.08,5.71-12.26
				c5.07-5.08,7.4-11.16,8.49-15.7c0.92-3.89,0.92-6.63,0.92-6.63l-8.57-3.69l-1.59-10.37c-0.28,1.22-1.59,3.61-5.97,8.18
				c-0.38,0.39-0.79,0.72-1.22,1c-6.32,3.97-19.22-2.94-26.16-7.29c2.89-10.05,8.13-19.24,17.65-20.74
				c22.33-3.53,22.33-16.45,36.43-2.35c1.16,1.16,2.34,2.28,3.51,3.36c4.51,8.63,6.16,20.19,6.75,28.23
				c0.42,5.63,0.32,9.54,0.32,9.54s5.88,35.26,15.28,42.31C212.13,560.43,196.85,585.11,196.85,585.11L196.85,585.11z"/>
			<polygon class="st8" points="153.37,528.69 137.49,551.99 173.35,561.6 173.35,528.69 			"/>
			<polygon class="st10" points="153.37,528.69 137.49,551.99 173.35,561.6 173.35,528.69 			"/>
			<path class="st6" d="M175.58,551.13l-34.08-14.1c0,0-45.83,19.98-42.31,58.76c3.53,38.78,36.43,105.77,36.43,105.77l65.81-28.21
				l-7.05-75.22L175.58,551.13L175.58,551.13z"/>
			<circle class="st8" cx="160.97" cy="509.02" r="30.07"/>
			<path class="st7" d="M201.56,498.14c-5.88,5.88-10.58,11.75-10.58,11.75l-2.35-9.4c0,0-0.54,0.4-1.49,1.03
				c-3.73,2.54-13.73,8.92-21.75,10.3c-3.57,0.61-6.75,0.22-8.81-1.93c-4.38-4.57-5.69-6.96-5.97-8.18l-1.59,10.37l-8.57,3.69
				c0,0,0,12.9,9.4,22.33c0.46,0.46,0.9,1.02,1.34,1.68c4.49,6.77,7.71,23.34,9.75,37.43c1.81,12.53,2.68,23.08,2.68,23.08
				s-8.9-11.14-18.66-12.66c-0.54-0.08-1.08-0.14-1.62-0.15c-0.18-0.02-0.36-0.02-0.54-0.02c-10.58,0-32.91,8.23-32.91,8.23
				s-15.28-24.68-5.88-31.73s15.28-42.31,15.28-42.31s-0.39-15.09,3.5-28.62c2.89-10.05,8.13-19.24,17.65-20.74
				c22.33-3.53,22.33-16.45,36.43-2.35c1.16,1.16,2.34,2.28,3.51,3.36C193.53,485.37,206.95,492.74,201.56,498.14L201.56,498.14z"/>
			<rect x="58.51" y="655.9" class="st3" width="11.17" height="220.55"/>
			<rect x="329.31" y="655.9" class="st3" width="11.17" height="220.55"/>
			<rect x="195.31" y="562.38" class="st5" width="73.98" height="73.98"/>
			<g>
				<polygon class="st8" points="152.66,641.04 182.74,621.91 194.97,629.28 152.66,677.9 				"/>
				<path class="st6" d="M111.53,567c0,0-19.98,4.7-10.58,31.73c9.4,27.03,39.96,83.44,49.36,79.92
					c9.4-3.53,10.58-38.78,10.58-38.78s-1.18,1.18-5.88-3.53c-4.7-4.7-4.7-2.55-4.7-7.74s-3.85-9.03-3.85-9.03l-4.38-9.08
					c0,0,0-42.31-17.63-44.66C106.83,563.47,111.53,567,111.53,567z"/>
				
					<ellipse transform="matrix(0.7071 -0.7071 0.7071 0.7071 -380.4578 320.0835)" class="st8" cx="196.15" cy="619.29" rx="19.98" ry="12.34"/>
			</g>
			<rect x="25.01" y="647.52" class="st3" width="337.8" height="25.13"/>
		</g>
		<path class="st3" d="M545.39,453.67h49.89c3.95,0,7.16,3.21,7.16,7.16v20.58c0,3.95-3.21,7.16-7.16,7.16h-49.89
			c-3.95,0-7.16-3.21-7.16-7.16v-20.58C538.23,456.87,541.43,453.67,545.39,453.67z"/>
		<path class="st5" d="M650.08,474.24h49.89c3.95,0,7.16,3.21,7.16,7.16v0c0,3.95-3.21,7.16-7.16,7.16h-49.89
			c-3.95,0-7.16-3.21-7.16-7.16v0C642.92,477.45,646.13,474.24,650.08,474.24z"/>
	</g>
</g>
</svg>
